<?xml version="1.0" encoding="UTF-8"?>
<!DOCTYPE svg PUBLIC "-//W3C//DTD SVG 1.1//EN" "http://www.w3.org/Graphics/SVG/1.1/DTD/svg11.dtd">
<!-- Creator: CorelDRAW -->
<svg xmlns="http://www.w3.org/2000/svg" xml:space="preserve" width="6.82666in" height="6.82666in" style="shape-rendering:geometricPrecision; text-rendering:geometricPrecision; image-rendering:optimizeQuality; fill-rule:evenodd; clip-rule:evenodd"
viewBox="0 0 6.82666 6.82666"
 xmlns:xlink="http://www.w3.org/1999/xlink">
 <defs>
  <style type="text/css">
   <![CDATA[
    .fil3 {fill:none}
    .fil0 {fill:#424242}
    .fil1 {fill:#FFFFFE}
    .fil2 {fill:#FFFFFE;fill-rule:nonzero}
   ]]>
  </style>
 </defs>
 <rect class="fil0" width="6.82666" height="6.82666"/>
 <g id="Layer_x0020_1">
  <metadata id="CorelCorpID_0Corel-Layer"/>
  <path class="fil1" d="M3.35497 1.15772c0.173488,-0.00329921 0.348409,0.0409449 0.511094,0.13278 0.392768,0.221724 0.71339,0.72313 0.757339,1.50242l0.22263 0 0.10376 0 -0.00192126 0.103831c-0.026378,1.42592 -0.43572,2.33951 -0.943484,2.73826 -0.20687,0.162453 -0.43113,0.242047 -0.655165,0.238874 -0.22452,-0.0031811 -0.445559,-0.0892598 -0.645465,-0.258134 -0.483953,-0.408831 -0.849343,-1.31819 -0.822134,-2.72219l0.00194882 -0.100642 0.0998858 0 0.215752 0c0.00481496,-0.755587 0.285106,-1.25089 0.652469,-1.48235 0.156433,-0.0985591 0.328776,-0.149535 0.503291,-0.15285zm-0.279382 2.59407l0.00600394 0.00719291 0.908626 1.08833 0.00180709 -0.0014685 0.0418228 0.0536575c0.0163268,0.0209488 0.0282992,0.0448976 0.0355906,0.0704213 0.00742126,0.0259882 0.00970866,0.053252 0.00664567,0.0801102 -0.00305906,0.026815 -0.0112165,0.0529016 -0.0243346,0.0765039 -0.00203543,0.00366142 -0.00416142,0.00725984 -0.00638189,0.0107874l0.0074252 0.00877953 -0.0545118 0.042689c-7.87402e-006,7.87402e-006 -1.5748e-005,1.5748e-005 -2.3622e-005,2.3622e-005l-0.0502677 0.039752 -0.00690157 -0.00815354c-0.0041378,0.00147244 -0.00832677,0.00281496 -0.0125472,0.00402756 -0.0129724,0.00373228 -0.0263071,0.00616535 -0.0397598,0.00727559 -0.0134528,0.00111024 -0.0270197,0.000956693 -0.0404331,-0.000570866 -0.013437,-0.0015315 -0.026752,-0.00427559 -0.0396299,-0.00842126 -0.0128898,-0.00414961 -0.0253701,-0.00955906 -0.0372087,-0.0161417 -0.0118268,-0.0065748 -0.0231142,-0.014189 -0.0334213,-0.0229685 -0.00975984,-0.00830709 -0.0182244,-0.0178898 -0.0264094,-0.0277165l-0.00158661 -0.00190551 -0.950807 -1.13913 -0.00911417 0.00122441c-0.0322992,0.00433858 -0.0651102,0.00469291 -0.0975079,0.0012126 -0.0323228,-0.00347244 -0.0641969,-0.0107992 -0.0947598,-0.0218819 -0.0347165,-0.0125906 -0.0676339,-0.0298425 -0.0976142,-0.0514173 -0.011563,-0.0083189 -0.0226417,-0.0172638 -0.0332087,-0.0267677l-0.00450394 0.00370866 -0.042185 -0.0532874c-0.0219094,-0.0276732 -0.0402598,-0.0580276 -0.0543189,-0.0904134 -0.0139961,-0.032248 -0.0234843,-0.0663228 -0.0285945,-0.101091 -0.00514173,-0.0349764 -0.00561417,-0.0705512 -0.00148819,-0.105657 0.00096063,-0.00818898 0.00216535,-0.0163504 0.00361417,-0.0244685l0.0259567 -0.145299 0.222598 0.279996 0.177543 -0.0265354 0.0655906 -0.16676 -0.222346 -0.279669 0.146917 0.00705906c0.00843701,0.000401575 0.0168583,0.00107087 0.025252,0.00201181 0.035122,0.00392126 0.0696535,0.0124764 0.102555,0.0253661 0.0327087,0.012815 0.0636969,0.029815 0.0919488,0.0507205 0.0283819,0.021 0.0537756,0.0457717 0.0757362,0.0734055 0.0220866,0.0277953 0.0404213,0.0583898 0.0545,0.0909803 0.014063,0.032563 0.0238543,0.066878 0.0288858,0.101996 0.00440945,0.0307835 0.0051063,0.0620433 0.00237795,0.0930157 -0.00272441,0.0308661 -0.00898425,0.0613858 -0.0186811,0.0908189l-0.00285039 0.00865354z"/>
  <path class="fil2" d="M4.12254 1.74326c-0.0149961,0.0542559 0.0168307,0.110406 0.0710866,0.125398 0.054252,0.0149961 0.110402,-0.0168268 0.125398,-0.0710827 0.0247402,-0.089626 0.0389882,-0.169508 0.0521772,-0.243476 0.0419685,-0.235378 0.0707795,-0.396937 0.474126,-0.396937 0.0564606,0 0.102236,-0.0457756 0.102236,-0.10224 0,-0.0564606 -0.0457756,-0.102236 -0.102236,-0.102236 -0.574421,0 -0.615528,0.230476 -0.675402,0.566268 -0.0127441,0.0715118 -0.0265197,0.148736 -0.0473858,0.224307z"/>
  <g id="_42312432">
   <rect id="_42313392" class="fil3" width="6.82666" height="6.82666"/>
   <rect id="_42313776" class="fil3" x="0.853331" y="0.853331" width="5.12" height="5.12"/>
  </g>
  <path class="fil2" d="M4.74148 2.79292c-0.0564606,0 -0.102236,0.0457756 -0.102236,0.102236 0,0.0564606 0.0457756,0.102236 0.102236,0.102236l0.456496 0c0.0423228,0 0.0786378,-0.0257165 0.0941732,-0.062378l0.297291 -0.555043c0.0264685,-0.049626 0.00769291,-0.111315 -0.0419331,-0.13778 -0.049622,-0.0264685 -0.111311,-0.00769291 -0.13778,0.0419331l-0.272516 0.508795 -0.395732 0z"/>
  <path class="fil2" d="M2.08518 2.99739c0.0564606,0 0.102236,-0.0457756 0.102236,-0.102236 0,-0.0564606 -0.0457756,-0.102236 -0.102236,-0.102236l-0.395732 0 -0.272516 -0.508795c-0.0264646,-0.049626 -0.0881535,-0.0684016 -0.13778,-0.0419331 -0.049622,0.0264646 -0.0684016,0.0881535 -0.0419331,0.13778l0.297291 0.555043c0.0155354,0.0366614 0.0518543,0.062378 0.0941772,0.062378l0.456492 0z"/>
  <path class="fil2" d="M2.08498 4.32644c0.0564646,0 0.10224,-0.0457756 0.10224,-0.102236 0,-0.0564606 -0.0457756,-0.102236 -0.10224,-0.102236l-0.329055 0 -0.232913 -0.503602c-0.0235984,-0.0511693 -0.0842126,-0.0735197 -0.135378,-0.0499213 -0.0511693,0.0236024 -0.0735197,0.0842126 -0.0499213,0.135382l0.25761 0.556984c0.0147283,0.038378 0.0519173,0.0656299 0.0954803,0.0656299l0.394177 0z"/>
  <path class="fil2" d="M2.39169 5.24656c0.0564646,0 0.10224,-0.0457756 0.10224,-0.102236 0,-0.0564606 -0.0457756,-0.102236 -0.10224,-0.102236l-0.394181 0c-0.0435591,0 -0.080748,0.027252 -0.0954764,0.0656299l-0.25761 0.556984c-0.0235984,0.0511693 -0.00124803,0.11178 0.0499213,0.135378 0.0511654,0.0236024 0.11178,0.00125197 0.135378,-0.0499173l0.232913 -0.503602 0.329055 0z"/>
  <path class="fil2" d="M4.33415 5.04208c-0.0564606,0 -0.102236,0.0457756 -0.102236,0.102236 0,0.0564606 0.0457756,0.102236 0.102236,0.102236l0.329055 0 0.232917 0.503602c0.0235984,0.0511693 0.0842087,0.0735197 0.135378,0.0499173 0.0511654,-0.0235984 0.0735157,-0.0842087 0.0499173,-0.135378l-0.257606 -0.556984c-0.0147283,-0.038378 -0.0519213,-0.0656299 -0.0954803,-0.0656299l-0.394181 0z"/>
  <path class="fil2" d="M4.70188 4.12197c-0.0564606,0 -0.102236,0.0457756 -0.102236,0.102236 0,0.0564606 0.0457756,0.102236 0.102236,0.102236l0.394181 0c0.0435591,0 0.080752,-0.027252 0.0954803,-0.0656299l0.257606 -0.556984c0.0235984,-0.0511693 0.00124803,-0.11178 -0.0499173,-0.135382 -0.0511693,-0.0235984 -0.11178,-0.00124803 -0.135378,0.0499213l-0.232917 0.503602 -0.329055 0z"/>
  <path class="fil2" d="M2.37933 1.79758c0.0149961,0.0542559 0.0711457,0.0860787 0.125402,0.0710827 0.054252,-0.0149921 0.0860787,-0.0711417 0.0710827,-0.125398 -0.0208622,-0.0755709 -0.0346417,-0.152795 -0.0473858,-0.224307 -0.059874,-0.335791 -0.10098,-0.566268 -0.675402,-0.566268 -0.0564606,0 -0.102236,0.0457756 -0.102236,0.102236 0,0.0564646 0.0457756,0.10224 0.102236,0.10224 0.403346,0 0.432157,0.161559 0.474126,0.396937 0.013189,0.0739685 0.027437,0.15385 0.0521772,0.243476z"/>
 </g>
</svg>
