<?xml version="1.0" encoding="UTF-8"?>
<!DOCTYPE svg PUBLIC "-//W3C//DTD SVG 1.1//EN" "http://www.w3.org/Graphics/SVG/1.1/DTD/svg11.dtd">
<!-- Creator: CorelDRAW -->
<svg xmlns="http://www.w3.org/2000/svg" xml:space="preserve" width="6.82666in" height="6.82666in" style="shape-rendering:geometricPrecision; text-rendering:geometricPrecision; image-rendering:optimizeQuality; fill-rule:evenodd; clip-rule:evenodd"
viewBox="0 0 6.82666 6.82666"
 xmlns:xlink="http://www.w3.org/1999/xlink">
 <defs>
  <style type="text/css">
   <![CDATA[
    .fil1 {fill:none}
    .fil0 {fill:#424242}
    .fil2 {fill:#FFFFFE}
   ]]>
  </style>
 </defs>
 <rect class="fil0" width="6.82666" height="6.82666"/>
 <g id="Layer_x0020_1">
  <metadata id="CorelCorpID_0Corel-Layer"/>
  <g id="_42314376">
   <rect id="_42314424" class="fil1" width="6.82666" height="6.82666"/>
   <rect id="_42314544" class="fil1" x="0.853331" y="0.853331" width="5.12" height="5.12"/>
  </g>
  <path class="fil2" d="M3.13546 4.61024l5.51181e-005 0.00675591c0.000425197,0.0498701 0.0109646,0.0969055 0.033815,0.141343 0.047063,0.0915276 0.139732,0.158461 0.226839,0.208677 0.120256,0.0693228 0.255177,0.122787 0.383567,0.175374 0.338618,0.138697 0.795634,0.316075 0.854917,0.728898l0.0109331 0.0761417 -3.72818 0 0.010937 -0.0761417c0.0592913,-0.412823 0.516303,-0.590201 0.854925,-0.728898 0.128402,-0.0525906 0.263331,-0.106055 0.383598,-0.175382 0.0871063,-0.0502126 0.179791,-0.11715 0.226839,-0.208685 0.0228386,-0.0444291 0.0333661,-0.0914528 0.0337795,-0.141311l5.51181e-005 -0.00677165 -0.00423228 -0.00423228c-0.0517323,-0.0514331 -0.102496,-0.118469 -0.142823,-0.178681 -0.0892795,-0.133303 -0.15828,-0.284957 -0.184315,-0.444008l-0.00214961 -0.0131339 -0.0129646 0c-0.0353386,0 -0.063752,-0.0212913 -0.0856142,-0.0470354 -0.0262913,-0.0309606 -0.0447559,-0.0700394 -0.0571142,-0.1085 -0.0140906,-0.0438543 -0.0212992,-0.0908465 -0.0212992,-0.136909 0,-0.0719764 0.018189,-0.151894 0.0754173,-0.200492l0.00579528 -0.00492126 -0.00034252 -0.00729528c-0.00084252,-0.0180748 -0.0030748,-0.0364646 -0.00500787,-0.0544606 -0.00853543,-0.0794016 -0.0148898,-0.157307 -0.0148898,-0.237311 0,-0.515965 0.271835,-0.811209 0.803492,-0.811209 0.53165,0 0.803508,0.295232 0.803508,0.811201 0,0.0800157 -0.00635827,0.157929 -0.0148937,0.237339 -0.00193307,0.0179921 -0.00416929,0.0363819 -0.00501575,0.0544528l-0.000338583 0.00728346 0.00579134 0.00491732c0.0572362,0.0485945 0.0754213,0.128524 0.0754213,0.2005 0,0.046063 -0.00720472,0.0930551 -0.0212953,0.136909 -0.0123583,0.0384606 -0.0308268,0.0775433 -0.0571142,0.1085 -0.0218583,0.0257402 -0.0502756,0.0470315 -0.0856102,0.0470315l-0.0129646 0 -0.00214961 0.0131339c-0.0260354,0.159051 -0.0950394,0.310705 -0.184319,0.444008 -0.0403307,0.0602165 -0.0911535,0.127307 -0.142886,0.178744l-0.00416929 0.00416929z"/>
  <path class="fil2" d="M3.37703 1.06666l2.26594 0c0.0973701,0 0.177028,0.0796654 0.177028,0.177028l0 0.892217c0,0.0973622 -0.0796614,0.177024 -0.177028,0.177024l-0.226594 0 0 0.453193 -0.432146 -0.453193 -1.6072 0c-0.0973622,0 -0.177028,-0.0796575 -0.177028,-0.177024l0 -0.892217c0,-0.0973701 0.0796575,-0.177028 0.177028,-0.177028zm0.252972 0.297272l1.76 0 0 0.183335 -1.76 0 0 -0.183335zm0 0.422449l1.76 0 0 0.183335 -1.76 0 0 -0.183335z"/>
 </g>
</svg>
