<?xml version="1.0" encoding="UTF-8"?>
<!DOCTYPE svg PUBLIC "-//W3C//DTD SVG 1.1//EN" "http://www.w3.org/Graphics/SVG/1.1/DTD/svg11.dtd">
<!-- Creator: CorelDRAW -->
<svg xmlns="http://www.w3.org/2000/svg" xml:space="preserve" width="6.82666in" height="6.82666in" style="shape-rendering:geometricPrecision; text-rendering:geometricPrecision; image-rendering:optimizeQuality; fill-rule:evenodd; clip-rule:evenodd"
viewBox="0 0 6.82666 6.82666"
 xmlns:xlink="http://www.w3.org/1999/xlink">
 <defs>
  <style type="text/css">
   <![CDATA[
    .fil2 {fill:none}
    .fil0 {fill:#424242}
    .fil1 {fill:#FFFFFE}
   ]]>
  </style>
 </defs>
 <rect class="fil0" width="6.82666" height="6.82666"/>
 <g id="Layer_x0020_1">
  <metadata id="CorelCorpID_0Corel-Layer"/>
  <path class="fil1" d="M3.79354 1.34316c0.852858,0.155697 1.52609,0.825528 1.68686,1.6766 -0.189551,0.0237165 -0.336268,0.185484 -0.336268,0.381453 0,0.197354 0.148799,0.360004 0.340299,0.381917 -0.152972,0.860764 -0.829228,1.54043 -1.68825,1.69839 -0.0176693,-0.195913 -0.182354,-0.3495 -0.382858,-0.3495 -0.200504,0 -0.365189,0.153587 -0.382858,0.3495 -0.85902,-0.157965 -1.53528,-0.837626 -1.68825,-1.69839 0.1915,-0.0219134 0.340299,-0.184563 0.340299,-0.381917 0,-0.195972 -0.146717,-0.357744 -0.336276,-0.381457 0.160776,-0.851067 0.834004,-1.5209 1.68687,-1.67659 0.0276417,0.185165 0.187366,0.32724 0.380213,0.32724 0.19285,0 0.352575,-0.142083 0.380213,-0.327248zm-0.150441 2.22215c0.000535433,-0.00053937 0.187248,-0.185374 0.227787,-0.432976l0.00834646 -0.0509843 0.0514094 0c0.0075748,0 0.0165669,-0.00661811 0.0256929,-0.0173701 0.0134094,-0.0157835 0.024689,-0.0379606 0.0328386,-0.0633189 0.00855906,-0.0266496 0.0133661,-0.0564567 0.0133661,-0.0860551 0,-0.0453189 -0.0113543,-0.0876339 -0.0383307,-0.110543l-0.0227283 -0.0192992 0.00138583 -0.0295472c0.000547244,-0.011752 0.00203937,-0.0255984 0.00393307,-0.0431772 0.00425197,-0.0395827 0.0107126,-0.0996496 0.0107126,-0.17002 0,-0.223772 -0.071563,-0.549874 -0.544185,-0.549874 -0.472622,0 -0.544181,0.326106 -0.544181,0.549878 0,0.0703661 0.00645669,0.130425 0.0107126,0.170004 0.00188976,0.0175906 0.00338189,0.0314291 0.00392913,0.043189l0.00137795 0.0295512 -0.0227165 0.0192953c-0.0269803,0.0229094 -0.0383346,0.0652205 -0.0383346,0.110543 0,0.0295945 0.00480709,0.0593976 0.0133701,0.0860472 0.00814961,0.0253583 0.0194252,0.0475394 0.0328346,0.0633268 0.00912992,0.010748 0.018122,0.0173701 0.0257008,0.0173701l0.0514094 0 0.00834252 0.0509843c0.0405394,0.247602 0.227248,0.432437 0.227783,0.432976l0.0177638 0.0177598 -0.000212598 0.0256339c-0.0018937,0.226547 -0.241602,0.324728 -0.506354,0.433169 -0.266764,0.109264 -0.562654,0.230504 -0.601327,0.49976l2.6398 0c-0.0386654,-0.269256 -0.334555,-0.390496 -0.601319,-0.49976 -0.264748,-0.108441 -0.504457,-0.206622 -0.506354,-0.433169l-0.000220472 -0.0256299 0.0177677 -0.0177638z"/>
  <g id="_286391432">
   <rect id="_286391768" class="fil2" width="6.82666" height="6.82666"/>
   <rect id="_286391384" class="fil2" x="0.853331" y="0.853331" width="5.12" height="5.12"/>
  </g>
  <circle class="fil1" transform="matrix(2.48752E-014 0.939233 -0.939233 2.48752E-014 5.52859 3.40121)" r="0.295764"/>
  <circle class="fil1" transform="matrix(2.48752E-014 0.939233 -0.939233 2.48752E-014 3.41333 1.28595)" r="0.295764"/>
  <circle class="fil1" transform="matrix(2.48752E-014 0.939233 -0.939233 2.48752E-014 1.29807 3.40121)" r="0.295764"/>
  <circle class="fil1" transform="matrix(2.48752E-014 0.939233 -0.939233 2.48752E-014 3.41333 5.51648)" r="0.295764"/>
 </g>
</svg>
