<?xml version="1.0" encoding="UTF-8"?>
<!DOCTYPE svg PUBLIC "-//W3C//DTD SVG 1.1//EN" "http://www.w3.org/Graphics/SVG/1.1/DTD/svg11.dtd">
<!-- Creator: CorelDRAW -->
<svg xmlns="http://www.w3.org/2000/svg" xml:space="preserve" width="6.82666in" height="6.82666in" style="shape-rendering:geometricPrecision; text-rendering:geometricPrecision; image-rendering:optimizeQuality; fill-rule:evenodd; clip-rule:evenodd"
viewBox="0 0 6.82666 6.82666"
 xmlns:xlink="http://www.w3.org/1999/xlink">
 <defs>
  <style type="text/css">
   <![CDATA[
    .fil2 {fill:none}
    .fil0 {fill:#424242}
    .fil3 {fill:#FFFFFE}
    .fil1 {fill:#FFFFFE;fill-rule:nonzero}
   ]]>
  </style>
 </defs>
 <rect class="fil0" width="6.82666" height="6.82666"/>
 <g id="Layer_x0020_1">
  <metadata id="CorelCorpID_0Corel-Layer"/>
  <polygon class="fil1" points="3.34569,4.30964 3.06258,4.79999 3.76407,4.79999 3.47554,4.30024 3.65971,4.1944 4.04038,4.85374 4.13251,5.01333 3.9483,5.01333 2.87836,5.01333 2.69415,5.01333 2.78628,4.85374 3.16152,4.20381 "/>
  <g id="_286376240">
   <rect id="_286376672" class="fil2" width="6.82666" height="6.82666"/>
   <rect id="_286376576" class="fil2" x="0.853331" y="0.853331" width="5.12" height="5.12"/>
  </g>
  <path class="fil3" d="M1.12826 1.39242l4.57014 0c0.0925472,0 0.168264,0.0821457 0.168264,0.182539l0 2.55556c0,0.0899646 -0.0608071,0.165256 -0.140035,0.179933l0 -0.439311c0,-0.0958307 -0.034878,-0.189201 -0.0991929,-0.260441 -0.0679921,-0.0753071 -0.162626,-0.119559 -0.264602,-0.119559l-0.945709 0c-0.10198,0 -0.19661,0.044248 -0.264602,0.119563 -0.064315,0.0712441 -0.0991929,0.164606 -0.0991929,0.260437l0 0.441913 -2.92507 0c-0.0925472,0 -0.168264,-0.0821378 -0.168264,-0.182535l0 -2.55556c0,-0.100398 0.0757165,-0.182539 0.168264,-0.182539z"/>
  <path class="fil1" d="M4.41713 3.5978l0.945709 0c0.0728386,0 0.138433,0.0323228 0.185429,0.084374 0.0442402,0.0490039 0.0717008,0.115945 0.0717008,0.188961l0 1.72219c0,0.0730236 -0.0274685,0.139953 -0.0717047,0.188957 -0.0469961,0.0520591 -0.112594,0.084378 -0.185425,0.084378l-0.945709 0c-0.0728307,0 -0.138433,-0.032311 -0.185429,-0.084378 -0.0442323,-0.0489961 -0.0717008,-0.115929 -0.0717008,-0.188957l0 -1.72219c0,-0.0730197 0.0274606,-0.139957 0.0717008,-0.188961 0.0469961,-0.0520591 0.112591,-0.084374 0.185429,-0.084374zm0.945709 0.213339l-0.945709 0c-0.00991732,0 -0.0195591,0.00518898 -0.0270984,0.0135394 -0.0102992,0.0114055 -0.0166929,0.027815 -0.0166929,0.0464567l0 1.72219c0,0.0186417 0.00639764,0.0350472 0.0166929,0.0464528 0.00753937,0.00835433 0.017185,0.0135433 0.0270984,0.0135433l0.945709 0c0.00990945,0 0.0195551,-0.00518898 0.0270945,-0.0135433 0.0102992,-0.0114055 0.0166969,-0.027815 0.0166969,-0.0464528l0 -1.72219c0,-0.0186417 -0.0063937,-0.0350512 -0.0166929,-0.0464567 -0.00753937,-0.00835039 -0.017185,-0.0135394 -0.0270984,-0.0135394z"/>
  <circle class="fil3" cx="4.88998" cy="5.46782" r="0.106665"/>
  <polygon class="fil1" points="4.33996,5.11448 5.46193,5.11448 5.46193,5.28115 4.33996,5.28115 "/>
 </g>
</svg>
