<?xml version="1.0" encoding="UTF-8"?>
<!DOCTYPE svg PUBLIC "-//W3C//DTD SVG 1.1//EN" "http://www.w3.org/Graphics/SVG/1.1/DTD/svg11.dtd">
<!-- Creator: CorelDRAW -->
<svg xmlns="http://www.w3.org/2000/svg" xml:space="preserve" width="6.82666in" height="6.82666in" style="shape-rendering:geometricPrecision; text-rendering:geometricPrecision; image-rendering:optimizeQuality; fill-rule:evenodd; clip-rule:evenodd"
viewBox="0 0 6.82666 6.82666"
 xmlns:xlink="http://www.w3.org/1999/xlink">
 <defs>
  <style type="text/css">
   <![CDATA[
    .fil2 {fill:none}
    .fil0 {fill:#424242}
    .fil3 {fill:#FFFFFE}
    .fil1 {fill:#FFFFFE;fill-rule:nonzero}
   ]]>
  </style>
 </defs>
 <rect class="fil0" width="6.82666" height="6.82666"/>
 <g id="Layer_x0020_1">
  <metadata id="CorelCorpID_0Corel-Layer"/>
  <path class="fil1" d="M2.61332 0.853331l0 1.6 -0.32 0 0 -1.6 0.32 0zm0 2.56l0 2.56 -0.32 0 0 -2.56 0.32 0z"/>
  <path class="fil1" d="M3.57333 0.853331l0 2.77333 -0.32 0 0 -2.77333 0.32 0zm0 3.73333l0 1.38667 -0.32 0 0 -1.38667 0.32 0z"/>
  <path class="fil1" d="M4.53334 0.853331l0 3.97628 -0.32 0 0 -3.97628 0.32 0zm0 4.93627l0 0.183728 -0.32 0 0 -0.183728 0.32 0z"/>
  <g id="_286378424">
   <rect id="_286378592" class="fil2" width="6.82666" height="6.82666"/>
   <rect id="_286378520" class="fil2" x="0.853331" y="0.853331" width="5.12" height="5.12"/>
  </g>
  <path class="fil1" d="M1.65331 0.853331l0 2.98667 -0.32 0 0 -2.98667 0.32 0zm0 3.94666l0 1.17334 -0.32 0 0 -1.17334 0.32 0z"/>
  <path class="fil3" d="M1.17329 3.94666l0.640043 0 0 0.237055 -0.640043 0 0 -0.237055zm0.640043 0.343724l0 0.402941 -0.640043 0 0 -0.402941 0.640043 0z"/>
  <path class="fil3" d="M2.1333 2.56l0.640043 0 0 0.237055 -0.640043 0 0 -0.237055zm0.640043 0.343724l0 0.402941 -0.640043 0 0 -0.402941 0.640043 0z"/>
  <path class="fil3" d="M3.09331 3.73333l0.640043 0 0 0.237055 -0.640043 0 0 -0.237055zm0.640043 0.343724l0 0.402941 -0.640043 0 0 -0.402941 0.640043 0z"/>
  <path class="fil3" d="M4.04477 4.93627l0.640043 0 0 0.237055 -0.640043 0 0 -0.237055zm0.640043 0.343724l0 0.402941 -0.640043 0 0 -0.402941 0.640043 0z"/>
  <g id="_286377680">
   <path id="_286377872" class="fil1" d="M5.49335 5.97333l0 -2.98667 -0.32 0 0 2.98667 0.32 0zm0 -3.94666l0 -1.17334 -0.32 0 0 1.17334 0.32 0z"/>
   <path id="_286377704" class="fil3" d="M5.01332 2.13334l0.640043 0 0 0.237055 -0.640043 0 0 -0.237055zm0.640043 0.343724l0 0.402941 -0.640043 0 0 -0.402941 0.640043 0z"/>
  </g>
 </g>
</svg>
