<?xml version="1.0" encoding="UTF-8"?>
<!DOCTYPE svg PUBLIC "-//W3C//DTD SVG 1.1//EN" "http://www.w3.org/Graphics/SVG/1.1/DTD/svg11.dtd">
<!-- Creator: CorelDRAW -->
<svg xmlns="http://www.w3.org/2000/svg" xml:space="preserve" width="6.82666in" height="6.82666in" style="shape-rendering:geometricPrecision; text-rendering:geometricPrecision; image-rendering:optimizeQuality; fill-rule:evenodd; clip-rule:evenodd"
viewBox="0 0 6.82666 6.82666"
 xmlns:xlink="http://www.w3.org/1999/xlink">
 <defs>
  <style type="text/css">
   <![CDATA[
    .fil1 {fill:none}
    .fil0 {fill:#424242}
    .fil2 {fill:#FFFFFE}
   ]]>
  </style>
 </defs>
 <rect class="fil0" width="6.82666" height="6.82666"/>
 <g id="Layer_x0020_1">
  <metadata id="CorelCorpID_0Corel-Layer"/>
  <g id="_286379672">
   <rect id="_286380344" class="fil1" width="6.82666" height="6.82666"/>
   <rect id="_286380224" class="fil1" x="0.853331" y="0.853331" width="5.12" height="5.12"/>
  </g>
  <path class="fil2" d="M3.41333 3.41333l-2.45056 -0.116697c0.0245118,-0.514693 0.210457,-1.0086 0.531457,-1.41167l1.9191 1.52836z"/>
  <path class="fil2" d="M3.41333 3.41333l-1.00676 2.23725c-0.469421,-0.211236 -0.860508,-0.564783 -1.11789,-1.01058 -0.159181,-0.275705 -0.263177,-0.579756 -0.306189,-0.895193l2.43084 -0.331472z"/>
  <path class="fil2" d="M3.44143 3.41331l-1.73477 -1.73477c0.151602,-0.151606 0.322421,-0.282681 0.508098,-0.389882 1.17341,-0.677469 2.67385,-0.275429 3.35132,0.89798 0.677469,1.17341 0.275429,2.67385 -0.89798,3.35132 -0.563496,0.325335 -1.23315,0.413496 -1.86164,0.245094l0.634972 -2.36974zm0.443382 -0.420488c0,-0.107776 0.0235157,-0.187567 0.0708307,-0.239642 0.047311,-0.0517953 0.111425,-0.0778268 0.192331,-0.0778268 0.0837087,0 0.14922,0.025752 0.196535,0.0775472 0.047311,0.0515118 0.0708307,0.131583 0.0708307,0.239921 0,0.107512 -0.0235197,0.187579 -0.0708307,0.23937 -0.047315,0.0520709 -0.111429,0.0778307 -0.192339,0.0778307 -0.0837047,0 -0.149217,-0.0257598 -0.196528,-0.0772677 -0.047315,-0.0517953 -0.0708307,-0.131862 -0.0708307,-0.239933zm0.179457 -0.00167323c0,0.0781102 0.00923622,0.130744 0.0271575,0.157339 0.0137126,0.019874 0.0324724,0.0296732 0.0565472,0.0296732 0.0246339,0 0.0436772,-0.00979921 0.0573898,-0.0296732 0.0176417,-0.0265945 0.0263189,-0.0792283 0.0263189,-0.157339 0,-0.0783937 -0.00867717,-0.130465 -0.0263189,-0.15678 -0.0137126,-0.0201535 -0.0327559,-0.0302362 -0.0573898,-0.0302362 -0.0240748,0 -0.0428346,0.00979921 -0.0565472,0.0293976 -0.0179213,0.0268701 -0.0271575,0.0792244 -0.0271575,0.157618zm0.25924 0.952992l-0.170496 0 0.640551 -1.26879 0.16574 0 -0.635795 1.26879zm0.372346 -0.315803c0,-0.107783 0.0237992,-0.187571 0.0711142,-0.23937 0.047315,-0.0520709 0.111984,-0.0781024 0.194012,-0.0781024 0.082311,0 0.147264,0.0260315 0.194575,0.0781024 0.047311,0.0517992 0.0711063,0.131587 0.0711063,0.23937 0,0.10835 -0.0237953,0.188417 -0.0711063,0.240488 -0.047311,0.0517913 -0.111425,0.0778307 -0.192335,0.0778307 -0.0837047,0 -0.148937,-0.0260394 -0.196252,-0.0778307 -0.047315,-0.0520709 -0.0711142,-0.132138 -0.0711142,-0.240488zm0.179736 -0.000838583c0,0.0781102 0.00896457,0.130461 0.026878,0.15678 0.0137205,0.0201575 0.0327559,0.0302362 0.0568346,0.0302362 0.0246378,0 0.0433898,-0.00979921 0.0565512,-0.0294016 0.0179173,-0.026874 0.026874,-0.0795039 0.026874,-0.157614 0,-0.0781102 -0.00867323,-0.130744 -0.0260315,-0.157339 -0.0137244,-0.019874 -0.0327559,-0.0296732 -0.0573937,-0.0296732 -0.0246378,0 -0.0436772,0.00979921 -0.0568346,0.0296732 -0.0179134,0.0265945 -0.026878,0.0792283 -0.026878,0.157339z"/>
 </g>
</svg>
