<?xml version="1.0" encoding="UTF-8"?>
<!DOCTYPE svg PUBLIC "-//W3C//DTD SVG 1.1//EN" "http://www.w3.org/Graphics/SVG/1.1/DTD/svg11.dtd">
<!-- Creator: CorelDRAW -->
<svg xmlns="http://www.w3.org/2000/svg" xml:space="preserve" width="6.82666in" height="6.82666in" style="shape-rendering:geometricPrecision; text-rendering:geometricPrecision; image-rendering:optimizeQuality; fill-rule:evenodd; clip-rule:evenodd"
viewBox="0 0 6.82666 6.82666"
 xmlns:xlink="http://www.w3.org/1999/xlink">
 <defs>
  <style type="text/css">
   <![CDATA[
    .fil1 {fill:none}
    .fil0 {fill:#424242}
    .fil2 {fill:#FFFFFE}
    .fil3 {fill:#FFFFFE;fill-rule:nonzero}
   ]]>
  </style>
 </defs>
 <rect class="fil0" width="6.82666" height="6.82666"/>
 <g id="Layer_x0020_1">
  <metadata id="CorelCorpID_0Corel-Layer"/>
  <g id="_286381472">
   <rect id="_286381280" class="fil1" width="6.82666" height="6.82666"/>
   <rect id="_286381184" class="fil1" x="0.853331" y="0.853331" width="5.12" height="5.12"/>
  </g>
  <path class="fil2" d="M3.78866 3.1585l-0.0141378 0.0349646c0.0254449,0.561862 1.42406,0.502957 1.53444,1.27162l0.0109331 0.0761417 -3.81314 0 0.010937 -0.0761417c0.110402,-0.768661 1.50902,-0.70976 1.53445,-1.27161l-0.0141378 -0.0349646c-0.0494724,-0.0511102 -0.0975945,-0.115063 -0.136276,-0.172819 -0.0912677,-0.13628 -0.161827,-0.291331 -0.188449,-0.453929l-0.00242126 -0.0147756 -0.014622 0c-0.035685,0 -0.0643701,-0.0216142 -0.0864409,-0.0475984 -0.0267756,-0.0315276 -0.0455866,-0.0713661 -0.0581732,-0.110543 -0.014374,-0.0447362 -0.0217283,-0.0926772 -0.0217283,-0.139669 0,-0.0731929 0.0184409,-0.154618 0.0766496,-0.204051l0.00652756 -0.00554331 -0.000385827 -0.00825197c-0.000862205,-0.0185354 -0.00314961,-0.0373898 -0.00513386,-0.0558465 -0.00873228,-0.0812323 -0.0152362,-0.160933 -0.0152362,-0.242783 0,-0.527354 0.277598,-0.828906 0.821008,-0.828906 0.543406,0 0.821024,0.301543 0.821024,0.828902 0,0.0818583 -0.00650394,0.161567 -0.0152362,0.242807 -0.00198425,0.0184528 -0.00427559,0.0373071 -0.00514567,0.0558425l-0.00038189 0.00823228 0.00652362 0.00554331c0.0582165,0.0494291 0.0766535,0.130862 0.0766535,0.204059 0,0.0469961 -0.00735039,0.094937 -0.0217283,0.139677 -0.0125866,0.0391693 -0.0313976,0.0790079 -0.0581693,0.110535 -0.0220669,0.0259843 -0.050752,0.0475945 -0.0864331,0.0475945l-0.014622 0 -0.00241732 0.0147717c-0.0266772,0.16298 -0.0975039,0.318386 -0.189098,0.454906 -0.038563,0.0574724 -0.0864016,0.120961 -0.135638,0.171843z"/>
  <path class="fil2" d="M5.29448 2.93323l-0.00145669 0.00381102c0.020878,0.220732 0.620071,0.208307 0.670417,0.578957l0.00989764 0.0729055 -1.74758 0 0.00990157 -0.0729055c0.0503543,-0.37065 0.649555,-0.358228 0.670421,-0.578957l-0.00148031 -0.00386614c-0.0994646,-0.111358 -0.162906,-0.279996 -0.191157,-0.4235 -0.0366063,-0.185957 -0.0339843,-0.431886 0.107894,-0.576173 0.0748504,-0.076122 0.173047,-0.107394 0.278213,-0.107394 0.104705,0 0.202445,0.031126 0.277138,0.106705 0.229894,0.232594 0.120457,0.77398 -0.0822047,1.00042z"/>
  <path class="fil2" d="M1.9058 2.93323l-0.00145669 0.00381102c0.020878,0.220732 0.620071,0.208307 0.670417,0.578957l0.00989764 0.0729055 -1.74758 0 0.00990157 -0.0729055c0.0503543,-0.37065 0.649555,-0.358228 0.670421,-0.578957l-0.00148031 -0.00386614c-0.0994646,-0.111358 -0.162906,-0.279996 -0.191157,-0.4235 -0.0366063,-0.185957 -0.0339843,-0.431886 0.107894,-0.576173 0.0748504,-0.076122 0.173047,-0.107394 0.278213,-0.107394 0.104705,0 0.202445,0.031126 0.277138,0.106705 0.229894,0.232594 0.120457,0.77398 -0.0822047,1.00042z"/>
  <polygon class="fil3" points="1.82066,5.59999 5.97846,5.59999 5.97846,5.70666 1.82066,5.70666 "/>
  <polygon class="fil2" points="1.33437,5.00092 1.4292,5.26248 1.70667,5.27141 1.48721,5.44242 1.56446,5.70907 1.33401,5.5532 1.10428,5.70907 1.1813,5.44172 0.962079,5.27141 1.24013,5.26204 "/>
 </g>
</svg>
