<?xml version="1.0" encoding="UTF-8"?>
<!DOCTYPE svg PUBLIC "-//W3C//DTD SVG 1.1//EN" "http://www.w3.org/Graphics/SVG/1.1/DTD/svg11.dtd">
<!-- Creator: CorelDRAW -->
<svg xmlns="http://www.w3.org/2000/svg" xml:space="preserve" width="6.82666in" height="6.82666in" style="shape-rendering:geometricPrecision; text-rendering:geometricPrecision; image-rendering:optimizeQuality; fill-rule:evenodd; clip-rule:evenodd"
viewBox="0 0 6.82666 6.82666"
 xmlns:xlink="http://www.w3.org/1999/xlink">
 <defs>
  <style type="text/css">
   <![CDATA[
    .fil2 {fill:none}
    .fil0 {fill:#424242}
    .fil1 {fill:#FFFFFE}
   ]]>
  </style>
 </defs>
 <rect class="fil0" width="6.82666" height="6.82666"/>
 <g id="Layer_x0020_1">
  <metadata id="CorelCorpID_0Corel-Layer"/>
  <path class="fil1" d="M2.46073 1.76l3.21333 0c0.0844409,0 0.161138,0.0344724 0.216665,0.09 0.0555276,0.0555354 0.09,0.132224 0.09,0.216665l0 2.69334c0,0.0844409 -0.0344724,0.16113 -0.09,0.216665 -0.0555354,0.0555276 -0.132224,0.09 -0.216665,0.09l-3.21333 0c-0.0844409,0 -0.16113,-0.0344724 -0.216665,-0.09 -0.0555276,-0.0555276 -0.09,-0.132224 -0.09,-0.216665l0 -2.69334c0,-0.0844409 0.0344724,-0.161138 0.09,-0.216665 0.0555276,-0.0555276 0.132224,-0.09 0.216665,-0.09zm2.2533 1.65333l-1.29327 0.746669 0 -1.49334 1.29327 0.746669zm-2.80142 -1.12l0 2.66667 -0.213339 0 0 -2.66667 0.213339 0zm-0.853327 1.14657l0 1.52009 -0.213339 0 0 -1.52009 0.213339 0zm0.426661 -0.399906l0 1.92 -0.213339 0 0 -1.92 0.213339 0z"/>
  <g id="_286382624">
   <rect id="_286382240" class="fil2" width="6.82666" height="6.82666"/>
   <rect id="_286382168" class="fil2" x="0.853331" y="0.853331" width="5.12" height="5.12"/>
  </g>
 </g>
</svg>
