<?xml version="1.0" encoding="UTF-8"?>
<!DOCTYPE svg PUBLIC "-//W3C//DTD SVG 1.1//EN" "http://www.w3.org/Graphics/SVG/1.1/DTD/svg11.dtd">
<!-- Creator: CorelDRAW -->
<svg xmlns="http://www.w3.org/2000/svg" xml:space="preserve" width="6.82666in" height="6.82666in" style="shape-rendering:geometricPrecision; text-rendering:geometricPrecision; image-rendering:optimizeQuality; fill-rule:evenodd; clip-rule:evenodd"
viewBox="0 0 6.82666 6.82666"
 xmlns:xlink="http://www.w3.org/1999/xlink">
 <defs>
  <style type="text/css">
   <![CDATA[
    .fil2 {fill:none}
    .fil0 {fill:#424242}
    .fil1 {fill:#FFFFFE;fill-rule:nonzero}
   ]]>
  </style>
 </defs>
 <rect class="fil0" width="6.82666" height="6.82666"/>
 <g id="Layer_x0020_1">
  <metadata id="CorelCorpID_0Corel-Layer"/>
  <path class="fil1" d="M3.98528 4.22674c0.0376299,0.220331 0.365256,0.354571 0.725055,0.501941 0.54615,0.223697 1.15633,0.47363 1.15633,1.14285l0 0.106669 -0.106669 0 -4.80001 0c0,-0.785559 0.511102,-0.985232 1.15634,-1.24952 0.359803,-0.14737 0.687429,-0.28161 0.725047,-0.501937 -0.266756,-0.281583 -0.466535,-0.697988 -0.559063,-1.12861 -0.0704921,-0.328098 -0.0793858,-0.666358 -0.0090315,-0.961882 0.0728386,-0.305941 0.230114,-0.567217 0.490898,-0.728898 0.172118,-0.106709 0.386902,-0.168256 0.649146,-0.168256 0.262256,0 0.477039,0.0615512 0.649161,0.168264 0.260783,0.161685 0.418059,0.422957 0.490898,0.728909 0.0698189,0.293264 0.0615748,0.628622 -0.00744488,0.954362 -0.0461457,0.155106 -0.141925,0.27598 -0.283591,0.364012 -0.192264,0.119472 -0.461362,0.170874 -0.686177,0.157382 -0.0950827,-0.00570866 -0.177598,0.0676457 -0.183181,0.16272 -0.00557874,0.0949803 0.0676299,0.177335 0.162587,0.183035 0.238583,0.0143228 0.507232,-0.0284252 0.734717,-0.127933 -0.0778071,0.13974 -0.176437,0.272646 -0.305012,0.396898z"/>
  <g id="_286384472">
   <rect id="_286384928" class="fil2" width="6.82666" height="6.82666"/>
   <rect id="_286384856" class="fil2" x="0.853331" y="0.853331" width="5.12" height="5.12"/>
  </g>
  <path class="fil1" d="M2.13714 2.48561c0,-0.0589094 -0.0477598,-0.106669 -0.106669,-0.106669 -0.0589094,0 -0.180894,0.0477598 -0.180894,0.106669l0 0.620173c0,0.0589094 0.121984,0.106669 0.180894,0.106669 0.0589094,0 0.106669,-0.0477598 0.106669,-0.106669l0 -0.620173z"/>
  <path class="fil1" d="M3.56978 3.7185c-0.0366732,-0.00215354 -0.0681575,0.0258268 -0.070311,0.0625 -0.00215354,0.0366732 0.0258268,0.0681575 0.0625,0.070311 0.215067,0.0131929 0.555571,-0.0243858 0.826992,-0.193043 0.193728,-0.120382 0.352417,-0.306039 0.408173,-0.584823 0.00718898,-0.0360984 -0.016248,-0.0711969 -0.0523465,-0.0783858 -0.0360984,-0.00718898 -0.0711969,0.016248 -0.0783858,0.0523465 -0.0474331,0.237165 -0.18265,0.39524 -0.347756,0.497839 -0.244051,0.15165 -0.553079,0.185264 -0.748866,0.173256z"/>
  <path class="fil1" d="M1.96381 2.81895l0 -0.733059c0,-0.318354 0.139,-0.607669 0.362937,-0.817327 0.222772,-0.208575 0.529555,-0.338035 0.866551,-0.338035l0.403118 0c0.336996,0 0.64378,0.129461 0.866551,0.338035 0.223933,0.209661 0.362937,0.498976 0.362937,0.817327l0 0.733059 -0.133339 0 0 -0.733059c0,-0.280429 -0.122642,-0.535469 -0.32022,-0.720453 -0.19874,-0.186075 -0.473382,-0.301571 -0.775929,-0.301571l-0.403118 0c-0.302547,0 -0.577189,0.115496 -0.775929,0.301571 -0.197583,0.18498 -0.32022,0.44002 -0.32022,0.720453l0 0.733059 -0.133339 0z"/>
  <path class="fil1" d="M4.65257 2.48561c0,-0.0589094 0.0477598,-0.106669 0.106669,-0.106669 0.0589094,0 0.180894,0.0477598 0.180894,0.106669l0 0.620173c0,0.0589094 -0.121984,0.106669 -0.180894,0.106669 -0.0589094,0 -0.106669,-0.0477598 -0.106669,-0.106669l0 -0.620173z"/>
 </g>
</svg>
