<?xml version="1.0" encoding="UTF-8"?>
<!DOCTYPE svg PUBLIC "-//W3C//DTD SVG 1.1//EN" "http://www.w3.org/Graphics/SVG/1.1/DTD/svg11.dtd">
<!-- Creator: CorelDRAW -->
<svg xmlns="http://www.w3.org/2000/svg" xml:space="preserve" width="6.82666in" height="6.82666in" style="shape-rendering:geometricPrecision; text-rendering:geometricPrecision; image-rendering:optimizeQuality; fill-rule:evenodd; clip-rule:evenodd"
viewBox="0 0 6.82666 6.82666"
 xmlns:xlink="http://www.w3.org/1999/xlink">
 <defs>
  <style type="text/css">
   <![CDATA[
    .fil1 {fill:none}
    .fil0 {fill:#424242}
    .fil2 {fill:#FFFFFE}
    .fil3 {fill:#FFFFFE;fill-rule:nonzero}
   ]]>
  </style>
 </defs>
 <rect class="fil0" width="6.82666" height="6.82666"/>
 <g id="Layer_x0020_1">
  <metadata id="CorelCorpID_0Corel-Layer"/>
  <g id="_286386368">
   <rect id="_286387088" class="fil1" width="6.82666" height="6.82666"/>
   <rect id="_286386080" class="fil1" x="0.853331" y="0.853331" width="5.12" height="5.12"/>
  </g>
  <path class="fil2" d="M3.82296 3.98883l-0.00782677 0.0179409c0.0386614,0.475154 1.4204,0.436854 1.53357,1.16734l0.0174961 0.112929 -3.90545 0 0.0174961 -0.112933c0.113185,-0.730484 1.49492,-0.692189 1.53357,-1.16733l-0.00787795 -0.0180551c-0.218346,-0.211913 -0.362339,-0.535677 -0.429417,-0.816606 -0.0855394,-0.358236 -0.088122,-0.825843 0.191807,-1.11596 0.168224,-0.174354 0.399795,-0.242831 0.647142,-0.242831 0.249858,0 0.483921,0.0692165 0.653039,0.246181 0.277854,0.290752 0.27415,0.756728 0.187787,1.1142 -0.0677874,0.280594 -0.21261,0.603799 -0.431335,0.815122z"/>
  <path class="fil1" d="M2.37786 2.71394c0,-0.589102 0.463657,-1.06667 1.0356,-1.06667 0.571945,0 1.0356,0.477563 1.0356,1.06667"/>
  <path class="fil3" d="M2.32452 2.71394c0,-0.308827 0.121728,-0.588622 0.318531,-0.791327 0.19715,-0.203071 0.469535,-0.328673 0.770406,-0.328673 0.30087,0 0.573256,0.125602 0.770406,0.328673 0.196803,0.202705 0.318531,0.4825 0.318531,0.791327l-0.106669 0c0,-0.280272 -0.110106,-0.533815 -0.288114,-0.717161 -0.177654,-0.182984 -0.423079,-0.296169 -0.694154,-0.296169 -0.271075,0 -0.5165,0.113185 -0.694154,0.296169 -0.178008,0.183346 -0.288114,0.43689 -0.288114,0.717161l-0.106669 0z"/>
  <ellipse class="fil2" cx="2.38753" cy="2.82531" rx="0.127091" ry="0.299996"/>
  <ellipse class="fil2" cx="4.43914" cy="2.82531" rx="0.127091" ry="0.299996"/>
  <path class="fil2" d="M5.27357 3.6687l-0.0036063 0.00826378c0.0178071,0.218858 0.65424,0.201217 0.706362,0.537681l0.00805906 0.0520157 -1.79885 0 0.00805906 -0.0520197c0.0521339,-0.336461 0.688563,-0.318823 0.706366,-0.537673l-0.00362992 -0.0083189c-0.100571,-0.0976063 -0.166894,-0.246732 -0.197791,-0.37613 -0.0393976,-0.165004 -0.0405866,-0.380382 0.0883465,-0.514012 0.0774882,-0.0803071 0.18415,-0.111846 0.298075,-0.111846 0.115087,0 0.222894,0.0318819 0.300791,0.11339 0.12798,0.133921 0.126276,0.348551 0.0864961,0.513205 -0.0312244,0.129244 -0.0979291,0.27811 -0.198673,0.375445z"/>
  <path class="fil2" d="M1.95585 3.6687l-0.0036063 0.00826378c0.0178071,0.218858 0.65424,0.201217 0.706362,0.537681l0.00805906 0.0520157 -1.79885 0 0.00805906 -0.0520197c0.0521339,-0.336461 0.688563,-0.318823 0.706366,-0.537673l-0.00362992 -0.0083189c-0.100571,-0.0976063 -0.166894,-0.246732 -0.197791,-0.37613 -0.0393976,-0.165004 -0.0405866,-0.380382 0.0883465,-0.514012 0.0774882,-0.0803071 0.18415,-0.111846 0.298075,-0.111846 0.115087,0 0.222894,0.0318819 0.300791,0.11339 0.12798,0.133921 0.126276,0.348551 0.0864961,0.513205 -0.0312244,0.129244 -0.0979291,0.27811 -0.198673,0.375445z"/>
 </g>
</svg>
