<?xml version="1.0" encoding="UTF-8"?>
<!DOCTYPE svg PUBLIC "-//W3C//DTD SVG 1.1//EN" "http://www.w3.org/Graphics/SVG/1.1/DTD/svg11.dtd">
<!-- Creator: CorelDRAW -->
<svg xmlns="http://www.w3.org/2000/svg" xml:space="preserve" width="6.82666in" height="6.82666in" style="shape-rendering:geometricPrecision; text-rendering:geometricPrecision; image-rendering:optimizeQuality; fill-rule:evenodd; clip-rule:evenodd"
viewBox="0 0 6.82666 6.82666"
 xmlns:xlink="http://www.w3.org/1999/xlink">
 <defs>
  <style type="text/css">
   <![CDATA[
    .fil1 {fill:none}
    .fil0 {fill:#424242}
    .fil2 {fill:#FFFFFE}
   ]]>
  </style>
 </defs>
 <rect class="fil0" width="6.82666" height="6.82666"/>
 <g id="Layer_x0020_1">
  <metadata id="CorelCorpID_0Corel-Layer"/>
  <g id="_286387352">
   <rect id="_286387376" class="fil1" width="6.82666" height="6.82666"/>
   <rect id="_286387784" class="fil1" x="0.853331" y="0.853331" width="5.12" height="5.12"/>
  </g>
  <path class="fil2" d="M1.06 0.959996l4.7 0c0.055,0 0.0999961,0.0450039 0.0999961,0.0999961l0 2.68001c0,0.0549921 -0.0450039,0.0999961 -0.0999961,0.0999961l-0.426736 0c-0.0642756,-0.312646 -0.296614,-0.493331 -0.659047,-0.493331 -0.362429,0 -0.594764,0.180689 -0.659039,0.493331l-1.17393 0c-0.0642756,-0.312646 -0.296614,-0.493331 -0.659047,-0.493331 -0.362429,0 -0.594764,0.180689 -0.659039,0.493331l-0.463169 0c-0.0549921,0 -0.0999961,-0.0449961 -0.0999961,-0.0999961l0 -2.68001c0,-0.055 0.0449961,-0.0999961 0.0999961,-0.0999961zm0.86048 1.46887l0.930209 -0.648173c-0.00143701,-0.0115472 -0.00218504,-0.023311 -0.00218504,-0.035248 0,-0.155976 0.126441,-0.282417 0.282417,-0.282417 0.155976,0 0.282417,0.126441 0.282417,0.282417 0,0.0564016 -0.0165394,0.108929 -0.0450236,0.153028l0.377965 0.456161c0.0244567,-0.00690551 0.0502559,-0.0106063 0.0769213,-0.0106063 0.0304252,0 0.0597205,0.00483071 0.0871811,0.0137362l0.827169 -0.767697c-0.00648425,-0.023752 -0.00996457,-0.0487441 -0.00996457,-0.0745512 0,-0.155976 0.126441,-0.282417 0.282417,-0.282417 0.155976,0 0.282417,0.126441 0.282417,0.282417 0,0.155976 -0.126441,0.282417 -0.282417,0.282417 -0.0518465,0 -0.100425,-0.0139843 -0.142181,-0.0383661l-0.79389 0.736811c0.0202362,0.0389291 0.031685,0.0831575 0.031685,0.130067 0,0.155976 -0.126441,0.282417 -0.282417,0.282417 -0.155976,0 -0.282417,-0.126441 -0.282417,-0.282417 0,-0.0512087 0.0136299,-0.0992362 0.0374606,-0.140646l-0.385138 -0.464823c-0.0200079,0.00449606 -0.0408189,0.00688583 -0.062185,0.00688583 -0.0660866,0 -0.126866,-0.0227087 -0.174976,-0.0607323l-0.884008 0.61598c0.0131969,0.0326654 0.0204843,0.0683465 0.0204843,0.10574 0,0.155976 -0.126441,0.282417 -0.282417,0.282417 -0.155976,0 -0.282417,-0.126441 -0.282417,-0.282417 0,-0.155976 0.126441,-0.282417 0.282417,-0.282417 0.0392047,0 0.0765433,0.00799213 0.110476,0.0224331z"/>
  <path class="fil2" d="M2.45262 5.01324c-0.00605906,0.0193543 -0.00755906,0.0389488 -0.00257087,0.0593189 0.0326024,0.133122 0.309075,0.237161 0.422807,0.283744 0.239972,0.0982953 0.555524,0.222484 0.597528,0.51498l0.0109331 0.0761417 -2.59824 0 0.010937 -0.0761417c0.0420079,-0.292496 0.357559,-0.416685 0.597535,-0.51498 0.082189,-0.0336614 0.163307,-0.0655079 0.241201,-0.108874 0.0629685,-0.0350551 0.163205,-0.0997362 0.181602,-0.17487 0.00499213,-0.0203937 0.00348425,-0.0400118 -0.00259449,-0.0593898 -0.13622,-0.139236 -0.235378,-0.288496 -0.27578,-0.482307 -0.0337008,-0.161673 -0.0243465,-0.33711 -0.0243465,-0.501697 0,-0.3645 0.195244,-0.575839 0.570567,-0.575839 0.375323,0 0.570571,0.211331 0.570571,0.575835 0,0.164827 0.0094252,0.340394 -0.024311,0.502307 -0.040374,0.193748 -0.139346,0.342878 -0.275839,0.481772z"/>
  <path class="fil2" d="M4.94464 5.01324c-0.00605906,0.0193543 -0.00755906,0.0389488 -0.00257087,0.0593189 0.0326024,0.133122 0.309075,0.237161 0.422807,0.283744 0.239972,0.0982953 0.555524,0.222484 0.597528,0.51498l0.0109331 0.0761417 -2.59824 0 0.010937 -0.0761417c0.0420079,-0.292496 0.357559,-0.416685 0.597535,-0.51498 0.082189,-0.0336614 0.163307,-0.0655079 0.241201,-0.108874 0.0629685,-0.0350551 0.163205,-0.0997362 0.181602,-0.17487 0.00499213,-0.0203937 0.00348425,-0.0400118 -0.00259449,-0.0593898 -0.13622,-0.139236 -0.235378,-0.288496 -0.27578,-0.482307 -0.0337008,-0.161673 -0.0243465,-0.33711 -0.0243465,-0.501697 0,-0.3645 0.195244,-0.575839 0.570567,-0.575839 0.375323,0 0.570571,0.211331 0.570571,0.575835 0,0.164827 0.0094252,0.340394 -0.024311,0.502307 -0.040374,0.193748 -0.139346,0.342878 -0.275839,0.481772z"/>
  <path class="fil2" d="M2.45262 5.01324c-0.00605906,0.0193543 -0.00755906,0.0389488 -0.00257087,0.0593189 0.0326024,0.133122 0.309075,0.237161 0.422807,0.283744 0.239972,0.0982953 0.555524,0.222484 0.597528,0.51498l0.0109331 0.0761417 -2.59824 0 0.010937 -0.0761417c0.0420079,-0.292496 0.357559,-0.416685 0.597535,-0.51498 0.082189,-0.0336614 0.163307,-0.0655079 0.241201,-0.108874 0.0629685,-0.0350551 0.163205,-0.0997362 0.181602,-0.17487 0.00499213,-0.0203937 0.00348425,-0.0400118 -0.00259449,-0.0593898 -0.13622,-0.139236 -0.235378,-0.288496 -0.27578,-0.482307 -0.0337008,-0.161673 -0.0243465,-0.33711 -0.0243465,-0.501697 0,-0.3645 0.195244,-0.575839 0.570567,-0.575839 0.375323,0 0.570571,0.211331 0.570571,0.575835 0,0.164827 0.0094252,0.340394 -0.024311,0.502307 -0.040374,0.193748 -0.139346,0.342878 -0.275839,0.481772z"/>
 </g>
</svg>
