<?xml version="1.0" encoding="UTF-8"?>
<!DOCTYPE svg PUBLIC "-//W3C//DTD SVG 1.1//EN" "http://www.w3.org/Graphics/SVG/1.1/DTD/svg11.dtd">
<!-- Creator: CorelDRAW -->
<svg xmlns="http://www.w3.org/2000/svg" xml:space="preserve" width="6.82666in" height="6.82666in" style="shape-rendering:geometricPrecision; text-rendering:geometricPrecision; image-rendering:optimizeQuality; fill-rule:evenodd; clip-rule:evenodd"
viewBox="0 0 6.82666 6.82666"
 xmlns:xlink="http://www.w3.org/1999/xlink">
 <defs>
  <style type="text/css">
   <![CDATA[
    .fil1 {fill:none}
    .fil0 {fill:#424242}
    .fil2 {fill:#FFFFFE}
   ]]>
  </style>
 </defs>
 <rect class="fil0" width="6.82666" height="6.82666"/>
 <g id="Layer_x0020_1">
  <metadata id="CorelCorpID_0Corel-Layer"/>
  <g id="_286388216">
   <rect id="_286388744" class="fil1" width="6.82666" height="6.82666"/>
   <rect id="_286388288" class="fil1" x="0.853331" y="0.853331" width="5.12" height="5.12"/>
  </g>
  <path class="fil2" d="M1.74144 0.853331l3.45044 0 0 5.12 -3.45044 0 0 -5.12zm0.818555 4.30667l1.81333 0 0 0.24 -1.81333 0 0 -0.24zm0 -0.640008l1.81333 0 0 0.24 -1.81333 0 0 -0.24zm0 -0.640008l1.81333 0 0 0.24 -1.81333 0 0 -0.24zm1.81334 -2.01333l0 1.49333 -0.213339 0 0 -1.49333 0.213339 0zm-1.60002 0.639992l0 0.213339 -0.213339 0 0 -0.213339 0.213339 0zm0 0.426677l0 0.426665 -0.213339 0 0 -0.426665 0.213339 0zm0.533343 -0.746677l0 0.213339 -0.213339 0 0 -0.213339 0.213339 0zm0 0.426677l0 0.746665 -0.213339 0 0 -0.746665 0.213339 0zm0.533346 -0.746669l0 0.213339 -0.213339 0 0 -0.213339 0.213339 0zm0 0.426669l0 1.06667 -0.213339 0 0 -1.06667 0.213339 0zm0.533319 -0.853339l0 0.213339 -0.213339 0 0 -0.213339 0.213339 0z"/>
 </g>
</svg>
