<?xml version="1.0" encoding="UTF-8"?>
<!DOCTYPE svg PUBLIC "-//W3C//DTD SVG 1.1//EN" "http://www.w3.org/Graphics/SVG/1.1/DTD/svg11.dtd">
<!-- Creator: CorelDRAW -->
<svg xmlns="http://www.w3.org/2000/svg" xml:space="preserve" width="6.82666in" height="6.82666in" style="shape-rendering:geometricPrecision; text-rendering:geometricPrecision; image-rendering:optimizeQuality; fill-rule:evenodd; clip-rule:evenodd"
viewBox="0 0 6.82666 6.82666"
 xmlns:xlink="http://www.w3.org/1999/xlink">
 <defs>
  <style type="text/css">
   <![CDATA[
    .str0 {stroke:#373435;stroke-width:0.00694488}
    .fil3 {fill:none}
    .fil0 {fill:#424242}
    .fil1 {fill:#FFFFFE}
    .fil2 {fill:#FFFFFE;fill-rule:nonzero}
   ]]>
  </style>
 </defs>
 <rect class="fil0" width="6.82666" height="6.82666"/>
 <g id="Layer_x0020_1">
  <metadata id="CorelCorpID_0Corel-Layer"/>
  <polygon class="fil1 str0" points="1.15665,2.87999 1.0108,2.87999 1.0108,3.04925 1.0108,5.54666 3.41302,5.54666 3.41359,5.54666 5.81585,5.54666 5.81585,3.04925 5.81585,2.87999 5.67001,2.87999 3.41333,5.43555 "/>
  <path class="fil2" d="M5.89335 2.84624c0.0402677,-0.0427992 0.0382165,-0.11015 -0.00458268,-0.150417 -0.0427992,-0.0402677 -0.11015,-0.0382165 -0.150417,0.00458268l-2.32503 2.47743 -2.32502 -2.47743c-0.0402677,-0.0427992 -0.107618,-0.0448504 -0.150417,-0.00458268 -0.0427992,0.0402677 -0.0448504,0.107618 -0.00458268,0.150417l2.3973 2.55444c0.0029685,0.0036378 0.00620866,0.00712598 0.00972835,0.0104291 0.0429528,0.040311 0.110465,0.0381693 0.150776,-0.00478346l-0.000188976 -0.000177165 2.40244 -2.55991z"/>
  <g id="_396595584">
   <rect id="_396595440" class="fil3" width="6.82666" height="6.82666"/>
   <rect id="_396595416" class="fil3" x="0.853331" y="0.853331" width="5.12" height="5.12"/>
  </g>
  <polyline class="fil3" points="4.48,2.77332 5.81585,2.77332 5.81585,5.54666 1.0108,5.54666 1.0108,2.77332 2.34666,2.77332 "/>
  <polygon class="fil2" points="4.48,2.66665 5.81585,2.66665 5.92252,2.66665 5.92252,2.77332 5.92252,5.54666 5.92252,5.65333 5.81585,5.65333 1.0108,5.65333 0.904134,5.65333 0.904134,5.54666 0.904134,2.77332 0.904134,2.66665 1.0108,2.66665 2.34666,2.66665 2.34666,2.87999 1.11747,2.87999 1.11747,5.43999 5.70919,5.43999 5.70919,2.87999 4.48,2.87999 "/>
  <path class="fil2" d="M2.34666 0.853327l2.13334 0 0.106669 0 0 0.106669 0 3.09333 0 0.106669 -0.106669 0 -2.13334 0 -0.106669 0 0 -0.106669 0 -3.09333 0 -0.106669 0.106669 0zm2.02667 0.213339l-1.92 0 0 2.87999 1.92 0 0 -2.87999z"/>
  <polygon class="fil2" points="3.94667,1.6 3.94667,3.52 3.73333,3.52 3.73333,1.6 "/>
  <polygon class="fil2" points="3.52,2.02666 3.52,3.52 3.30666,3.52 3.30666,2.02666 "/>
  <polygon class="fil2" points="3.09333,2.34666 3.09333,3.52 2.88,3.52 2.88,2.34666 "/>
 </g>
</svg>
