<?xml version="1.0" encoding="UTF-8"?>
<!DOCTYPE svg PUBLIC "-//W3C//DTD SVG 1.1//EN" "http://www.w3.org/Graphics/SVG/1.1/DTD/svg11.dtd">
<!-- Creator: CorelDRAW -->
<svg xmlns="http://www.w3.org/2000/svg" xml:space="preserve" width="6.82666in" height="6.82666in" style="shape-rendering:geometricPrecision; text-rendering:geometricPrecision; image-rendering:optimizeQuality; fill-rule:evenodd; clip-rule:evenodd"
viewBox="0 0 6.82666 6.82666"
 xmlns:xlink="http://www.w3.org/1999/xlink">
 <defs>
  <style type="text/css">
   <![CDATA[
    .fil1 {fill:none}
    .fil0 {fill:#424242}
    .fil2 {fill:#FFFFFE}
   ]]>
  </style>
 </defs>
 <rect class="fil0" width="6.82666" height="6.82666"/>
 <g id="Layer_x0020_1">
  <metadata id="CorelCorpID_0Corel-Layer"/>
  <g id="_396596352">
   <rect id="_396596064" class="fil1" width="6.82666" height="6.82666"/>
   <rect id="_396595824" class="fil1" x="0.853331" y="0.853331" width="5.12" height="5.12"/>
  </g>
  <path class="fil2" d="M0.922898 1.02029l4.98087 0c0.0382598,0 0.069563,0.0313031 0.069563,0.069563l0 0.586811 -5.12 0 0 -0.586811c0,-0.0382598 0.0313031,-0.069563 0.069563,-0.069563zm0.677098 3.40637l0.640004 0 0 0.640004 -0.640004 0 0 -0.640004zm0.986406 0.631453l0 -0.1005 0.1005 0 0 0.1005 -0.1005 0zm0.549146 0l-0.1005 0 0 -0.193917c0,-0.0410315 -0.00219685,-0.0675276 -0.0064685,-0.0796181 -0.00427559,-0.0119685 -0.0113583,-0.0213701 -0.0210039,-0.0280866 -0.00964961,-0.00659449 -0.021248,-0.0100118 -0.0348031,-0.0100118 -0.0174646,0 -0.0330945,0.00475984 -0.0468937,0.0142874 -0.0137992,0.00964567 -0.0233228,0.0222244 -0.0284528,0.0379764 -0.00512598,0.015752 -0.00769291,0.044815 -0.00769291,0.087311l0 0.172059 -0.1005 0 0 -0.379898 0.0932953 0 0 0.0558071c0.0332165,-0.0429843 0.0749803,-0.0644764 0.125291,-0.0644764 0.0221024,0 0.0424961,0.00402756 0.060811,0.0119685 0.0183189,0.00805906 0.0322402,0.0181929 0.0416417,0.0306496 0.00940157,0.0124567 0.0159961,0.0265 0.0196614,0.042252 0.00378346,0.015752 0.00561417,0.0382205 0.00561417,0.0675276l0 0.236169zm0.321894 -0.120894l0.100256 0.0167283c-0.0129449,0.0367598 -0.0332165,0.0647244 -0.0610591,0.0838937 -0.0277165,0.0192953 -0.0625197,0.0288189 -0.104283,0.0288189 -0.066063,0 -0.114909,-0.0214921 -0.146661,-0.0647205 -0.0250315,-0.0345591 -0.0376102,-0.0782756 -0.0376102,-0.130906 0,-0.0630118 0.0164882,-0.112346 0.0494567,-0.148004 0.0328504,-0.0356575 0.0744882,-0.0534843 0.124799,-0.0534843 0.0565394,0 0.101114,0.018685 0.133839,0.0560512 0.0326063,0.0373661 0.0482362,0.0945157 0.0468937,0.171571l-0.251921 0c0.000732283,0.0297953 0.00879134,0.0529961 0.0242992,0.0694803 0.0155079,0.0166102 0.0349252,0.0249134 0.0580039,0.0249134 0.015752,0 0.0289409,-0.00427559 0.039689,-0.0128228 0.0107441,-0.00866929 0.0189252,-0.0224685 0.0242992,-0.0415197zm0.00574016 -0.101598c-0.000732283,-0.029185 -0.0081811,-0.0512874 -0.0224685,-0.0664291 -0.0142874,-0.0151417 -0.031752,-0.0227126 -0.0522677,-0.0227126 -0.0219803,0 -0.0400512,0.00805906 -0.0543386,0.0240551 -0.0142874,0.015874 -0.0213701,0.0376102 -0.021126,0.0650866l0.150201 0zm0.355965 -0.157406l0 0.0801063 -0.0686299 0 0 0.153134c0,0.0310157 0.000610236,0.0490866 0.00195276,0.0542165 0.00134252,0.00512992 0.00427559,0.00927953 0.00891732,0.0127008 0.0046378,0.00329528 0.010378,0.00500787 0.0169724,0.00500787 0.00940157,0 0.0228346,-0.00329921 0.0405433,-0.00964961l0.00854724 0.0779094c-0.0234488,0.0100118 -0.0498228,0.0150197 -0.0794961,0.0150197 -0.0180748,0 -0.034437,-0.00305118 -0.0489685,-0.00903543 -0.0145315,-0.0061063 -0.0251575,-0.0140433 -0.0319961,-0.023689 -0.00683858,-0.00964961 -0.0114764,-0.0227165 -0.0141654,-0.0392008 -0.0020748,-0.0115984 -0.00317323,-0.0352913 -0.00317323,-0.0708268l0 -0.165587 -0.0461575 0 0 -0.0801063 0.0461575 0 0 -0.0755866 0.100866 -0.0586181 0 0.134205 0.0686299 0zm-1.26899 -1.10955l0 -0.1005 0.1005 0 0 0.1005 -0.1005 0zm0.534858 -0.267551l-0.0991535 0.0178268c-0.00329921,-0.0197835 -0.0108701,-0.0346811 -0.0227165,-0.0446929 -0.0118425,-0.0100118 -0.0271063,-0.0150197 -0.0459134,-0.0150197 -0.0251535,0 -0.0450591,0.00866929 -0.0599567,0.0258898 -0.0148976,0.0173386 -0.0223465,0.0462795 -0.0223465,0.0868228 0,0.0450591 0.00757087,0.0769291 0.0227126,0.0954921 0.0151417,0.0185591 0.0354134,0.0278425 0.0609331,0.0278425 0.0191732,0 0.0346811,-0.00537402 0.0468937,-0.0162402 0.0122126,-0.0108701 0.0207598,-0.0295551 0.0257638,-0.0559291l0.0987913 0.0167283c-0.0102559,0.0453031 -0.0300394,0.0796181 -0.0591024,0.102697 -0.029063,0.0232047 -0.0680197,0.0346811 -0.116984,0.0346811 -0.055563,0 -0.0998898,-0.0174606 -0.132862,-0.0525079 -0.0330906,-0.0350472 -0.0495787,-0.0836496 -0.0495787,-0.145681 0,-0.0626457 0.0166102,-0.111492 0.0497008,-0.146417 0.0332165,-0.0350472 0.0780315,-0.0525079 0.134571,-0.0525079 0.0462795,0 0.0830354,0.0100118 0.11039,0.0299173 0.0272323,0.0199055 0.0468937,0.050311 0.0588583,0.0910984zm0.052878 0.0721693c0,-0.0333386 0.00830315,-0.0656969 0.0246693,-0.0969606 0.0164843,-0.0311378 0.0398071,-0.0550709 0.0699685,-0.071437 0.0301614,-0.0164843 0.0638661,-0.0247874 0.10111,-0.0247874 0.0573937,0 0.104531,0.018685 0.141287,0.0560512 0.0367559,0.0373661 0.0550748,0.0845 0.0550748,0.141528 0,0.0573937 -0.018563,0.10502 -0.055563,0.142874 -0.037122,0.0378583 -0.0837717,0.0566614 -0.140067,0.0566614 -0.0349213,0 -0.0680157,-0.00781496 -0.0996417,-0.0235669 -0.0316299,-0.015752 -0.055685,-0.0388307 -0.0721693,-0.0692402 -0.0163661,-0.0304055 -0.0246693,-0.0674055 -0.0246693,-0.111122zm0.103063 0.00537402c0,0.0377323 0.00891732,0.0665512 0.0268661,0.0865787 0.0178307,0.0200236 0.0399331,0.0300394 0.066185,0.0300394 0.0262559,0 0.0482362,-0.0100157 0.0659449,-0.0300394 0.0178268,-0.0200276 0.0267402,-0.0490906 0.0267402,-0.087315 0,-0.037122 -0.00891339,-0.0658189 -0.0267402,-0.0858465 -0.0177087,-0.0200236 -0.039689,-0.0300394 -0.0659449,-0.0300394 -0.026252,0 -0.0483543,0.0100157 -0.066185,0.0300394 -0.0179488,0.0200276 -0.0268661,0.0489685 -0.0268661,0.0865827zm0.360236 -0.18989l0.092685 0 0 0.0517756c0.0330945,-0.0402953 0.0726575,-0.0604449 0.118453,-0.0604449 0.0242992,0 0.0454252,0.00500787 0.063252,0.0150197 0.0179528,0.0100118 0.0326063,0.0251535 0.0440866,0.0454252 0.0166063,-0.0202717 0.0346772,-0.0354134 0.0539724,-0.0454252 0.0192953,-0.0100118 0.0399331,-0.0150197 0.0619134,-0.0150197 0.0278425,0 0.0515315,0.00574016 0.0708268,0.0170945 0.0192913,0.0112362 0.0337008,0.0279646 0.0432283,0.0498228 0.00696063,0.0162402 0.010378,0.0424961 0.010378,0.0787638l0 0.242886 -0.1005 0 0 -0.217118c0,-0.0377323 -0.00341732,-0.0620354 -0.010378,-0.0730236 -0.00928346,-0.0142874 -0.0235709,-0.0214921 -0.0428622,-0.0214921 -0.0141654,0 -0.0273543,0.00427165 -0.039811,0.0129409 -0.0123346,0.00855118 -0.021248,0.021126 -0.0267441,0.0377362 -0.00549213,0.0166063 -0.00830315,0.0427402 -0.00830315,0.0785197l0 0.182437 -0.1005 0 0 -0.208205c0,-0.037 -0.00183071,-0.060811 -0.00537008,-0.0715591 -0.00354331,-0.0107441 -0.00916142,-0.018685 -0.0166102,-0.0239331 -0.00757087,-0.00525197 -0.0177047,-0.00793701 -0.0306496,-0.00793701 -0.0155079,0 -0.0294291,0.00414961 -0.0417638,0.0125748 -0.0124567,0.00830709 -0.0213701,0.0203937 -0.0267441,0.0361457 -0.00537008,0.0157559 -0.00805906,0.0417638 -0.00805906,0.0782756l0 0.184638 -0.1005 0 0 -0.379898zm-2.0012 -0.362106l0.640004 0 0 0.640004 -0.640004 0 0 -0.640004zm3.94667 -1.49333c0.0589094,0 0.106665,0.0477559 0.106665,0.106665 0,0.0589094 -0.0477559,0.106665 -0.106665,0.106665 -0.0589094,0 -0.106665,-0.0477559 -0.106665,-0.106665 0,-0.0589094 0.0477559,-0.106665 0.106665,-0.106665zm-0.319996 0c0.0589094,0 0.106665,0.0477559 0.106665,0.106665 0,0.0589094 -0.0477559,0.106665 -0.106665,0.106665 -0.0589094,0 -0.106665,-0.0477559 -0.106665,-0.106665 0,-0.0589094 0.0477559,-0.106665 0.106665,-0.106665zm0.746661 0.510004l0 3.89348c0,0.0382598 -0.0313031,0.069563 -0.069563,0.069563l-4.98087 0c-0.0382598,0 -0.069563,-0.0313031 -0.069563,-0.069563l0 -3.89348 5.12 0z"/>
 </g>
</svg>
