<?xml version="1.0" encoding="UTF-8"?>
<!DOCTYPE svg PUBLIC "-//W3C//DTD SVG 1.1//EN" "http://www.w3.org/Graphics/SVG/1.1/DTD/svg11.dtd">
<!-- Creator: CorelDRAW -->
<svg xmlns="http://www.w3.org/2000/svg" xml:space="preserve" width="6.82666in" height="6.82666in" style="shape-rendering:geometricPrecision; text-rendering:geometricPrecision; image-rendering:optimizeQuality; fill-rule:evenodd; clip-rule:evenodd"
viewBox="0 0 6.82666 6.82666"
 xmlns:xlink="http://www.w3.org/1999/xlink">
 <defs>
  <style type="text/css">
   <![CDATA[
    .fil2 {fill:none}
    .fil0 {fill:#424242}
    .fil1 {fill:#FFFFFE}
    .fil3 {fill:#FFFFFE;fill-rule:nonzero}
   ]]>
  </style>
 </defs>
 <rect class="fil0" width="6.82666" height="6.82666"/>
 <g id="Layer_x0020_1">
  <metadata id="CorelCorpID_0Corel-Layer"/>
  <path class="fil1" d="M3.19817 1.99624l2.58608 0c0.0748386,0 0.136067,0.0568268 0.136067,0.126276l0 3.74715c0,0.0694488 -0.0612323,0.126276 -0.136067,0.126276l-2.58608 0c-0.0748386,0 -0.136071,-0.0568228 -0.136071,-0.126276l0 -1.47198c0.133937,0.055374 0.273898,0.0857717 0.420437,0.0889764l-0.0805433 0.124161 0.357232 0.232043 0.450362 -0.694272 -0.746575 -0.484287 -0.224031 0.344898c-0.060685,-0.0233937 -0.119516,-0.0545039 -0.176882,-0.0927205l0 -1.79397c0,-0.0694528 0.0612283,-0.126276 0.136071,-0.126276zm1.17517 3.23039l1.17333 0 0 0.213339 -1.17333 0 0 -0.213339zm0 -2.55997l1.17333 0 0 0.213339 -1.17333 0 0 -0.213339zm0 0.639992l1.17333 0 0 0.213339 -1.17333 0 0 -0.213339zm0 0.639992l1.17333 0 0 0.213339 -1.17333 0 0 -0.213339zm0 0.639992l1.17333 0 0 0.213339 -1.17333 0 0 -0.213339z"/>
  <path class="fil1" d="M1.00828 0.856413l2.73056 0c0.0790236,0 0.143673,0.06 0.143673,0.133331l0 0.899827 -0.68435 0c-0.129823,0 -0.242736,0.10085 -0.242736,0.232941l0 1.71374c-0.240976,-0.201689 -0.438303,-0.505969 -0.587087,-0.769642l-0.052374 -0.0928071 -0.37089 0.208831 0.0524685 0.0929843c0.199012,0.352673 0.458295,0.733453 0.792843,0.970484 0.0539646,0.0382323 0.108965,0.0721457 0.165039,0.101583l0 0.73189 -1.94715 0c-0.0790197,0 -0.143673,-0.0599961 -0.143673,-0.133331l0 -3.9565c0,-0.0733346 0.0646496,-0.133331 0.143673,-0.133331z"/>
  <g id="_396596424">
   <rect id="_396597000" class="fil2" width="6.82666" height="6.82666"/>
   <rect id="_396596976" class="fil2" x="0.853331" y="0.853331" width="5.12" height="5.12"/>
  </g>
  <path class="fil3" d="M2.27544 3.11903c0.222618,0.394516 0.451217,0.691067 0.699114,0.866705 0.202972,0.143807 0.421264,0.205744 0.663291,0.172598l-0.259295 -0.168201 0.115835 -0.178331 0.478512 0.310402 0.0891457 0.0578268 -0.0578976 0.0892559 -0.276331 0.425984 -0.178331 -0.115835 0.138543 -0.213575c-0.306378,0.0484213 -0.581283,-0.0263465 -0.835976,-0.206795 -0.275594,-0.195264 -0.524075,-0.514921 -0.76161,-0.93587l0.185 -0.104165z"/>
 </g>
</svg>
