<?xml version="1.0" encoding="UTF-8"?>
<!DOCTYPE svg PUBLIC "-//W3C//DTD SVG 1.1//EN" "http://www.w3.org/Graphics/SVG/1.1/DTD/svg11.dtd">
<!-- Creator: CorelDRAW -->
<svg xmlns="http://www.w3.org/2000/svg" xml:space="preserve" width="6.82666in" height="6.82666in" style="shape-rendering:geometricPrecision; text-rendering:geometricPrecision; image-rendering:optimizeQuality; fill-rule:evenodd; clip-rule:evenodd"
viewBox="0 0 6.82666 6.82666"
 xmlns:xlink="http://www.w3.org/1999/xlink">
 <defs>
  <style type="text/css">
   <![CDATA[
    .fil1 {fill:none}
    .fil0 {fill:#424242}
    .fil2 {fill:#FFFFFE}
    .fil3 {fill:#FFFFFE;fill-rule:nonzero}
   ]]>
  </style>
 </defs>
 <rect class="fil0" width="6.82666" height="6.82666"/>
 <g id="Layer_x0020_1">
  <metadata id="CorelCorpID_0Corel-Layer"/>
  <g id="_396598008">
   <rect id="_396598176" class="fil1" width="6.82666" height="6.82666"/>
   <rect id="_396598032" class="fil1" x="0.853331" y="0.853331" width="5.12" height="5.12"/>
  </g>
  <path class="fil1" d="M2.83648 1.33886c-1.16165,1.47107 -1.03734,2.84462 0,4.14894"/>
  <g id="_396598272">
   <path id="_396598224" class="fil2" d="M3.13889 1.12751c0.159862,0 0.315677,0.0172795 0.465764,0.0498819 0.130622,0.11174 0.250094,0.268413 0.352898,0.459835 0.0800472,0.149047 0.149409,0.318374 0.205807,0.503622l-2.04893 0c0.0563976,-0.185248 0.125764,-0.354575 0.205811,-0.503622 0.102803,-0.191421 0.22228,-0.348094 0.352898,-0.459835 0.150087,-0.0326024 0.305898,-0.0498819 0.465756,-0.0498819zm1.08195 1.22668c0.0212677,0.0900551 0.039626,0.183122 0.0548543,0.278783 -0.0554134,-0.00932283 -0.111917,-0.0141063 -0.16902,-0.0141063 -0.269575,0 -0.525941,0.106224 -0.716528,0.296807 -0.0855945,0.0855984 -0.154161,0.184465 -0.203744,0.291839l-1.2358 0c0.00711417,-0.30315 0.0443819,-0.591012 0.106335,-0.853323l2.1639 0zm-0.898256 1.91998l-1.26564 0c-0.0619449,-0.262315 -0.0992165,-0.550169 -0.106335,-0.853319l1.16487 0c-0.014626,0.0688543 -0.0221417,0.139634 -0.0221417,0.21135 0,0.235831 0.0812953,0.461551 0.229244,0.641969zm0.788134 0.37135c-0.0451575,0.124343 -0.0964843,0.240059 -0.153169,0.34561 -0.102807,0.191425 -0.22228,0.348098 -0.352902,0.459835 -0.150091,0.0325984 -0.305902,0.0498819 -0.46576,0.0498819 -0.159854,0 -0.315665,-0.0172756 -0.465748,-0.049878 -0.130622,-0.11174 -0.250098,-0.268413 -0.352906,-0.459839 -0.0800472,-0.149047 -0.149417,-0.31837 -0.205811,-0.503622l1.4486 0c0.161122,0.102598 0.348937,0.158028 0.54365,0.158028l0.00404331 -1.5748e-005zm-0.0507992 -3.31498c0.380063,0.176768 0.700795,0.459555 0.924331,0.810307l-0.561744 0c-0.0642165,-0.225945 -0.146346,-0.432075 -0.242894,-0.61185 -0.037685,-0.0701654 -0.0776535,-0.136413 -0.119693,-0.198457zm1.04411 1.02365c0.127146,0.259685 0.204224,0.548311 0.218882,0.853323l-0.295965 0c-0.0495827,-0.107374 -0.11815,-0.20624 -0.203744,-0.291839 -0.0832559,-0.083252 -0.179067,-0.150417 -0.283047,-0.199646 -0.0163898,-0.12439 -0.0377717,-0.24526 -0.0637323,-0.361839l0.627606 0zm0.218882 1.06666c-0.0146614,0.305008 -0.091752,0.593626 -0.218882,0.853319l-0.0537008 0 -0.0922598 -0.0922598c0.105693,-0.163343 0.161941,-0.353398 0.161941,-0.549709 0,-0.0717165 -0.00751575,-0.142496 -0.0221417,-0.21135l0.225043 0zm-0.473665 1.25561c-0.21026,0.263618 -0.480165,0.477563 -0.789327,0.621358 0.0420394,-0.0620433 0.0820079,-0.128291 0.119693,-0.198457 0.0793465,-0.147748 0.148953,-0.313295 0.206882,-0.493016 0.0928504,-0.0266142 0.181634,-0.0665118 0.26378,-0.118835l0.0100236 0 0.188949 0.188949zm-2.63138 0.621362c-0.380063,-0.176768 -0.700807,-0.459555 -0.924339,-0.810311l0.561752 0c0.0642087,0.225949 0.146343,0.432075 0.242894,0.61185 0.037685,0.0701654 0.0776535,0.136413 0.119693,0.198461zm-1.04412 -1.02365c-0.127126,-0.259693 -0.204217,-0.548311 -0.218878,-0.853319l0.745252 0c0.00679921,0.300602 0.0421693,0.588071 0.10124,0.853319l-0.627614 0zm-0.218878 -1.06666c0.0146535,-0.305012 0.0917323,-0.593638 0.218878,-0.853323l0.627614 0c-0.0590748,0.265248 -0.0944409,0.55272 -0.10124,0.853323l-0.745252 0zm0.338657 -1.06666c0.223535,-0.350756 0.544272,-0.633543 0.924339,-0.810311 -0.0420394,0.0620433 -0.0820079,0.128295 -0.119693,0.198461 -0.0965472,0.179776 -0.178681,0.385906 -0.242894,0.61185l-0.561752 0z"/>
   <path id="_396598512" class="fil3" d="M4.10667 2.72553c0.250354,0 0.477024,0.101488 0.641102,0.265567 0.164079,0.164079 0.265567,0.390748 0.265567,0.641102 0,0.211925 -0.0727283,0.406874 -0.194579,0.561256l1.01666 1.01666c0.0416496,0.0416496 0.0416496,0.109185 0,0.150835 -0.0416496,0.0416496 -0.109185,0.0416496 -0.150835,0l-1.01666 -1.01666c-0.154382,0.12185 -0.349331,0.194579 -0.561256,0.194579 -0.250354,0 -0.477024,-0.101488 -0.641102,-0.265567 -0.164079,-0.164079 -0.265567,-0.390748 -0.265567,-0.641102 0,-0.250354 0.101488,-0.477024 0.265567,-0.641102 0.164079,-0.164079 0.390748,-0.265567 0.641102,-0.265567zm0.490268 0.416402c-0.125461,-0.125461 -0.298799,-0.203063 -0.490268,-0.203063 -0.191469,0 -0.364807,0.0776024 -0.490268,0.203063 -0.125461,0.125461 -0.203063,0.298799 -0.203063,0.490268 0,0.191469 0.0776024,0.364807 0.203063,0.490268 0.125461,0.125461 0.298799,0.203063 0.490268,0.203063 0.191469,0 0.364807,-0.0776024 0.490268,-0.203063 0.125461,-0.125461 0.203063,-0.298799 0.203063,-0.490268 0,-0.191469 -0.0776024,-0.364807 -0.203063,-0.490268z"/>
  </g>
 </g>
</svg>
