<?xml version="1.0" encoding="UTF-8"?>
<!DOCTYPE svg PUBLIC "-//W3C//DTD SVG 1.1//EN" "http://www.w3.org/Graphics/SVG/1.1/DTD/svg11.dtd">
<!-- Creator: CorelDRAW -->
<svg xmlns="http://www.w3.org/2000/svg" xml:space="preserve" width="6.82666in" height="6.82666in" style="shape-rendering:geometricPrecision; text-rendering:geometricPrecision; image-rendering:optimizeQuality; fill-rule:evenodd; clip-rule:evenodd"
viewBox="0 0 6.82666 6.82666"
 xmlns:xlink="http://www.w3.org/1999/xlink">
 <defs>
  <style type="text/css">
   <![CDATA[
    .fil2 {fill:none}
    .fil0 {fill:#424242}
    .fil1 {fill:#FFFFFE}
    .fil3 {fill:#FFFFFE;fill-rule:nonzero}
   ]]>
  </style>
 </defs>
 <rect class="fil0" width="6.82666" height="6.82666"/>
 <g id="Layer_x0020_1">
  <metadata id="CorelCorpID_0Corel-Layer"/>
  <path class="fil1" d="M3.033 1.22666c0.159862,0 0.315677,0.0172795 0.465764,0.0498819 0.130622,0.11174 0.250094,0.268413 0.352898,0.459835 0.0800472,0.149047 0.149409,0.318374 0.205807,0.503622l-2.04893 0c0.0563976,-0.185248 0.125764,-0.354575 0.205811,-0.503622 0.102803,-0.191421 0.22228,-0.348094 0.352898,-0.459835 0.150087,-0.0326024 0.305898,-0.0498819 0.465756,-0.0498819zm1.08195 1.22668c0.00969291,0.0410472 0.0187835,0.0827205 0.027248,0.12498l-0.839689 0.572516c-0.0543858,0.0370787 -0.0861732,0.0949882 -0.0920079,0.155827l-1.36578 0c0.00711417,-0.30315 0.0443819,-0.591012 0.106335,-0.853323l2.1639 0zm0.0928583 0.596094c0.00688976,0.0843189 0.0114291,0.170142 0.0134724,0.257228l-0.39074 0 0.377268 -0.257228zm0.0134724 0.470567c-0.00711811,0.30315 -0.0443898,0.591004 -0.106335,0.853319l-2.16389 0c-0.0619449,-0.262315 -0.0992165,-0.550169 -0.106335,-0.853319l1.48783 0c0.0559882,0.0260079 0.122094,0.0271535 0.180165,0l0.708567 0zm-0.163819 1.06666c-0.0563937,0.185252 -0.125756,0.354575 -0.205803,0.503622 -0.102807,0.191425 -0.22228,0.348098 -0.352902,0.459835 -0.150091,0.0325984 -0.305902,0.0498819 -0.46576,0.0498819 -0.159854,0 -0.315665,-0.0172756 -0.465748,-0.049878 -0.130622,-0.11174 -0.250098,-0.268413 -0.352906,-0.459839 -0.0800472,-0.149047 -0.149417,-0.31837 -0.205811,-0.503622l2.04893 0zm-0.103433 -3.15696c0.338835,0.157591 0.630508,0.399449 0.848197,0.698606l-0.163827 0.111701 -0.321783 0c-0.0642165,-0.225945 -0.146346,-0.432075 -0.242894,-0.61185 -0.037685,-0.0701654 -0.0776535,-0.136413 -0.119693,-0.198457zm1.06467 1.06686c0.114882,0.24835 0.184472,0.521909 0.198323,0.810106l-0.745252 0c-0.00322441,-0.142547 -0.012878,-0.282142 -0.0284291,-0.417815l0.575358 -0.392291zm0.198323 1.02344c-0.0146614,0.305008 -0.091752,0.593626 -0.218882,0.853319l-0.62761 0c0.0590709,-0.265248 0.0944409,-0.552717 0.10124,-0.853319l0.745252 0zm-0.338661 1.06666c-0.223531,0.350756 -0.544272,0.633535 -0.924331,0.810307 0.0420394,-0.0620433 0.0820079,-0.128291 0.119693,-0.198457 0.0965472,-0.179776 0.178681,-0.385902 0.24289,-0.61185l0.561748 0zm-2.76639 0.810311c-0.380063,-0.176768 -0.700807,-0.459555 -0.924339,-0.810311l0.561752 0c0.0642087,0.225949 0.146343,0.432075 0.242894,0.61185 0.037685,0.0701654 0.0776535,0.136413 0.119693,0.198461zm-1.04412 -1.02365c-0.127126,-0.259693 -0.204217,-0.548311 -0.218878,-0.853319l0.745252 0c0.00679921,0.300602 0.0421693,0.588071 0.10124,0.853319l-0.627614 0zm-0.218878 -1.06666c0.0146535,-0.305012 0.0917323,-0.593638 0.218878,-0.853323l0.627614 0c-0.0590748,0.265248 -0.0944409,0.55272 -0.10124,0.853323l-0.745252 0zm0.338657 -1.06666c0.223535,-0.350756 0.544272,-0.633543 0.924339,-0.810311 -0.0420394,0.0620433 -0.0820079,0.128295 -0.119693,0.198461 -0.0965472,0.179776 -0.178681,0.385906 -0.242894,0.61185l-0.561752 0z"/>
  <g id="_396598944">
   <rect id="_396599328" class="fil2" width="6.82666" height="6.82666"/>
   <rect id="_396598824" class="fil2" x="0.853331" y="0.853331" width="5.12" height="5.12"/>
  </g>
  <path class="fil3" d="M3.3626 3.23896c-0.0485551,0.0331339 -0.0610512,0.0993622 -0.0279173,0.147917 0.0331339,0.0485551 0.0993622,0.0610512 0.147917,0.0279173l1.99331 -1.35907c0.00518504,-0.00353937 0.00995669,-0.00745669 0.014311,-0.011689l0.425591 0.022252 -0.473917 -0.61802 -0.0775157 0.426406c-0.00287402,0.00159449 -0.00570079,0.00332677 -0.0084685,0.00521654l-1.99331 1.35907z"/>
 </g>
</svg>
