<?xml version="1.0" encoding="UTF-8"?>
<!DOCTYPE svg PUBLIC "-//W3C//DTD SVG 1.1//EN" "http://www.w3.org/Graphics/SVG/1.1/DTD/svg11.dtd">
<!-- Creator: CorelDRAW -->
<svg xmlns="http://www.w3.org/2000/svg" xml:space="preserve" width="6.82666in" height="6.82666in" style="shape-rendering:geometricPrecision; text-rendering:geometricPrecision; image-rendering:optimizeQuality; fill-rule:evenodd; clip-rule:evenodd"
viewBox="0 0 6.82666 6.82666"
 xmlns:xlink="http://www.w3.org/1999/xlink">
 <defs>
  <style type="text/css">
   <![CDATA[
    .fil2 {fill:none}
    .fil0 {fill:#424242}
    .fil1 {fill:#FFFFFE}
   ]]>
  </style>
 </defs>
 <rect class="fil0" width="6.82666" height="6.82666"/>
 <g id="Layer_x0020_1">
  <metadata id="CorelCorpID_0Corel-Layer"/>
  <path class="fil1" d="M2.59031 5.97333l2.85765 0c0,0 -0.83115,-0.670618 -0.816248,-1.39973 0.0146457,-0.408142 0.816248,-0.918531 0.801921,-2.05578 0,-0.568587 -0.554327,-1.51634 -1.48744,-1.63303 -0.933181,-0.116587 -1.63309,0.0873937 -1.9391,0.670622 -0.306433,0.583224 -0.335311,1.07909 -0.306433,1.18144 0.0292205,0.0873622 0.116685,0.276791 0.116685,0.276791 0,0 -0.437024,0.682846 -0.438642,0.832622l0 0.00101575c0,0.00459055 0.000417323,0.00864567 0.00129134,0.0121575 0.0292244,0.11661 0.349886,0.175098 0.349886,0.175098 0,0 0.0292953,0.0873937 -0.0292205,0.233276 -0.0581693,0.145563 0.116685,0.349953 0.160551,0.408142 0.0438425,0.0581732 -0.0728386,0.262476 -0.0292913,0.379157 0.0438425,0.116681 0.233339,0.247917 0.451988,0.218717 0.218949,-0.0296142 0.510394,-0.0878071 0.612429,-0.102035 0.233594,0.539358 -0.30602,0.801531 -0.30602,0.801531zm1.53017 -2.50738l-0.0229291 -0.0504134 0.050752 -0.023063c0.0596181,-0.0270906 0.0832283,-0.0152677 0.124843,-0.0815 0.0462953,-0.0869173 -0.0446929,-0.174374 -0.127492,-0.176461 -0.0746142,-0.00188976 -0.124894,0.0613346 -0.118567,0.13339 0.0185866,0.0416378 -0.00768504,0.0809764 -0.023374,0.122807l-0.0519173 -0.0196457c-0.0580945,-0.0219764 -0.226063,-0.147815 -0.267906,-0.175953l-0.0462598 -0.0311142 0.0310433 -0.0460591 0.139335 -0.206732 0.000216535 -0.000216535c0.0238071,-0.0346811 0.0390197,-0.060685 0.0455,-0.081185 0.00383858,-0.0121575 0.00367323,-0.0217205 -0.000389764,-0.0306614 -0.00201181,-0.00442126 -0.00411811,-0.0068937 -0.00626378,-0.00837795 -0.00429528,-0.00297244 -0.0117835,-0.00577559 -0.0192913,-0.00856693 -0.00534646,-0.00200394 -0.0135748,-0.00324409 -0.0219252,-0.0035748 -0.00557874,-0.000216535 -0.0083189,-0.000814961 -0.0087126,-0.000637795l-0.024126 0.0047874c-0.0552559,-0.00146457 -0.0553701,-0.00148031 -0.0982992,-0.0362283l-1.9685e-005 3.14961e-005c-0.0288504,-0.0233189 -0.0392756,-0.0484921 -0.0404488,-0.0745354 -0.000925197,-0.020378 0.00404724,-0.0356181 0.00955118,-0.0503465 0.00372835,-0.0177756 0.0107205,-0.0346496 0.0200984,-0.0498504 0.0147835,-0.0239646 0.0359409,-0.0442559 0.0598386,-0.0575748 0.0261654,-0.0145827 0.056063,-0.0212874 0.0858386,-0.0164764 0.0150945,0.00244094 0.029874,0.00775984 0.0438307,0.0163701l0.00565354 0.00391732c0.0388307,0.0313425 0.0388386,0.0313543 0.0578701,0.0732323l0.0244843 0.053874c0.00875197,0.0108346 0.0171299,0.0155984 0.0251575,0.0135394 0.0219961,-0.0056378 0.0512087,-0.0304409 0.0887047,-0.0766457l0.168256 -0.25015c0.0858465,0.0577402 0.256421,0.191319 0.333972,0.215736 0.0121772,0.00383071 0.0217756,0.0036063 0.0308307,-0.000507874 0.0270433,-0.0122835 0.0203228,-0.0599291 0.0162795,-0.0805 0.00244094,-0.0839803 0.0627835,-0.149972 0.152272,-0.139764 0.0914567,0.010437 0.169492,0.114386 0.135953,0.204252 -0.0111811,0.0333228 -0.0366457,0.0523268 -0.067185,0.0661969l-0.0890866 0.0404921c-0.0043622,0.00198031 -0.00681496,0.0040748 -0.00827953,0.00620472 -0.0015,0.00217717 -0.00292913,0.00519685 -0.00433465,0.00862205 0.00102362,0.0063189 0.00382677,0.0135433 0.00929528,0.0219291 0.0382992,0.0587402 0.239878,0.177594 0.319583,0.231205 -0.089315,0.110335 -0.186465,0.282374 -0.315197,0.340874 -0.0227047,-0.0499567 -0.0525945,-0.146236 -0.100894,-0.173642 -0.183642,-0.0881102 -0.279795,0.270378 -0.0616929,0.250894 0.041689,-0.0185984 0.0807795,0.00756693 0.122634,0.0232598l-0.0194252 0.0517953c-0.021374,0.057 -0.148953,0.227441 -0.176114,0.267827l-0.0304331 0.0452402 -0.0456496 -0.029374c-0.0238543,-0.0153465 -0.283217,-0.167539 -0.305579,-0.21672zm-1.19429 -0.804693l-0.0229291 -0.0504134 0.050752 -0.023063c0.0596181,-0.0270906 0.0832283,-0.0152677 0.124839,-0.0815 0.0462992,-0.0869173 -0.0446929,-0.174374 -0.127488,-0.176461 -0.0746181,-0.00188976 -0.124898,0.0613346 -0.118567,0.13339 0.0185866,0.0416378 -0.00768504,0.0809764 -0.023374,0.122807l-0.0519213 -0.0196457c-0.0580906,-0.0219764 -0.226059,-0.147815 -0.267902,-0.175953l-0.0462598 -0.0311142 0.0310433 -0.0460591 0.139335 -0.206732 0.000216535 -0.000216535c0.0238071,-0.0346811 0.0390197,-0.060689 0.0455,-0.081189 0.00383858,-0.0121535 0.00366929,-0.0217165 -0.000393701,-0.0306575 -0.00200787,-0.00442126 -0.00411417,-0.0068937 -0.00625984,-0.00837795 -0.00429528,-0.00297244 -0.0117874,-0.00577559 -0.0192913,-0.00856693 -0.00535039,-0.00200787 -0.0135787,-0.00324409 -0.0219252,-0.0035748 -0.00557874,-0.000216535 -0.0083189,-0.000814961 -0.0087126,-0.000637795l-0.0241299 0.0047874c-0.055252,-0.00146457 -0.0553701,-0.00148031 -0.0982953,-0.0362283l-1.9685e-005 3.14961e-005c-0.0288504,-0.0233189 -0.0392756,-0.0484961 -0.0404488,-0.0745354 -0.000925197,-0.020378 0.00404724,-0.0356181 0.00955118,-0.0503465 0.00372441,-0.0177756 0.0107165,-0.0346496 0.0200984,-0.0498543 0.0147835,-0.0239606 0.0359409,-0.044252 0.0598386,-0.0575709 0.0261654,-0.0145827 0.056063,-0.0212874 0.0858346,-0.0164764 0.0150984,0.00244094 0.029878,0.00775984 0.0438346,0.0163701l0.00565354 0.00391732c0.0388307,0.0313425 0.0388386,0.0313543 0.0578661,0.0732323l0.0244882 0.053874c0.00875197,0.0108346 0.0171299,0.0155984 0.0251575,0.0135394 0.0219961,-0.0056378 0.0512087,-0.0304409 0.0887047,-0.0766457l0.168256 -0.250154c0.0858465,0.0577441 0.256421,0.191323 0.333972,0.21574 0.0121772,0.00383071 0.0217756,0.0036063 0.0308307,-0.000507874 0.0270433,-0.0122835 0.0203228,-0.0599291 0.0162795,-0.0805 0.00244094,-0.0839803 0.0627835,-0.149972 0.152272,-0.139764 0.0914567,0.010437 0.169492,0.114386 0.135953,0.204252 -0.0111811,0.0333189 -0.0366457,0.0523268 -0.067185,0.0661969l-0.0890866 0.0404921c-0.0043622,0.00198031 -0.00681496,0.0040748 -0.00827953,0.00620472 -0.0015,0.00217717 -0.00292913,0.00519685 -0.00433465,0.00862205 0.00102362,0.0063189 0.00382677,0.0135433 0.00929528,0.0219291 0.0382992,0.0587402 0.239878,0.177594 0.319583,0.231205 -0.089315,0.110335 -0.186469,0.282374 -0.315197,0.340874 -0.0227047,-0.0499606 -0.0525984,-0.146236 -0.100894,-0.173642 -0.183642,-0.0881102 -0.279795,0.270378 -0.0616969,0.250894 0.0416929,-0.0185984 0.0807835,0.00756693 0.122638,0.0232598l-0.0194252 0.0517953c-0.021378,0.057 -0.148953,0.227441 -0.176114,0.267823l-0.0304331 0.0452441 -0.0456496 -0.029374c-0.0238543,-0.0153465 -0.28322,-0.167539 -0.305579,-0.21672z"/>
  <g id="_396583944">
   <rect id="_396584088" class="fil2" width="6.82666" height="6.82666"/>
   <rect id="_396584352" class="fil2" x="0.853331" y="0.853331" width="5.12" height="5.12"/>
  </g>
 </g>
</svg>
