<?xml version="1.0" encoding="UTF-8"?>
<!DOCTYPE svg PUBLIC "-//W3C//DTD SVG 1.1//EN" "http://www.w3.org/Graphics/SVG/1.1/DTD/svg11.dtd">
<!-- Creator: CorelDRAW -->
<svg xmlns="http://www.w3.org/2000/svg" xml:space="preserve" width="6.82666in" height="6.82666in" style="shape-rendering:geometricPrecision; text-rendering:geometricPrecision; image-rendering:optimizeQuality; fill-rule:evenodd; clip-rule:evenodd"
viewBox="0 0 6.82666 6.82666"
 xmlns:xlink="http://www.w3.org/1999/xlink">
 <defs>
  <style type="text/css">
   <![CDATA[
    .fil1 {fill:none}
    .fil0 {fill:#424242}
    .fil2 {fill:#FFFFFE;fill-rule:nonzero}
   ]]>
  </style>
 </defs>
 <rect class="fil0" width="6.82666" height="6.82666"/>
 <g id="Layer_x0020_1">
  <metadata id="CorelCorpID_0Corel-Layer"/>
  <g id="_396585672">
   <rect id="_396585816" class="fil1" width="6.82666" height="6.82666"/>
   <rect id="_396585912" class="fil1" x="0.853331" y="0.853331" width="5.12" height="5.12"/>
  </g>
  <path class="fil2" d="M5.33931 1.64805c0.221047,0.241138 0.392807,0.519126 0.509213,0.81839 0.116736,0.30011 0.178138,0.620933 0.178138,0.94689 0,0.721638 -0.292516,1.37497 -0.765437,1.8479 -0.472925,0.472921 -1.12626,0.765437 -1.8479,0.765437 -0.721638,0 -1.37497,-0.292516 -1.8479,-0.765437 -0.472921,-0.472925 -0.765437,-1.12626 -0.765437,-1.8479l0.32 0c0,0.633303 0.256689,1.20664 0.671689,1.62165 0.415004,0.415 0.988343,0.671689 1.62165,0.671689 0.633303,0 1.20664,-0.256689 1.62165,-0.671689 0.415,-0.415004 0.671689,-0.988343 0.671689,-1.62165 0,-0.287843 -0.0536496,-0.569685 -0.155642,-0.83189 -0.102319,-0.263051 -0.253,-0.507075 -0.446709,-0.71839l0.235 -0.215z"/>
  <path class="fil2" d="M4.01844 0.871083c0.207575,0.0494213 0.40811,0.124303 0.597343,0.222425 0.188378,0.0976811 0.365248,0.218697 0.526346,0.360846l-0.211252 0.238748c-0.140398,-0.123886 -0.295433,-0.229815 -0.461346,-0.315846 -0.165067,-0.0855945 -0.34126,-0.151213 -0.524839,-0.194921l0.073748 -0.311252z"/>
  <path class="fil2" d="M0.812295 3.16574c0.0155984,-0.163815 0.0466181,-0.325441 0.0924291,-0.482752 0.0463071,-0.159024 0.106791,-0.312146 0.180819,-0.45722l0.285 0.145c-0.0664646,0.130256 -0.119835,0.264528 -0.159567,0.400969 -0.0402323,0.138154 -0.0674724,0.28011 -0.0811772,0.424004l-0.317504 -0.03z"/>
  <path class="fil2" d="M1.19463 2.03294c0.238287,-0.383 0.567287,-0.691091 0.949713,-0.903555 0.382799,-0.212677 0.818236,-0.329386 1.26899,-0.329386 0.0604291,0 0.122886,0.00232283 0.187217,0.00694488 0.0620118,0.00445669 0.124165,0.011189 0.186319,0.0201732l-0.045 0.316252c-0.0540984,-0.0078189 -0.108748,-0.0137205 -0.163823,-0.0176772 -0.0527362,-0.00379134 -0.107677,-0.00569291 -0.164713,-0.00569291 -0.396917,0 -0.77913,0.102094 -1.11399,0.288134 -0.33524,0.186252 -0.623957,0.456823 -0.833461,0.793555l-0.271252 -0.168748z"/>
  <polygon class="fil2" points="4.42666,2.13335 4.42666,4.69331 4.10666,4.69331 4.10666,2.13335 "/>
  <polygon class="fil2" points="3.81715,2.86477 3.81715,4.69331 3.49715,4.69331 3.49715,2.86477 "/>
  <polygon class="fil2" points="3.24325,3.35238 3.24325,4.69331 2.92325,4.69331 2.92325,3.35238 "/>
  <polygon class="fil2" points="2.72001,3.83999 2.72001,4.69331 2.40001,4.69331 2.40001,3.83999 "/>
 </g>
</svg>
