<?xml version="1.0" encoding="UTF-8"?>
<!DOCTYPE svg PUBLIC "-//W3C//DTD SVG 1.1//EN" "http://www.w3.org/Graphics/SVG/1.1/DTD/svg11.dtd">
<!-- Creator: CorelDRAW -->
<svg xmlns="http://www.w3.org/2000/svg" xml:space="preserve" width="6.82666in" height="6.82666in" style="shape-rendering:geometricPrecision; text-rendering:geometricPrecision; image-rendering:optimizeQuality; fill-rule:evenodd; clip-rule:evenodd"
viewBox="0 0 6.82666 6.82666"
 xmlns:xlink="http://www.w3.org/1999/xlink">
 <defs>
  <style type="text/css">
   <![CDATA[
    .fil2 {fill:none}
    .fil0 {fill:#424242}
    .fil1 {fill:#FFFFFE}
   ]]>
  </style>
 </defs>
 <rect class="fil0" width="6.82666" height="6.82666"/>
 <g id="Layer_x0020_1">
  <metadata id="CorelCorpID_0Corel-Layer"/>
  <path class="fil1" d="M1.1286 1.32128l4.56946 0c0.151402,0 0.275268,0.106984 0.275268,0.237732l0 0.46765 -5.12 0 0 -0.46765c0,-0.130752 0.123866,-0.237732 0.275268,-0.237732zm2.28473 1.58841c0.140669,0 0.271626,0.0602717 0.381272,0.163961 0.00467717,-0.00213386 0.00956299,-0.00396063 0.0146457,-0.00543307 0.0523622,-0.0151811 0.0841457,-0.0387362 0.0999016,-0.0687992 0.0181772,-0.034685 0.0211496,-0.0834449 0.0132323,-0.142256 -0.00782283,-0.0582165 0.0330354,-0.11176 0.091252,-0.119583 0.0582165,-0.00782283 0.11176,0.0330354 0.119583,0.091252 0.0135827,0.100894 0.00464961,0.191862 -0.0357362,0.268917 -0.0337835,0.0644567 -0.0866575,0.115571 -0.162894,0.150331 0.0387205,0.0628228 0.0721181,0.132681 0.0991772,0.208094 0.0882874,-0.0186063 0.141906,-0.0458346 0.16826,-0.0798228 0.0222559,-0.0287047 0.025748,-0.0698071 0.0157992,-0.119752 -0.0115039,-0.0577559 0.0259921,-0.113913 0.083748,-0.125417 0.0577559,-0.0115039 0.113913,0.0259921 0.125417,0.083748 0.0218661,0.109764 0.00774803,0.20839 -0.0566339,0.291421 -0.0557205,0.0718701 -0.146449,0.125469 -0.281504,0.155909 0.0152559,0.0832244 0.0233858,0.170654 0.0233858,0.260843 0,0.00547638 -3.14961e-005,0.0109449 -9.05512e-005,0.0164016 0.154283,0.0289961 0.256504,0.0833268 0.318059,0.157417 0.0698307,0.0840551 0.0850945,0.184106 0.0613031,0.295587 -0.0121929,0.0575276 -0.0687205,0.0942756 -0.126248,0.0820827 -0.0575276,-0.0121929 -0.0942756,-0.0687205 -0.0820827,-0.126248 0.0102913,-0.0482323 0.00669291,-0.0879016 -0.0163031,-0.115587 -0.0280197,-0.0337244 -0.0832402,-0.0609646 -0.172717,-0.0800118 -0.0173583,0.108626 -0.0467717,0.210547 -0.0860669,0.302665 0.111283,0.0324409 0.186508,0.0862756 0.232996,0.157138 0.0527244,0.0803583 0.0643228,0.175583 0.0464843,0.281421 -0.00966142,0.0579882 -0.0645118,0.0971614 -0.1225,0.0875 -0.0579882,-0.00966142 -0.0971614,-0.0645118 -0.0875,-0.1225 0.00907874,-0.0538661 0.00577559,-0.0983661 -0.014815,-0.129752 -0.0216654,-0.0330236 -0.0663268,-0.059122 -0.140504,-0.0762992 -0.00683071,-0.00156299 -0.0133504,-0.00375984 -0.0195236,-0.00649606 -0.126067,0.179409 -0.298795,0.290094 -0.489398,0.290094 -0.19061,0 -0.363362,-0.110657 -0.489429,-0.290079 -0.00616142,0.00272835 -0.0126732,0.00492126 -0.0194882,0.00648031 -0.0741772,0.0171772 -0.118839,0.0432717 -0.140508,0.0762992 -0.0205866,0.0313819 -0.0238898,0.0758858 -0.014811,0.129752 0.00966142,0.0579882 -0.0295118,0.112839 -0.0875,0.1225 -0.0579882,0.00966142 -0.112839,-0.0295118 -0.1225,-0.0875 -0.0178386,-0.105843 -0.00624016,-0.201063 0.0464803,-0.281421 0.0465,-0.0708701 0.121728,-0.124701 0.23302,-0.157142 -0.0392953,-0.0921181 -0.0687087,-0.194039 -0.086063,-0.302665 -0.0808622,0.0172126 -0.133748,0.0411181 -0.163866,0.0704488 -0.0032126,0.00312992 -0.00617323,0.00631496 -0.00887402,0.00956693 -0.00122047,0.0014685 -0.00238189,0.00297244 -0.00349606,0.00451181 -0.0198386,0.0274094 -0.0225512,0.0654016 -0.0128071,0.111075 0.0121929,0.0575276 -0.0245551,0.114055 -0.0820827,0.126248 -0.0575276,0.0121929 -0.114055,-0.0245551 -0.126248,-0.0820827 -0.0237913,-0.11148 -0.00852756,-0.211531 0.0613031,-0.295587 0.0615512,-0.0740906 0.163776,-0.128417 0.318055,-0.157417 -5.90551e-005,-0.00545669 -9.05512e-005,-0.0109252 -9.05512e-005,-0.0164016 0,-0.090189 0.00812992,-0.177618 0.0233819,-0.260846 -0.135051,-0.030437 -0.225776,-0.0840394 -0.281496,-0.155906 -0.0643819,-0.0830315 -0.0785,-0.181657 -0.0566339,-0.291421 0.0115039,-0.0577559 0.0676614,-0.095252 0.125417,-0.083748 0.0577559,0.0115039 0.095252,0.0676614 0.083748,0.125417 -0.00994882,0.0499449 -0.00645669,0.0910472 0.0157992,0.119752 0.0263543,0.0339882 0.0799764,0.0612205 0.168264,0.0798268 0.0270512,-0.0754134 0.0604488,-0.145283 0.0991693,-0.208102 -0.0762323,-0.0347598 -0.12911,-0.0858701 -0.162894,-0.150327 -0.0403858,-0.0770551 -0.049315,-0.168024 -0.0357323,-0.268917 0.00782283,-0.0582165 0.0613661,-0.0990748 0.119583,-0.091252 0.0582165,0.00782283 0.0990748,0.0613661 0.091252,0.119583 -0.00791732,0.058815 -0.00494882,0.107575 0.0132283,0.142256 0.0157559,0.030063 0.0475433,0.0536181 0.0999055,0.0687992 0.0193543,0.0056063 0.0358819,0.0162362 0.0485945,0.0300591 0.0601732,-0.130264 0.179925,-0.188303 0.347319,-0.188587zm1.51987 -1.3164c0.073563,0 0.133201,0.0596378 0.133201,0.133201 0,0.0735669 -0.0596378,0.133205 -0.133201,0.133205 -0.0735669,0 -0.133205,-0.0596378 -0.133205,-0.133205 0,-0.073563 0.0596378,-0.133201 0.133205,-0.133201zm0.480256 0c0.0735669,0 0.133205,0.0596378 0.133205,0.133201 0,0.0735669 -0.0596378,0.133205 -0.133205,0.133205 -0.073563,0 -0.133201,-0.0596378 -0.133201,-0.133205 0,-0.073563 0.0596378,-0.133201 0.133201,-0.133201zm0.55987 0.646717l0 3.02764c0,0.130748 -0.12387,0.237732 -0.275268,0.237732l-4.56946 0c-0.151398,0 -0.275268,-0.10698 -0.275268,-0.237732l0 -3.02764 5.12 0z"/>
  <g id="_396585960">
   <rect id="_396586776" class="fil2" width="6.82666" height="6.82666"/>
   <rect id="_396586104" class="fil2" x="0.853331" y="0.853331" width="5.12" height="5.12"/>
  </g>
 </g>
</svg>
