<?xml version="1.0" encoding="UTF-8"?>
<!DOCTYPE svg PUBLIC "-//W3C//DTD SVG 1.1//EN" "http://www.w3.org/Graphics/SVG/1.1/DTD/svg11.dtd">
<!-- Creator: CorelDRAW -->
<svg xmlns="http://www.w3.org/2000/svg" xml:space="preserve" width="6.82666in" height="6.82666in" style="shape-rendering:geometricPrecision; text-rendering:geometricPrecision; image-rendering:optimizeQuality; fill-rule:evenodd; clip-rule:evenodd"
viewBox="0 0 6.82666 6.82666"
 xmlns:xlink="http://www.w3.org/1999/xlink">
 <defs>
  <style type="text/css">
   <![CDATA[
    .fil1 {fill:none}
    .fil0 {fill:#424242}
    .fil2 {fill:#FFFFFE}
   ]]>
  </style>
 </defs>
 <rect class="fil0" width="6.82666" height="6.82666"/>
 <g id="Layer_x0020_1">
  <metadata id="CorelCorpID_0Corel-Layer"/>
  <g id="_396588576">
   <rect id="_396588264" class="fil1" width="6.82666" height="6.82666"/>
   <rect id="_396588600" class="fil1" x="0.853331" y="0.853331" width="5.12" height="5.12"/>
  </g>
  <path class="fil2" d="M1.15858 4.17895l0.567795 0 0 1.70339 -0.567795 0 0 -1.70339zm-0.0284488 -1.13258l0.414055 0.579008 4.24816 -2.68106 0.180984 0.287445 -4.38358 2.76652 -0.135417 0.0854646 -0.0934764 -0.130709 -0.507528 -0.709717 0.276803 -0.196957zm4.11659 -1.13861l0.567795 0 0 3.97458 -0.567795 0 0 -3.97458zm-1.02204 0.794921l0.567795 0 0 3.17966 -0.567795 0 0 -3.17966zm-1.02204 0.681354l0.567795 0 0 2.49831 -0.567795 0 0 -2.49831zm-1.02204 0.454236l0.567795 0 0 2.04407 -0.567795 0 0 -2.04407z"/>
 </g>
</svg>
