<?xml version="1.0" encoding="UTF-8"?>
<!DOCTYPE svg PUBLIC "-//W3C//DTD SVG 1.1//EN" "http://www.w3.org/Graphics/SVG/1.1/DTD/svg11.dtd">
<!-- Creator: CorelDRAW -->
<svg xmlns="http://www.w3.org/2000/svg" xml:space="preserve" width="6.82666in" height="6.82666in" style="shape-rendering:geometricPrecision; text-rendering:geometricPrecision; image-rendering:optimizeQuality; fill-rule:evenodd; clip-rule:evenodd"
viewBox="0 0 6.82666 6.82666"
 xmlns:xlink="http://www.w3.org/1999/xlink">
 <defs>
  <style type="text/css">
   <![CDATA[
    .fil2 {fill:none}
    .fil0 {fill:#424242}
    .fil1 {fill:#FFFFFE}
   ]]>
  </style>
 </defs>
 <rect class="fil0" width="6.82666" height="6.82666"/>
 <g id="Layer_x0020_1">
  <metadata id="CorelCorpID_0Corel-Layer"/>
  <path class="fil1" d="M1.76615 1.01333l3.29436 0c0.0620512,0 0.112819,0.06 0.112819,0.133331l0 3.65334 -3.52 0 0 -3.65334c0,-0.0733346 0.0507677,-0.133331 0.112819,-0.133331zm3.40718 4.00001l0 0.666661c0,0.0733307 -0.0507677,0.133331 -0.112819,0.133331l-3.29436 0c-0.0620512,0 -0.112819,-0.0599961 -0.112819,-0.133331l0 -0.666661 3.52 0zm-1.76 0.213323c0.0915236,0 0.165717,0.0741929 0.165717,0.165717 0,0.0915236 -0.0741929,0.165717 -0.165717,0.165717 -0.0915236,0 -0.165717,-0.0741929 -0.165717,-0.165717 0,-0.0915236 0.0741929,-0.165717 0.165717,-0.165717zm0.832331 -2.4947c-0.0551063,0 -0.100937,0.0183898 -0.137685,0.0457008 0,-0.128705 -0.101394,-0.229642 -0.229642,-0.229642 -0.0552402,0 -0.110346,0.0183583 -0.156539,0.0551063 -0.0363858,-0.0918583 -0.119295,-0.147094 -0.211283,-0.147094 -0.054748,0 -0.100937,0.0183543 -0.137654,0.0462874l0 -0.459323c0,-0.128862 -0.100941,-0.229673 -0.229677,-0.229673 -0.128378,0 -0.229673,0.100811 -0.229673,0.229673l0 0.817244c-0.183484,-0.165126 -0.385819,-0.293862 -0.514555,-0.165126 -0.0315433,0.0315433 -0.0462559,0.0682244 -0.0475236,0.11015 -0.000133858,0.00380709 -0.000133858,0.00764961 0,0.0115551 0.0055,0.202626 0.304933,0.521752 0.543622,0.962059 0.211283,0.376772 0.505571,0.514425 0.799307,0.514425 0.432008,0 0.78098,-0.348941 0.78098,-0.780949l0 -0.55072c0,-0.128835 -0.100937,-0.229673 -0.229677,-0.229673z"/>
  <g id="_396589344">
   <rect id="_396589104" class="fil2" width="6.82666" height="6.82666"/>
   <rect id="_396588840" class="fil2" x="0.853331" y="0.853331" width="5.12" height="5.12"/>
  </g>
 </g>
</svg>
