<?xml version="1.0" encoding="UTF-8"?>
<!DOCTYPE svg PUBLIC "-//W3C//DTD SVG 1.1//EN" "http://www.w3.org/Graphics/SVG/1.1/DTD/svg11.dtd">
<!-- Creator: CorelDRAW -->
<svg xmlns="http://www.w3.org/2000/svg" xml:space="preserve" width="6.82666in" height="6.82666in" style="shape-rendering:geometricPrecision; text-rendering:geometricPrecision; image-rendering:optimizeQuality; fill-rule:evenodd; clip-rule:evenodd"
viewBox="0 0 6.82666 6.82666"
 xmlns:xlink="http://www.w3.org/1999/xlink">
 <defs>
  <style type="text/css">
   <![CDATA[
    .fil1 {fill:none}
    .fil0 {fill:#424242}
    .fil2 {fill:#FFFFFE}
    .fil3 {fill:#FFFFFE;fill-rule:nonzero}
   ]]>
  </style>
 </defs>
 <rect class="fil0" width="6.82666" height="6.82666"/>
 <g id="Layer_x0020_1">
  <metadata id="CorelCorpID_0Corel-Layer"/>
  <g id="_396590640">
   <rect id="_396590232" class="fil1" width="6.82666" height="6.82666"/>
   <rect id="_396590472" class="fil1" x="0.853331" y="0.853331" width="5.12" height="5.12"/>
  </g>
  <path class="fil2" d="M2.66667 0.959996l3.09333 0c0.0916693,0 0.166665,0.0750039 0.166665,0.166665l0 0.260004 -3.42667 0 0 -0.260004c0,-0.0916693 0.0749961,-0.166665 0.166665,-0.166665zm2.85727 0.190843c0.0463583,0 0.083937,0.0375787 0.083937,0.083937 0,0.0463583 -0.0375787,0.083937 -0.083937,0.083937 -0.0463583,0 -0.083937,-0.0375787 -0.083937,-0.083937 0,-0.0463583 0.0375787,-0.083937 0.083937,-0.083937zm-0.32 0c0.0463583,0 0.083937,0.0375787 0.083937,0.083937 0,0.0463583 -0.0375787,0.083937 -0.083937,0.083937 -0.0463583,0 -0.083937,-0.0375787 -0.083937,-0.083937 0,-0.0463583 0.0375787,-0.083937 0.083937,-0.083937zm0.722728 0.449165l0 1.32666c0,0.0916614 -0.0750039,0.166665 -0.166665,0.166665l-3.09333 0c-0.0916614,0 -0.166665,-0.0749961 -0.166665,-0.166665l0 -1.32666 3.42667 0z"/>
  <path class="fil2" d="M1.14757 3.73332l3.09333 0c0.0916693,0 0.166665,0.0750039 0.166665,0.166665l0 0.260004 -3.42667 0 0 -0.260004c0,-0.0916693 0.0749961,-0.166665 0.166665,-0.166665zm2.85727 0.190843c0.0463583,0 0.083937,0.0375787 0.083937,0.083937 0,0.0463583 -0.0375787,0.083937 -0.083937,0.083937 -0.0463583,0 -0.083937,-0.0375787 -0.083937,-0.083937 0,-0.0463583 0.0375787,-0.083937 0.083937,-0.083937zm-0.32 0c0.0463583,0 0.083937,0.0375787 0.083937,0.083937 0,0.0463583 -0.0375787,0.083937 -0.083937,0.083937 -0.0463583,0 -0.083937,-0.0375787 -0.083937,-0.083937 0,-0.0463583 0.0375787,-0.083937 0.083937,-0.083937zm0.722728 0.449165l0 1.32666c0,0.0916614 -0.0750039,0.166665 -0.166665,0.166665l-3.09333 0c-0.0916614,0 -0.166665,-0.0749961 -0.166665,-0.166665l0 -1.32666 3.42667 0z"/>
  <polygon class="fil3" points="2.34667,1.92 1.6,1.92 1.6,3.30666 1.38667,3.30666 1.38667,1.81333 1.38667,1.70666 1.49333,1.70666 2.34667,1.70666 "/>
  <polygon class="fil3" points="1.24875,3.01791 1.49333,3.26249 1.73791,3.01791 1.88875,3.16874 1.56875,3.48874 1.49333,3.56416 1.41791,3.48874 1.09792,3.16874 "/>
  <polygon class="fil3" points="4.59963,5.0618 5.3463,5.0618 5.3463,3.67513 5.55963,3.67513 5.55963,5.16847 5.55963,5.27514 5.45296,5.27514 4.59963,5.27514 "/>
  <polygon class="fil3" points="5.69755,3.96389 5.45297,3.7193 5.20839,3.96389 5.05755,3.81305 5.37755,3.49305 5.45297,3.41763 5.52839,3.49305 5.84838,3.81305 "/>
 </g>
</svg>
