<?xml version="1.0" encoding="UTF-8"?>
<!DOCTYPE svg PUBLIC "-//W3C//DTD SVG 1.1//EN" "http://www.w3.org/Graphics/SVG/1.1/DTD/svg11.dtd">
<!-- Creator: CorelDRAW -->
<svg xmlns="http://www.w3.org/2000/svg" xml:space="preserve" width="6.82666in" height="6.82666in" style="shape-rendering:geometricPrecision; text-rendering:geometricPrecision; image-rendering:optimizeQuality; fill-rule:evenodd; clip-rule:evenodd"
viewBox="0 0 6.82666 6.82666"
 xmlns:xlink="http://www.w3.org/1999/xlink">
 <defs>
  <style type="text/css">
   <![CDATA[
    .fil2 {fill:none}
    .fil0 {fill:#424242}
    .fil1 {fill:#FFFFFE}
    .fil3 {fill:#FFFFFE;fill-rule:nonzero}
   ]]>
  </style>
 </defs>
 <rect class="fil0" width="6.82666" height="6.82666"/>
 <g id="Layer_x0020_1">
  <metadata id="CorelCorpID_0Corel-Layer"/>
  <path class="fil1" d="M1.1698 0.906661l3.73687 0 0 4.15933 -0.559323 -0.410709c0.0846732,-0.150843 0.129122,-0.320744 0.129122,-0.495287 0,-0.269567 -0.106224,-0.525941 -0.296803,-0.716524 -0.190587,-0.190583 -0.446953,-0.296807 -0.716528,-0.296807 -0.269575,0 -0.525941,0.106224 -0.716528,0.296807 -0.190579,0.190583 -0.296803,0.446957 -0.296803,0.716524 0,0.269571 0.10622,0.525941 0.296803,0.716528 0.190587,0.190583 0.446957,0.296803 0.716528,0.296803 0.217697,0 0.427264,-0.0692205 0.600902,-0.197335l0.84263 0.618736 0 0.325276 -3.73687 0 0 -5.01334zm1.38645 0.840512l0.728315 1.26148 0.481976 -0.834811 0.500075 0.866154 -0.963957 0 -0.036189 0 -1.45663 0 0.746409 -1.29282z"/>
  <g id="_396591384">
   <rect id="_396591336" class="fil2" width="6.82666" height="6.82666"/>
   <rect id="_396591168" class="fil2" x="0.853331" y="0.853331" width="5.12" height="5.12"/>
  </g>
  <path class="fil3" d="M3.46313 3.25333c0.250354,0 0.477024,0.101488 0.641102,0.265567 0.164071,0.164071 0.265563,0.390744 0.265563,0.641098 0,0.194559 -0.0613071,0.374803 -0.16563,0.522492l1.40917 1.03474c0.0474016,0.034748 0.0576654,0.10135 0.0229173,0.148752 -0.034748,0.0474016 -0.10135,0.0576654 -0.148752,0.0229173l-1.42641 -1.0474c-0.159614,0.140157 -0.36887,0.225157 -0.597969,0.225157 -0.250354,0 -0.477024,-0.101492 -0.641102,-0.265563 -0.164071,-0.164079 -0.265563,-0.390748 -0.265563,-0.641102 0,-0.250354 0.101492,-0.477028 0.265563,-0.641098 0.164079,-0.164079 0.390748,-0.265567 0.641102,-0.265567zm0.490268 0.416402c-0.125461,-0.125461 -0.298799,-0.203063 -0.490268,-0.203063 -0.191469,0 -0.364807,0.0776024 -0.490268,0.203063 -0.125457,0.125457 -0.203059,0.298795 -0.203059,0.490264 0,0.191469 0.0776024,0.364811 0.203059,0.490268 0.125457,0.125457 0.298799,0.203059 0.490268,0.203059 0.191469,0 0.364811,-0.0776024 0.490268,-0.203059 0.125457,-0.125457 0.203059,-0.298799 0.203059,-0.490268 0,-0.191469 -0.0776024,-0.364807 -0.203059,-0.490264z"/>
 </g>
</svg>
