<?xml version="1.0" encoding="UTF-8"?>
<!DOCTYPE svg PUBLIC "-//W3C//DTD SVG 1.1//EN" "http://www.w3.org/Graphics/SVG/1.1/DTD/svg11.dtd">
<!-- Creator: CorelDRAW -->
<svg xmlns="http://www.w3.org/2000/svg" xml:space="preserve" width="6.82666in" height="6.82666in" style="shape-rendering:geometricPrecision; text-rendering:geometricPrecision; image-rendering:optimizeQuality; fill-rule:evenodd; clip-rule:evenodd"
viewBox="0 0 6.82666 6.82666"
 xmlns:xlink="http://www.w3.org/1999/xlink">
 <defs>
  <style type="text/css">
   <![CDATA[
    .fil3 {fill:none}
    .fil0 {fill:#424242}
    .fil2 {fill:#FFFFFE}
    .fil1 {fill:#FFFFFE;fill-rule:nonzero}
   ]]>
  </style>
 </defs>
 <rect class="fil0" width="6.82666" height="6.82666"/>
 <g id="Layer_x0020_1">
  <metadata id="CorelCorpID_0Corel-Layer"/>
  <polygon class="fil1" points="3.55,1.81333 3.55,2.50667 3.33666,2.50667 3.33666,1.81333 "/>
  <polygon class="fil1" points="3.55,3.30666 3.55,4 3.33666,4 3.33666,3.30666 "/>
  <polygon class="fil1" points="3.55,4.90666 3.55,5.97333 3.33666,5.97333 3.33666,4.90666 "/>
  <path class="fil2" d="M1.34 0.853331l4.20667 0c0.150539,0 0.273331,0.122791 0.273331,0.273331l0 0.413335c0,0.150539 -0.122791,0.273331 -0.273331,0.273331l-4.20667 0c-0.150539,0 -0.273331,-0.122791 -0.273331,-0.273331l0 -0.413335c0,-0.150543 0.122787,-0.273331 0.273331,-0.273331zm0.686665 0.373335c0.0589094,0 0.106665,0.0477559 0.106665,0.106665 0,0.0589094 -0.0477559,0.106665 -0.106665,0.106665 -0.0589094,0 -0.106665,-0.0477559 -0.106665,-0.106665 0,-0.0589094 0.0477559,-0.106665 0.106665,-0.106665zm-0.426665 0c0.0589094,0 0.106665,0.0477559 0.106665,0.106665 0,0.0589094 -0.0477559,0.106665 -0.106665,0.106665 -0.0589094,0 -0.106665,-0.0477559 -0.106665,-0.106665 0,-0.0589094 0.0477559,-0.106665 0.106665,-0.106665z"/>
  <path class="fil2" d="M1.34 2.4l4.20667 0c0.150539,0 0.273331,0.122791 0.273331,0.273331l0 0.413335c0,0.150539 -0.122791,0.273331 -0.273331,0.273331l-4.20667 0c-0.150539,0 -0.273331,-0.122791 -0.273331,-0.273331l0 -0.413335c0,-0.150543 0.122787,-0.273331 0.273331,-0.273331zm0.686665 0.373335c0.0589094,0 0.106665,0.0477559 0.106665,0.106665 0,0.0589094 -0.0477559,0.106665 -0.106665,0.106665 -0.0589094,0 -0.106665,-0.0477559 -0.106665,-0.106665 0,-0.0589094 0.0477559,-0.106665 0.106665,-0.106665zm-0.426665 0c0.0589094,0 0.106665,0.0477559 0.106665,0.106665 0,0.0589094 -0.0477559,0.106665 -0.106665,0.106665 -0.0589094,0 -0.106665,-0.0477559 -0.106665,-0.106665 0,-0.0589094 0.0477559,-0.106665 0.106665,-0.106665z"/>
  <path class="fil2" d="M1.34 3.94666l4.20667 0c0.150539,0 0.273331,0.122791 0.273331,0.273331l0 0.413335c0,0.150539 -0.122791,0.273331 -0.273331,0.273331l-4.20667 0c-0.150539,0 -0.273331,-0.122791 -0.273331,-0.273331l0 -0.413335c0,-0.150543 0.122787,-0.273331 0.273331,-0.273331zm0.686665 0.373335c0.0589094,0 0.106665,0.0477559 0.106665,0.106665 0,0.0589094 -0.0477559,0.106665 -0.106665,0.106665 -0.0589094,0 -0.106665,-0.0477559 -0.106665,-0.106665 0,-0.0589094 0.0477559,-0.106665 0.106665,-0.106665zm-0.426665 0c0.0589094,0 0.106665,0.0477559 0.106665,0.106665 0,0.0589094 -0.0477559,0.106665 -0.106665,0.106665 -0.0589094,0 -0.106665,-0.0477559 -0.106665,-0.106665 0,-0.0589094 0.0477559,-0.106665 0.106665,-0.106665z"/>
  <g id="_394082560">
   <rect id="_394083016" class="fil3" width="6.82666" height="6.82666"/>
   <rect id="_394082848" class="fil3" x="0.853331" y="0.853331" width="5.12" height="5.12"/>
  </g>
 </g>
</svg>
