<?xml version="1.0" encoding="UTF-8"?>
<!DOCTYPE svg PUBLIC "-//W3C//DTD SVG 1.1//EN" "http://www.w3.org/Graphics/SVG/1.1/DTD/svg11.dtd">
<!-- Creator: CorelDRAW -->
<svg xmlns="http://www.w3.org/2000/svg" xml:space="preserve" width="6.82666in" height="6.82666in" style="shape-rendering:geometricPrecision; text-rendering:geometricPrecision; image-rendering:optimizeQuality; fill-rule:evenodd; clip-rule:evenodd"
viewBox="0 0 6.82666 6.82666"
 xmlns:xlink="http://www.w3.org/1999/xlink">
 <defs>
  <style type="text/css">
   <![CDATA[
    .fil1 {fill:none}
    .fil0 {fill:#424242}
    .fil2 {fill:#FFFFFE}
   ]]>
  </style>
 </defs>
 <rect class="fil0" width="6.82666" height="6.82666"/>
 <g id="Layer_x0020_1">
  <metadata id="CorelCorpID_0Corel-Layer"/>
  <g id="_394084000">
   <rect id="_394085344" class="fil1" width="6.82666" height="6.82666"/>
   <rect id="_394084048" class="fil1" x="0.853331" y="0.853331" width="5.12" height="5.12"/>
  </g>
  <path class="fil2" d="M5.08543 1.38811l0.285256 0.386047c0.130083,0.176043 0.183701,0.395118 0.151228,0.611409 -0.0324724,0.216291 -0.148059,0.409972 -0.324102,0.540051l-0.887083 0.65548c-0.0133976,-0.0216693 -0.0277244,-0.042878 -0.043,-0.0635472l-0.140646 -0.190339 0.88452 -0.653591c0.109083,-0.0806024 0.180366,-0.200598 0.20048,-0.334567 0.0201102,-0.133972 -0.0127913,-0.269606 -0.0933937,-0.378689l-0.28526 -0.386047c-0.0806024,-0.109083 -0.200594,-0.180366 -0.334563,-0.20048 -0.133972,-0.0201142 -0.269606,0.0127913 -0.378689,0.0933937l-1.3297 0.982547c-0.109083,0.0806024 -0.18037,0.200594 -0.200484,0.334567 -0.0105748,0.0704567 -0.00648819,0.142398 0.0120787,0.210827l-0.262961 0.194307c-0.0614252,-0.141299 -0.0818504,-0.299118 -0.0589488,-0.451654 0.0324724,-0.216287 0.148067,-0.409965 0.324106,-0.540043l1.3297 -0.982547c0.176043,-0.130083 0.395118,-0.183701 0.611409,-0.151228 0.216291,0.0324724 0.409972,0.148059 0.540051,0.324102zm-1.20167 2.50849l-0.0156496 0.011563c-0.176043,0.130083 -0.395122,0.183693 -0.611413,0.15122 -0.216291,-0.0324724 -0.409969,-0.148055 -0.540047,-0.324094l-0.0812244 -0.109921 0.252 -0.186209 0.0812205 0.109921c0.0806024,0.109083 0.200598,0.180362 0.334567,0.200476 0.133972,0.0201142 0.269606,-0.0127874 0.378689,-0.0933898l0.0216142 -0.0159685 0.140646 0.190339c0.0154449,0.0209016 0.0286614,0.0430276 0.0395984,0.066063z"/>
  <path class="fil2" d="M3.89668 3.1949l0.28526 0.386047c0.130083,0.176043 0.183705,0.395122 0.151228,0.611413 -0.0324724,0.216291 -0.148063,0.409969 -0.324106,0.540047l-1.3297 0.982547c-0.176043,0.130083 -0.395122,0.183697 -0.611413,0.15122 -0.216287,-0.0324724 -0.409961,-0.148059 -0.540043,-0.324098l-0.28526 -0.386043c-0.130083,-0.176043 -0.183705,-0.395126 -0.151228,-0.611417 0.0324724,-0.216291 0.148063,-0.409965 0.324106,-0.540043l1.3297 -0.982547c0.176043,-0.130083 0.395118,-0.183701 0.611409,-0.151228 0.216291,0.0324724 0.409965,0.148063 0.540047,0.324102zm0.0332638 0.572256l-0.28526 -0.386047c-0.0806024,-0.109083 -0.200594,-0.180366 -0.334567,-0.20048 -0.133972,-0.0201142 -0.269606,0.0127913 -0.378689,0.0933937l-1.3297 0.982547c-0.109083,0.0806063 -0.18037,0.200598 -0.200484,0.334571 -0.0201142,0.133969 0.0127913,0.269606 0.0933937,0.378685l0.28526 0.386043c0.0806063,0.109083 0.200598,0.180358 0.334571,0.200476 0.133965,0.0201142 0.269602,-0.0127835 0.378681,-0.0933858l1.3297 -0.982551c0.109083,-0.0806024 0.18037,-0.200594 0.200484,-0.334567 0.0201142,-0.133969 -0.0127913,-0.269606 -0.0933937,-0.378685z"/>
 </g>
</svg>
