<?xml version="1.0" encoding="UTF-8"?>
<!DOCTYPE svg PUBLIC "-//W3C//DTD SVG 1.1//EN" "http://www.w3.org/Graphics/SVG/1.1/DTD/svg11.dtd">
<!-- Creator: CorelDRAW -->
<svg xmlns="http://www.w3.org/2000/svg" xml:space="preserve" width="6.82666in" height="6.82666in" style="shape-rendering:geometricPrecision; text-rendering:geometricPrecision; image-rendering:optimizeQuality; fill-rule:evenodd; clip-rule:evenodd"
viewBox="0 0 6.82666 6.82666"
 xmlns:xlink="http://www.w3.org/1999/xlink">
 <defs>
  <style type="text/css">
   <![CDATA[
    .fil1 {fill:none}
    .fil0 {fill:#424242}
    .fil3 {fill:#FFFFFE}
    .fil2 {fill:#FFFFFE;fill-rule:nonzero}
   ]]>
  </style>
 </defs>
 <rect class="fil0" width="6.82666" height="6.82666"/>
 <g id="Layer_x0020_1">
  <metadata id="CorelCorpID_0Corel-Layer"/>
  <g id="_394085536">
   <rect id="_394086208" class="fil1" width="6.82666" height="6.82666"/>
   <rect id="_394085560" class="fil1" x="0.853331" y="0.853331" width="5.12" height="5.12"/>
  </g>
  <polygon class="fil2" points="3.36,1.59574 3.36,5.76 3.04,5.76 3.04,1.59574 "/>
  <path class="fil2" d="M3.2 0.853327c0.117807,0 0.224476,0.0477598 0.301693,0.124976 0.0772165,0.0772165 0.124976,0.183886 0.124976,0.301693 0,0.117807 -0.0477598,0.224476 -0.124976,0.301693 -0.0772165,0.0772126 -0.183886,0.124976 -0.301693,0.124976 -0.117807,0 -0.224476,-0.0477638 -0.301693,-0.124976 -0.0772165,-0.0772165 -0.124976,-0.183886 -0.124976,-0.301693 0,-0.117807 0.0477598,-0.224476 0.124976,-0.301693 0.0772165,-0.0772165 0.183886,-0.124976 0.301693,-0.124976zm0.150858 0.275811c-0.0385984,-0.0385984 -0.0919409,-0.0624724 -0.150858,-0.0624724 -0.0589173,0 -0.11226,0.023874 -0.150858,0.0624724 -0.0385984,0.0385984 -0.0624724,0.0919409 -0.0624724,0.150858 0,0.0589173 0.023874,0.11226 0.0624724,0.150858 0.0385984,0.0385945 0.0919409,0.0624724 0.150858,0.0624724 0.0589173,0 0.11226,-0.023878 0.150858,-0.0624724 0.0385984,-0.0385984 0.0624724,-0.0919409 0.0624724,-0.150858 0,-0.0589173 -0.023874,-0.11226 -0.0624724,-0.150858z"/>
  <path class="fil2" d="M2.66667 1.81332c-0.0589094,0 -0.106669,0.0477598 -0.106669,0.106669 0,0.0589094 0.0477598,0.106669 0.106669,0.106669l1.06667 0c0.0589094,0 0.106669,-0.0477598 0.106669,-0.106669 0,-0.0589094 -0.0477598,-0.106669 -0.106669,-0.106669l-1.06667 0z"/>
  <path class="fil2" d="M4.8 4.38161c0,0.441807 -0.179094,0.841811 -0.468638,1.13136 -0.289551,0.289543 -0.689555,0.468638 -1.13136,0.468638 -0.441807,0 -0.841811,-0.179094 -1.13136,-0.468638 -0.289543,-0.289551 -0.468638,-0.689555 -0.468638,-1.13136l0.32 0c0,0.353476 0.143268,0.673484 0.37489,0.90511 0.231626,0.231622 0.551634,0.37489 0.90511,0.37489 0.353476,0 0.673484,-0.143268 0.90511,-0.37489 0.231622,-0.231626 0.37489,-0.551634 0.37489,-0.90511l0.32 0z"/>
  <polygon class="fil3" points="1.76109,3.74764 2.24,4.57715 1.28218,4.57715 "/>
  <polygon class="fil3" points="4.63891,3.74764 5.11782,4.57715 4.16,4.57715 "/>
 </g>
</svg>
