<?xml version="1.0" encoding="UTF-8"?>
<!DOCTYPE svg PUBLIC "-//W3C//DTD SVG 1.1//EN" "http://www.w3.org/Graphics/SVG/1.1/DTD/svg11.dtd">
<!-- Creator: CorelDRAW -->
<svg xmlns="http://www.w3.org/2000/svg" xml:space="preserve" width="6.82666in" height="6.82666in" style="shape-rendering:geometricPrecision; text-rendering:geometricPrecision; image-rendering:optimizeQuality; fill-rule:evenodd; clip-rule:evenodd"
viewBox="0 0 6.82666 6.82666"
 xmlns:xlink="http://www.w3.org/1999/xlink">
 <defs>
  <style type="text/css">
   <![CDATA[
    .fil2 {fill:none}
    .fil0 {fill:#424242}
    .fil1 {fill:#FFFFFE}
   ]]>
  </style>
 </defs>
 <rect class="fil0" width="6.82666" height="6.82666"/>
 <g id="Layer_x0020_1">
  <metadata id="CorelCorpID_0Corel-Layer"/>
  <path class="fil1" d="M1.89068 0.959996l3.0453 0c0.101213,0 0.184016,0.0900039 0.184016,0.199996l0 3.64001 -3.41333 0 0 -3.64001c0,-0.11 0.0828071,-0.199996 0.184016,-0.199996zm0.722402 2.88331l0.656917 -1.70998 0.243657 0 0.699921 1.70998 -0.257992 0 -0.199465 -0.517972 -0.715047 0 -0.18752 0.517972 -0.240472 0zm0.493287 -0.702307l0.580079 0 -0.17876 -0.473382c-0.0541496,-0.143724 -0.0947559,-0.261969 -0.121035,-0.354736 -0.0218976,0.109886 -0.0525512,0.218575 -0.0923661,0.32687l-0.187917 0.501248zm0.306961 2.13667c0.0863504,0 0.15635,0.07 0.15635,0.15635 0,0.0863504 -0.07,0.15635 -0.15635,0.15635 -0.0863504,0 -0.15635,-0.07 -0.15635,-0.15635 0,-0.0863504 0.07,-0.15635 0.15635,-0.15635zm1.70666 -0.264331l0 0.653327c0,0.109992 -0.082811,0.199996 -0.184016,0.199996l-3.0453 0c-0.101205,0 -0.184016,-0.0899961 -0.184016,-0.199996l0 -0.653327 3.41333 0z"/>
  <g id="_394088152">
   <rect id="_394088464" class="fil2" width="6.82666" height="6.82666"/>
   <rect id="_394088200" class="fil2" x="0.853331" y="0.853331" width="5.12" height="5.12"/>
  </g>
 </g>
</svg>
