<?xml version="1.0" encoding="UTF-8"?>
<!DOCTYPE svg PUBLIC "-//W3C//DTD SVG 1.1//EN" "http://www.w3.org/Graphics/SVG/1.1/DTD/svg11.dtd">
<!-- Creator: CorelDRAW -->
<svg xmlns="http://www.w3.org/2000/svg" xml:space="preserve" width="6.82666in" height="6.82666in" style="shape-rendering:geometricPrecision; text-rendering:geometricPrecision; image-rendering:optimizeQuality; fill-rule:evenodd; clip-rule:evenodd"
viewBox="0 0 6.82666 6.82666"
 xmlns:xlink="http://www.w3.org/1999/xlink">
 <defs>
  <style type="text/css">
   <![CDATA[
    .fil2 {fill:none}
    .fil0 {fill:#424242}
    .fil1 {fill:#FFFFFE}
   ]]>
  </style>
 </defs>
 <rect class="fil0" width="6.82666" height="6.82666"/>
 <g id="Layer_x0020_1">
  <metadata id="CorelCorpID_0Corel-Layer"/>
  <path class="fil1" d="M1.19978 1.44094l4.42709 0c0.091815,0 0.166933,0.0777323 0.166933,0.172728l0 2.74982c0,0.0949961 -0.075126,0.172728 -0.166933,0.172728l-2.10687 0 0 0.583764 0.238551 0 0 0.213339 -0.690441 0 0 -0.213339 0.238551 0 0 -0.583764 -2.10688 0c-0.0918071,0 -0.166929,-0.0777244 -0.166929,-0.172728l0 -2.74982c0,-0.0950039 0.0751142,-0.172728 0.166929,-0.172728zm1.16341 1.54764l0.477323 0.477319c-0.263614,0.263618 -0.69102,0.263618 -0.954638,3.93701e-006 -0.263618,-0.263614 -0.263622,-0.69102 -7.87402e-006,-0.954642 0.263618,-0.263618 0.691024,-0.263618 0.954642,-3.93701e-006l-0.477319 0.477323zm2.6153 -0.0716299c0.0883661,0 0.16,0.0716339 0.16,0.16 0,0.0883661 -0.0716339,0.16 -0.16,0.16 -0.0883661,0 -0.16,-0.0716339 -0.16,-0.16 0,-0.0883661 0.0716339,-0.16 0.16,-0.16zm-0.783465 0c0.0883661,0 0.16,0.0716339 0.16,0.16 0,0.0883661 -0.0716339,0.16 -0.16,0.16 -0.0883661,0 -0.16,-0.0716339 -0.16,-0.16 0,-0.0883661 0.0716339,-0.16 0.16,-0.16zm-0.783465 0c0.0883661,0 0.16,0.0716339 0.16,0.16 0,0.0883661 -0.0716339,0.16 -0.16,0.16 -0.0883661,0 -0.16,-0.0716339 -0.16,-0.16 0,-0.0883661 0.0716339,-0.16 0.16,-0.16z"/>
  <g id="_394088896">
   <rect id="_394088992" class="fil2" width="6.82666" height="6.82666"/>
   <rect id="_394088632" class="fil2" x="0.853331" y="0.853331" width="5.12" height="5.12"/>
  </g>
 </g>
</svg>
