<?xml version="1.0" encoding="UTF-8"?>
<!DOCTYPE svg PUBLIC "-//W3C//DTD SVG 1.1//EN" "http://www.w3.org/Graphics/SVG/1.1/DTD/svg11.dtd">
<!-- Creator: CorelDRAW -->
<svg xmlns="http://www.w3.org/2000/svg" xml:space="preserve" width="6.82666in" height="6.82666in" style="shape-rendering:geometricPrecision; text-rendering:geometricPrecision; image-rendering:optimizeQuality; fill-rule:evenodd; clip-rule:evenodd"
viewBox="0 0 6.82666 6.82666"
 xmlns:xlink="http://www.w3.org/1999/xlink">
 <defs>
  <style type="text/css">
   <![CDATA[
    .fil2 {fill:none}
    .fil0 {fill:#424242}
    .fil1 {fill:#FFFFFE}
   ]]>
  </style>
 </defs>
 <rect class="fil0" width="6.82666" height="6.82666"/>
 <g id="Layer_x0020_1">
  <metadata id="CorelCorpID_0Corel-Layer"/>
  <path class="fil1" d="M1.19978 1.52047l4.42709 0c0.091815,0 0.166933,0.0777323 0.166933,0.172728l0 2.74982c0,0.0949961 -0.075126,0.172728 -0.166933,0.172728l-2.10687 0 0 0.583764 0.238551 0 0 0.213339 -0.690441 0 0 -0.213339 0.238551 0 0 -0.583764 -2.10688 0c-0.0918071,0 -0.166929,-0.0777244 -0.166929,-0.172728l0 -2.74982c0,-0.0950039 0.0751142,-0.172728 0.166929,-0.172728zm0.318217 2.39719l0.84648 -0.572854 0.0885236 -0.0599055 0.0719055 0.0796575 0.450213 0.498736 0.566429 -0.566429 0.0872008 -0.0872008 0.0872008 0.0872008 0.363862 0.363866 0.820531 -0.820531 -0.35502 0 0 -0.246669 0.64 0 0.123335 0 0 0.123335 0 0.64 -0.246669 0 0 -0.329508 -0.894976 0.894976 -0.0872047 0.0872008 -0.0871969 -0.0872008 -0.363862 -0.363866 -0.570882 0.570878 -0.0916496 0.0916496 -0.0870866 -0.0964685 -0.465386 -0.515547 -0.757961 0.512949 -0.137787 -0.204268zm1.36199 -1.59433l0 0.32 -0.213339 0 0 -0.32 0.213339 0zm0.426661 -0.213335l0 0.533335 -0.213339 0 0 -0.533335 0.213339 0zm0.426657 -0.207409l0 0.740744 -0.213339 0 0 -0.740744 0.213339 0zm0.426697 -0.120583l0 0.861327 -0.213339 0 0 -0.861327 0.213339 0z"/>
  <g id="_394090096">
   <rect id="_394089784" class="fil2" width="6.82666" height="6.82666"/>
   <rect id="_394089520" class="fil2" x="0.853331" y="0.853331" width="5.12" height="5.12"/>
  </g>
 </g>
</svg>
