<?xml version="1.0" encoding="UTF-8"?>
<!DOCTYPE svg PUBLIC "-//W3C//DTD SVG 1.1//EN" "http://www.w3.org/Graphics/SVG/1.1/DTD/svg11.dtd">
<!-- Creator: CorelDRAW -->
<svg xmlns="http://www.w3.org/2000/svg" xml:space="preserve" width="6.82666in" height="6.82666in" style="shape-rendering:geometricPrecision; text-rendering:geometricPrecision; image-rendering:optimizeQuality; fill-rule:evenodd; clip-rule:evenodd"
viewBox="0 0 6.82666 6.82666"
 xmlns:xlink="http://www.w3.org/1999/xlink">
 <defs>
  <style type="text/css">
   <![CDATA[
    .fil1 {fill:none}
    .fil0 {fill:#424242}
    .fil3 {fill:#FFFFFE}
    .fil2 {fill:#FFFFFE;fill-rule:nonzero}
   ]]>
  </style>
 </defs>
 <rect class="fil0" width="6.82666" height="6.82666"/>
 <g id="Layer_x0020_1">
  <metadata id="CorelCorpID_0Corel-Layer"/>
  <g id="_394077064">
   <rect id="_394077616" class="fil1" width="6.82666" height="6.82666"/>
   <rect id="_394077136" class="fil1" x="0.853331" y="0.853331" width="5.12" height="5.12"/>
  </g>
  <polygon class="fil2" points="1.81333,1.06625 1.06668,1.06624 1.06668,1.81332 0.853339,1.81332 0.853339,0.959988 0.853339,0.853736 0.960008,0.853736 1.81333,0.853744 "/>
  <polygon class="fil2" points="5.01333,0.853744 5.86666,0.853736 5.97333,0.853736 5.97333,0.959988 5.97333,1.81332 5.75999,1.81332 5.75999,1.06624 5.01333,1.06625 "/>
  <polygon class="fil2" points="1.81333,5.97291 0.960008,5.97291 0.853339,5.97291 0.853339,5.86666 0.853339,5.01333 1.06668,5.01333 1.06668,5.76041 1.81333,5.7604 "/>
  <polygon class="fil2" points="5.01333,5.7604 5.75999,5.76041 5.75999,5.01333 5.97333,5.01333 5.97333,5.86666 5.97333,5.97291 5.86666,5.97291 5.01333,5.97291 "/>
  <g id="_394090264">
   <path id="_394091224" class="fil3" d="M3.16135 1.38666c0.148165,0 0.292579,0.0160157 0.431685,0.0462323 0.121063,0.103563 0.231795,0.248776 0.327075,0.426189 0.074189,0.138142 0.138476,0.295079 0.190748,0.466772l-1.89902 0c0.0522717,-0.171693 0.116563,-0.32863 0.190752,-0.466772 0.0952835,-0.177413 0.206016,-0.322626 0.327079,-0.426189 0.139102,-0.0302165 0.283516,-0.0462323 0.431677,-0.0462323zm1.00279 1.13692c0.0197126,0.0834685 0.0367244,0.169724 0.0508386,0.258386 -0.0513583,-0.00864173 -0.103728,-0.0130748 -0.15665,-0.0130748 -0.24985,0 -0.487461,0.0984528 -0.664102,0.275091 -0.0793307,0.0793346 -0.142882,0.170969 -0.188835,0.270484l-1.14537 0c0.00659449,-0.280969 0.0411339,-0.547768 0.0985551,-0.790886l2.00557 0zm-0.832531 1.7795l-1.17304 0c-0.0574134,-0.243122 -0.0919567,-0.509913 -0.0985551,-0.790882l1.07964 0c-0.0135551,0.063815 -0.0205236,0.129413 -0.0205236,0.195886 0,0.218575 0.0753465,0.42778 0.212472,0.594996zm0.730465 0.344177c-0.0418504,0.115244 -0.0894213,0.222496 -0.141961,0.320323 -0.0952835,0.177417 -0.206016,0.32263 -0.327079,0.426189 -0.13911,0.0302126 -0.28352,0.0462323 -0.431681,0.0462323 -0.148157,0 -0.292571,-0.0160118 -0.431669,-0.0462283 -0.121067,-0.103563 -0.231799,-0.248776 -0.327087,-0.426193 -0.074189,-0.138142 -0.138484,-0.295075 -0.190752,-0.466772l1.34261 0c0.149335,0.0950906 0.323406,0.146465 0.503874,0.146465l0.00374409 -1.5748e-005zm-0.0470787 -3.07242c0.352252,0.163831 0.649516,0.425929 0.856697,0.751016l-0.520642 0c-0.0595197,-0.209413 -0.135638,-0.400461 -0.225122,-0.567083 -0.0349291,-0.0650315 -0.0719724,-0.126429 -0.110933,-0.183933zm0.967713 0.948744c0.117843,0.240685 0.18928,0.508193 0.202866,0.790886l-0.274311 0c-0.0459528,-0.0995157 -0.109504,-0.19115 -0.188835,-0.270484 -0.0771654,-0.0771614 -0.165965,-0.139409 -0.262339,-0.185035 -0.015189,-0.115291 -0.0350079,-0.227315 -0.0590669,-0.335366l0.581685 0zm0.202866 0.988618c-0.0135906,0.282689 -0.0850394,0.550189 -0.202866,0.790882l-0.0497717 0 -0.0855079 -0.0855118c0.0979567,-0.15139 0.150091,-0.327539 0.150091,-0.509484 0,-0.0664724 -0.00696457,-0.132071 -0.0205236,-0.195886l0.208579 0zm-0.439008 1.16373c-0.194874,0.244331 -0.445031,0.442622 -0.731571,0.575894 0.0389606,-0.0575039 0.0760039,-0.118902 0.110933,-0.183933 0.0735394,-0.136937 0.138055,-0.290374 0.191744,-0.456945 0.0860591,-0.0246654 0.168346,-0.0616457 0.24448,-0.110138l0.00929134 0 0.175122 0.175122zm-2.43885 0.575898c-0.352256,-0.163831 -0.649531,-0.425929 -0.856705,-0.75102l0.52065 0c0.0595079,0.209417 0.135634,0.400461 0.225118,0.567083 0.0349291,0.0650315 0.0719724,0.126429 0.110937,0.183937zm-0.96772 -0.948748c-0.117827,-0.240693 -0.189276,-0.508193 -0.202862,-0.790882l0.69072 0c0.00630315,0.278606 0.0390827,0.545039 0.0938346,0.790882l-0.581693 0zm-0.202862 -0.988614c0.0135787,-0.282693 0.0850197,-0.550201 0.202862,-0.790886l0.581693 0c-0.054752,0.245843 -0.0875315,0.51228 -0.0938346,0.790886l-0.69072 0zm0.313878 -0.988614c0.207177,-0.325091 0.504445,-0.587185 0.856705,-0.75102 -0.0389646,0.0575039 -0.0760079,0.118906 -0.110937,0.183937 -0.0894803,0.166622 -0.165606,0.357669 -0.225118,0.567083l-0.52065 0z"/>
   <path id="_394091392" class="fil2" d="M4.05832 2.86775c0.232035,0 0.442118,0.094063 0.594193,0.246134 0.152071,0.152075 0.246134,0.362157 0.246134,0.594197 0,0.196417 -0.0674055,0.377102 -0.180343,0.520189l0.942272 0.942268c0.0386024,0.0386024 0.0386024,0.101197 0,0.139799 -0.0386024,0.0386024 -0.101197,0.0386024 -0.139799,0l-0.942268 -0.942268c-0.143087,0.112933 -0.323772,0.180339 -0.520189,0.180339 -0.232039,0 -0.442122,-0.094063 -0.594197,-0.246134 -0.152071,-0.152075 -0.246134,-0.362157 -0.246134,-0.594193 0,-0.232039 0.094063,-0.442122 0.246134,-0.594197 0.152075,-0.152071 0.362157,-0.246134 0.594197,-0.246134zm0.454394 0.385933c-0.11628,-0.11628 -0.276937,-0.188205 -0.454394,-0.188205 -0.177461,0 -0.338114,0.0719252 -0.454398,0.188205 -0.11628,0.116283 -0.188205,0.276937 -0.188205,0.454398 0,0.177457 0.0719252,0.338114 0.188205,0.454394 0.116283,0.11628 0.276937,0.188205 0.454398,0.188205 0.177457,0 0.338114,-0.0719252 0.454394,-0.188205 0.11628,-0.11628 0.188205,-0.276937 0.188205,-0.454394 0,-0.177461 -0.0719252,-0.338114 -0.188205,-0.454398z"/>
  </g>
 </g>
</svg>
