<?xml version="1.0" encoding="UTF-8"?>
<!DOCTYPE svg PUBLIC "-//W3C//DTD SVG 1.1//EN" "http://www.w3.org/Graphics/SVG/1.1/DTD/svg11.dtd">
<!-- Creator: CorelDRAW -->
<svg xmlns="http://www.w3.org/2000/svg" xml:space="preserve" width="6.82666in" height="6.82666in" style="shape-rendering:geometricPrecision; text-rendering:geometricPrecision; image-rendering:optimizeQuality; fill-rule:evenodd; clip-rule:evenodd"
viewBox="0 0 6.82666 6.82666"
 xmlns:xlink="http://www.w3.org/1999/xlink">
 <defs>
  <style type="text/css">
   <![CDATA[
    .fil1 {fill:none}
    .fil0 {fill:#424242}
    .fil2 {fill:#FFFFFE}
   ]]>
  </style>
 </defs>
 <rect class="fil0" width="6.82666" height="6.82666"/>
 <g id="Layer_x0020_1">
  <metadata id="CorelCorpID_0Corel-Layer"/>
  <g id="_394077952">
   <rect id="_394078096" class="fil1" width="6.82666" height="6.82666"/>
   <rect id="_394078168" class="fil1" x="0.853331" y="0.853331" width="5.12" height="5.12"/>
  </g>
  <path class="fil2" d="M3.09706 1.71412l0.00118504 3.93701e-006 -0.00149606 0 0.000311024 -3.93701e-006zm0.388508 0.0354173c0.121925,0.0225079 0.240213,0.0554055 0.353917,0.0977244 0.0144409,0.265232 0.204862,0.64185 0.341189,0.89074l-0.117197 0c-0.134051,-0.329165 -0.326728,-0.658654 -0.577909,-0.988465zm1.64923 1.474c0.0497953,0.163693 0.0804331,0.335728 0.0892244,0.51352l-0.424354 0 0.21561 -0.326858c0.0404606,-0.0613386 0.0803346,-0.123681 0.11952,-0.186661zm-0.335846 0.51352l-0.508807 0c-0.012063,-0.261701 -0.0614213,-0.523606 -0.14802,-0.785717l0.158575 0c0.0897756,0.155453 0.184457,0.310138 0.282594,0.45887l0.215657 0.326846zm0.424996 0.213339c-0.013811,0.279476 -0.0814882,0.544752 -0.192874,0.785713l-0.877701 0c0.0839528,-0.260772 0.130028,-0.522677 0.138323,-0.785713l0.932252 0zm-0.306579 0.999051c-0.308114,0.506106 -0.821386,0.873571 -1.42432,0.986969 0.255732,-0.32715 0.45002,-0.656146 0.583075,-0.986969l0.841244 0zm-1.7356 1.02205c-0.0281102,0.00111024 -0.0563228,0.00182677 -0.0847087,0.00182677 -0.0595039,0 -0.118402,-0.00255906 -0.176669,-0.00734646 -0.288823,-0.338461 -0.507555,-0.677303 -0.656354,-1.01653l0.726354 0 0 0.975248 0.213339 0 0 -0.975248 0.639094 0c-0.149598,0.341075 -0.369898,0.681756 -0.661055,1.02205zm-1.00204 -1.23539c-0.0921496,-0.261677 -0.14276,-0.523583 -0.151917,-0.785713l0.962583 0 0 0.785713 -0.810665 0zm-0.150224 -0.999051c0.0132323,-0.260622 0.067252,-0.522531 0.162008,-0.785717l0.798882 0 0 0.785717 -0.96089 0zm0.247587 -0.999055c0.148988,-0.336843 0.364256,-0.67576 0.645693,-1.01675 0.0224488,-0.0018189 0.0449764,-0.00333465 0.0676102,-0.00447244l0 1.02122 -0.713303 0zm0.926642 1.99811l0 -0.785713 0.875303 0c-0.00915748,0.26213 -0.0597559,0.524031 -0.151902,0.785713l-0.723402 0zm0 -0.999051l0 -0.785717 0.71161 0c0.0947559,0.263185 0.148783,0.525091 0.162012,0.785717l-0.873622 0zm0 -0.999055l0 -0.992783c0.271811,0.332906 0.48052,0.663835 0.626024,0.992783l-0.626024 0zm-0.607386 3.17596c-0.557476,-0.134343 -1.02946,-0.487984 -1.31957,-0.96452l0.753933 0c0.130016,0.32326 0.318496,0.644768 0.565638,0.96452zm-1.43332 -1.17786c-0.111386,-0.240957 -0.179028,-0.506244 -0.192835,-0.785713l0.844957 0c0.00829528,0.263035 0.0543583,0.524941 0.138311,0.785713l-0.790433 0zm-0.192839 -0.999051c0.0137992,-0.279469 0.0814213,-0.544772 0.192819,-0.785717l0.801705 0c-0.0866142,0.26211 -0.135957,0.52402 -0.148012,0.785717l-0.846512 0zm0.306598 -0.999055c0.291587,-0.478933 0.766811,-0.833764 1.32795,-0.966571 -0.243091,0.3225 -0.430209,0.644693 -0.561303,0.966571l-0.766646 0z"/>
  <path class="fil2" d="M4.7993 0.961957c-0.470933,0 -0.854055,0.383122 -0.854055,0.854031 0,0.189681 0.121106,0.498902 0.370252,0.945358 0.176232,0.315787 0.349567,0.579067 0.356831,0.590122l0.126972 0.192437 0.126941 -0.192437c0.00729528,-0.0110551 0.180634,-0.274335 0.356827,-0.590122 0.249157,-0.446461 0.370264,-0.755677 0.370264,-0.945331 0,-0.470937 -0.383126,-0.854059 -0.854031,-0.854059zm-1.1811e-005 1.21508c-0.218268,0 -0.395189,-0.176917 -0.395189,-0.395189 0,-0.21826 0.176921,-0.395185 0.395189,-0.395185 0.21824,-3.93701e-006 0.395189,0.176925 0.395189,0.395185 0,0.218272 -0.176953,0.395189 -0.395189,0.395189z"/>
 </g>
</svg>
