<?xml version="1.0" encoding="UTF-8"?>
<!DOCTYPE svg PUBLIC "-//W3C//DTD SVG 1.1//EN" "http://www.w3.org/Graphics/SVG/1.1/DTD/svg11.dtd">
<!-- Creator: CorelDRAW -->
<svg xmlns="http://www.w3.org/2000/svg" xml:space="preserve" width="6.82666in" height="6.82666in" style="shape-rendering:geometricPrecision; text-rendering:geometricPrecision; image-rendering:optimizeQuality; fill-rule:evenodd; clip-rule:evenodd"
viewBox="0 0 6.82666 6.82666"
 xmlns:xlink="http://www.w3.org/1999/xlink">
 <defs>
  <style type="text/css">
   <![CDATA[
    .fil1 {fill:none}
    .fil0 {fill:#424242}
    .fil2 {fill:#FFFFFE}
   ]]>
  </style>
 </defs>
 <rect class="fil0" width="6.82666" height="6.82666"/>
 <g id="Layer_x0020_1">
  <metadata id="CorelCorpID_0Corel-Layer"/>
  <g id="_394079008">
   <rect id="_394079248" class="fil1" width="6.82666" height="6.82666"/>
   <rect id="_394078816" class="fil1" x="0.853331" y="0.853331" width="5.12" height="5.12"/>
  </g>
  <path class="fil2" d="M1.70666 0.959996l3.41334 0 0 4.90667 -3.41334 0 0 -4.90667zm1.70667 2.59474c0.500736,0 0.906665,0.405929 0.906665,0.906665 0,0.500736 -0.405929,0.906665 -0.906665,0.906665 -0.500736,0 -0.906665,-0.405929 -0.906665,-0.906665 0,-0.500736 0.405929,-0.906665 0.906665,-0.906665zm0.0533386 0.339465c0,-0.0294528 -0.0238819,-0.0533346 -0.0533346,-0.0533346 -0.0294528,0 -0.0533346,0.0238819 -0.0533346,0.0533346l0 0.477748c-0.0304252,0.0181772 -0.0508031,0.0514331 -0.0508031,0.0894528 0,0.0575118 0.046622,0.104134 0.104134,0.104134 0.0575118,0 0.104134,-0.046622 0.104134,-0.104134 0,-0.0380157 -0.020374,-0.0712677 -0.0507953,-0.0894488l0 -0.477752zm-1.28 -1.12087l2.45333 0 0 0.213339 -2.45333 0 0 -0.213339zm0 -0.640008l2.45333 0 0 0.213339 -2.45333 0 0 -0.213339zm0 -0.640008l2.45333 0 0 0.213339 -2.45333 0 0 -0.213339z"/>
 </g>
</svg>
