<?xml version="1.0" encoding="UTF-8"?>
<!DOCTYPE svg PUBLIC "-//W3C//DTD SVG 1.1//EN" "http://www.w3.org/Graphics/SVG/1.1/DTD/svg11.dtd">
<!-- Creator: CorelDRAW -->
<svg xmlns="http://www.w3.org/2000/svg" xml:space="preserve" width="6.82666in" height="6.82666in" style="shape-rendering:geometricPrecision; text-rendering:geometricPrecision; image-rendering:optimizeQuality; fill-rule:evenodd; clip-rule:evenodd"
viewBox="0 0 6.82666 6.82666"
 xmlns:xlink="http://www.w3.org/1999/xlink">
 <defs>
  <style type="text/css">
   <![CDATA[
    .fil2 {fill:none}
    .fil0 {fill:#424242}
    .fil1 {fill:#FFFFFE}
   ]]>
  </style>
 </defs>
 <rect class="fil0" width="6.82666" height="6.82666"/>
 <g id="Layer_x0020_1">
  <metadata id="CorelCorpID_0Corel-Layer"/>
  <path class="fil1" d="M2.62461 5.86667l2.73858 0c0,0 -0.796516,-0.642677 -0.782236,-1.34141 0.0140354,-0.391138 0.782236,-0.88026 0.768508,-1.97013 0,-0.544894 -0.531228,-1.45316 -1.42546,-1.56498 -0.894299,-0.111732 -1.56504,0.083752 -1.85831,0.642677 -0.293665,0.558925 -0.321339,1.03413 -0.293665,1.13222 0.0280039,0.0837244 0.111823,0.26526 0.111823,0.26526 0,0 -0.418815,0.654394 -0.420362,0.797929l0 0.000972441c0,0.00440157 0.000397638,0.0082874 0.00123622,0.0116535 0.0280079,0.111752 0.335307,0.167803 0.335307,0.167803 0,0 0.0280748,0.083752 -0.0280039,0.223555 -0.0557441,0.139496 0.111823,0.33537 0.153862,0.391138 0.0420157,0.055748 -0.0698031,0.251539 -0.0280709,0.363358 0.0420157,0.111819 0.223618,0.237587 0.433157,0.209602 0.209827,-0.028378 0.489126,-0.0841457 0.586909,-0.0977835 0.223862,0.516886 -0.293268,0.768138 -0.293268,0.768138zm2.3388 -3.08221c-0.00217717,-0.0193701 -0.024752,-0.033937 -0.0442756,-0.033937 -0.063126,0 -0.119142,-0.0370472 -0.142646,-0.0943898 -0.0239764,-0.0587165 -0.00850787,-0.127177 0.0385197,-0.170323 0.0148189,-0.0135394 0.016622,-0.0362165 0.00420866,-0.0519606 -0.032315,-0.0410276 -0.0690315,-0.0780945 -0.10913,-0.110213 -0.015689,-0.0125827 -0.038748,-0.0108307 -0.0523622,0.00423622 -0.0410472,0.0454764 -0.114811,0.062374 -0.171807,0.0385945 -0.0592913,-0.0249528 -0.0967087,-0.0850472 -0.0930315,-0.149555 0.00119685,-0.0202717 -0.0136181,-0.0378898 -0.033815,-0.0402441 -0.0255945,-0.00296457 -0.0513071,-0.00449606 -0.0770315,-0.00458268l-0.00444488 0c-0.0245157,7.48031e-005 -0.0490472,0.00146457 -0.0735079,0.00417717 -0.0199449,0.00220472 -0.0347677,0.0194055 -0.0340906,0.0394291 0.00222441,0.063878 -0.0356181,0.122913 -0.0943386,0.146972 -0.056315,0.023 -0.129555,0.00623228 -0.170524,-0.0388465 -0.0135394,-0.0148465 -0.0361969,-0.0166693 -0.0519882,-0.00435827 -0.0412756,0.0323937 -0.078815,0.0694882 -0.111433,0.110181 -0.0127126,0.0158189 -0.0108346,0.038748 0.0041063,0.0523386 0.0479567,0.0434291 0.0634252,0.112484 0.0385197,0.171882 -0.0237795,0.0566378 -0.0825709,0.0931063 -0.149874,0.0931063 -0.0218504,-0.00069685 -0.0373976,0.0139724 -0.0397992,0.0338386 -0.00299213,0.0255433 -0.00451969,0.0513346 -0.0046063,0.0771811l0 0.00441339c7.87402e-005,0.0250315 0.00151575,0.0501063 0.00430709,0.0750394 0.00217717,0.0194567 0.0254291,0.0338976 0.0451772,0.0338976 0.0599961,-0.0015315 0.117559,0.0355906 0.141744,0.0943858 0.0240787,0.0587165 0.00858661,0.12715 -0.0385236,0.17035 -0.0147402,0.0135394 -0.016622,0.0361654 -0.00417717,0.0518898 0.0319882,0.0407717 0.0687283,0.0778661 0.108957,0.110256 0.0157874,0.0127126 0.0387402,0.010937 0.0524291,-0.00416142 0.0412283,-0.0455748 0.114969,-0.0624449 0.171732,-0.0386181 0.0594685,0.0248819 0.0968622,0.0849803 0.0932126,0.149504 -0.00120866,0.0202717 0.0136654,0.0379449 0.0337874,0.040248 0.0263346,0.00307874 0.052811,0.00460236 0.0793701,0.00460236 0.0252087,0 0.0504094,-0.00137402 0.0756142,-0.00417717 0.0199764,-0.00220472 0.0347677,-0.0194252 0.0340906,-0.0394528 -0.00229921,-0.0638504 0.0356181,-0.12289 0.0942598,-0.146898 0.0566969,-0.0231496 0.129606,-0.00620079 0.170602,0.0387953 0.0136181,0.0148228 0.036122,0.016622 0.0519843,0.00435827 0.0412008,-0.032315 0.0786732,-0.0693819 0.111437,-0.110177 0.0127126,-0.0157953 0.0109134,-0.038748 -0.0041063,-0.0523622 -0.0479567,-0.0434055 -0.0635039,-0.112484 -0.0385945,-0.171831 0.0233976,-0.0558661 0.0800197,-0.0933858 0.140917,-0.0933858l0.00850787 0.000224409c0.0197717,0.00160236 0.0379449,-0.0136181 0.0403228,-0.0337874 0.00608268,-0.0517874 0.00615748,-0.104476 0.000299213,-0.156642zm-0.683433 0.352465c-0.151382,0 -0.274496,-0.123146 -0.274496,-0.274516 0,-0.151378 0.123114,-0.274528 0.274496,-0.274528 0.151402,0 0.274516,0.12315 0.274516,0.274528 0,0.15137 -0.123114,0.274516 -0.274516,0.274516zm-0.452276 -1.49346c-0.00167323,-0.0148701 -0.0190039,-0.0260512 -0.0339921,-0.0260512 -0.0484646,0 -0.0914724,-0.0284449 -0.109516,-0.0724724 -0.0184055,-0.0450748 -0.00652756,-0.0976339 0.0295748,-0.13076 0.011378,-0.0103937 0.0127638,-0.0278031 0.00322835,-0.0398937 -0.0248071,-0.0314921 -0.0529961,-0.0599528 -0.0837756,-0.0846102 -0.0120472,-0.00965748 -0.0297559,-0.00831496 -0.0402047,0.00325197 -0.0315118,0.0349134 -0.0881417,0.0478858 -0.131902,0.0296299 -0.0455197,-0.0191535 -0.0742441,-0.0652913 -0.0714213,-0.114819 0.00092126,-0.015563 -0.0104567,-0.0290906 -0.0259606,-0.0308937 -0.0196496,-0.00227559 -0.0393898,-0.00345276 -0.0591417,-0.00351969l-0.00340945 0c-0.0188228,5.51181e-005 -0.0376575,0.00112598 -0.056437,0.00320472 -0.015311,0.00169291 -0.026689,0.0149016 -0.0261693,0.0302717 0.00170866,0.0490433 -0.0273465,0.0943622 -0.0724291,0.112839 -0.0432323,0.0176575 -0.0994646,0.00478346 -0.130913,-0.0298228 -0.0103976,-0.0114016 -0.0277913,-0.0127992 -0.0399173,-0.00335039 -0.031685,0.0248701 -0.0605039,0.0533465 -0.0855472,0.0845906 -0.00975984,0.0121457 -0.0083189,0.029748 0.00315354,0.0401811 0.0368189,0.0333425 0.0486929,0.0863583 0.0295709,0.131961 -0.0182559,0.0434803 -0.0633898,0.0714803 -0.115063,0.0714803 -0.0167717,-0.000535433 -0.0287087,0.0107244 -0.0305512,0.0259764 -0.00229921,0.0196102 -0.00347244,0.0394094 -0.00353937,0.0592559l0 0.00338583c6.29921e-005,0.0192205 0.00116535,0.0384724 0.00330709,0.0576102 0.00167323,0.0149409 0.0195236,0.0260276 0.034685,0.0260276 0.0460591,-0.0011811 0.090252,0.0273189 0.108819,0.0724646 0.0184882,0.0450748 0.00659055,0.0976142 -0.0295748,0.130783 -0.011315,0.0103937 -0.0127598,0.0277638 -0.00320472,0.0398346 0.0245591,0.0313031 0.0527598,0.0597795 0.0836457,0.0846457 0.012122,0.00975984 0.0297441,0.00839764 0.040252,-0.00319685 0.0316535,-0.0349882 0.0882638,-0.0479409 0.131843,-0.0296457 0.0456575,0.0191024 0.0743661,0.0652402 0.071563,0.11478 -0.000929134,0.0155591 0.0104921,0.0291299 0.0259409,0.0308976 0.0202165,0.00236614 0.0405433,0.00353543 0.0609331,0.00353543 0.0193543,0 0.0387047,-0.00105512 0.0580512,-0.00320866 0.0153386,-0.00169291 0.0266929,-0.0149134 0.0261772,-0.0302874 -0.00177165,-0.0490197 0.0273425,-0.0943465 0.0723622,-0.11278 0.0435276,-0.0177717 0.0995039,-0.00475984 0.130976,0.0297835 0.0104567,0.011378 0.0277323,0.0127638 0.0399094,0.00335039 0.0316299,-0.024811 0.0604016,-0.0532717 0.0855512,-0.0845906 0.00975984,-0.012126 0.00838189,-0.029748 -0.00314961,-0.0402008 -0.036815,-0.0333228 -0.048752,-0.0863583 -0.0296299,-0.131921 0.0179646,-0.0428858 0.0614331,-0.0716929 0.108189,-0.0716929l0.00652756 0.000177165c0.0151811,0.00122835 0.0291299,-0.0104567 0.0309567,-0.0259449 0.00467323,-0.0397559 0.00472835,-0.0802047 0.000232283,-0.120256zm-0.524693 0.270598c-0.11622,0 -0.210736,-0.0945433 -0.210736,-0.210756 0,-0.116217 0.0945157,-0.210764 0.210736,-0.210764 0.116236,0 0.210756,0.0945472 0.210756,0.210764 0,0.116213 -0.0945197,0.210756 -0.210756,0.210756z"/>
  <g id="_394080040">
   <rect id="_394079848" class="fil2" width="6.82666" height="6.82666"/>
   <rect id="_394079584" class="fil2" x="0.853331" y="0.853331" width="5.12" height="5.12"/>
  </g>
 </g>
</svg>
