<?xml version="1.0" encoding="UTF-8"?>
<!DOCTYPE svg PUBLIC "-//W3C//DTD SVG 1.1//EN" "http://www.w3.org/Graphics/SVG/1.1/DTD/svg11.dtd">
<!-- Creator: CorelDRAW -->
<svg xmlns="http://www.w3.org/2000/svg" xml:space="preserve" width="6.82666in" height="6.82666in" style="shape-rendering:geometricPrecision; text-rendering:geometricPrecision; image-rendering:optimizeQuality; fill-rule:evenodd; clip-rule:evenodd"
viewBox="0 0 6.82666 6.82666"
 xmlns:xlink="http://www.w3.org/1999/xlink">
 <defs>
  <style type="text/css">
   <![CDATA[
    .fil1 {fill:none}
    .fil0 {fill:#424242}
    .fil2 {fill:#FFFFFE}
   ]]>
  </style>
 </defs>
 <rect class="fil0" width="6.82666" height="6.82666"/>
 <g id="Layer_x0020_1">
  <metadata id="CorelCorpID_0Corel-Layer"/>
  <g id="_394727944">
   <rect id="_394728424" class="fil1" width="6.82666" height="6.82666"/>
   <rect id="_394728064" class="fil1" x="0.853331" y="0.853331" width="5.12" height="5.12"/>
  </g>
  <path class="fil2" d="M1.22 2.13333l0.366457 0 0 1.4875c0,0.065252 0.0319803,0.122894 0.0834764,0.163201 0.0441181,0.0345236 0.103319,0.0559646 0.166941,0.0559646l3.15292 0c0.0636181,0 0.122819,-0.0214409 0.166937,-0.0559646 0.0515039,-0.0403031 0.0834803,-0.0979488 0.0834803,-0.163201l0 -1.4875 0.366461 0c0.11,0 0.199996,0.09 0.199996,0.199996l0 3.01334c0,0.109996 -0.09,0.199996 -0.199996,0.199996l-4.38667 0c-0.109996,0 -0.199996,-0.0899961 -0.199996,-0.199996l0 -3.01334c0,-0.11 0.0899961,-0.199996 0.199996,-0.199996zm2.8512 0l0 -0.343299 -1.31574 0 0 0.343299 1.31574 0zm-1.52907 0l0 -0.399969c0,-0.0480709 0.0229961,-0.0900945 0.0600197,-0.119063 0.0296378,-0.0232008 0.0688819,-0.0376063 0.110535,-0.0376063l1.4013 0c0.0416535,0 0.0808976,0.0144055 0.110535,0.0376063 0.0370236,0.0289685 0.0600197,0.0709921 0.0600197,0.119063l0 0.399969 0.742335 0 0 1.48445 -0.000712598 -0.000913386c-8.26772e-005,-0.000271654 -0.000169291,-0.000413386 -0.00026378,-0.000338583 -0.00798031,0.00624409 -0.0206693,0.0101299 -0.0361024,0.0101299l-3.15292 0c-0.0154409,0 -0.028126,-0.00388583 -0.0361063,-0.0101299 -9.44882e-005,-7.48031e-005 -0.000181102,6.69291e-005 -0.00026378,0.000338583l-0.000708661 0.000905512 0 -1.48444 0.742331 0zm2.48475 1.4875l0 -0.00305118 -0.000712598 -0.000913386c0.000444882,0.0014685 0.000712598,0.00681102 0.000712598,0.00396457zm-3.22708 0c0,0.00284646 0.000267717,-0.00249213 0.000708661,-0.00396457l-0.000708661 0.000905512 0 0.00305906z"/>
 </g>
</svg>
