<?xml version="1.0" encoding="UTF-8"?>
<!DOCTYPE svg PUBLIC "-//W3C//DTD SVG 1.1//EN" "http://www.w3.org/Graphics/SVG/1.1/DTD/svg11.dtd">
<!-- Creator: CorelDRAW -->
<svg xmlns="http://www.w3.org/2000/svg" xml:space="preserve" width="6.82666in" height="6.82666in" style="shape-rendering:geometricPrecision; text-rendering:geometricPrecision; image-rendering:optimizeQuality; fill-rule:evenodd; clip-rule:evenodd"
viewBox="0 0 6.82666 6.82666"
 xmlns:xlink="http://www.w3.org/1999/xlink">
 <defs>
  <style type="text/css">
   <![CDATA[
    .fil2 {fill:none}
    .fil0 {fill:#424242}
    .fil3 {fill:#FFFFFE}
    .fil1 {fill:#FFFFFE;fill-rule:nonzero}
   ]]>
  </style>
 </defs>
 <rect class="fil0" width="6.82666" height="6.82666"/>
 <g id="Layer_x0020_1">
  <metadata id="CorelCorpID_0Corel-Layer"/>
  <polygon class="fil1" points="3.8192,4.34966 4.04682,5.19916 4.08277,5.33333 3.94391,5.33333 2.88276,5.33333 2.74389,5.33333 2.77984,5.19916 3.00746,4.34966 3.2133,4.40466 3.02162,5.11999 3.80504,5.11999 3.61337,4.40466 "/>
  <g id="_394728808">
   <rect id="_394729000" class="fil2" width="6.82666" height="6.82666"/>
   <rect id="_394728856" class="fil2" x="0.853331" y="0.853331" width="5.12" height="5.12"/>
  </g>
  <path class="fil3" d="M1.19978 1.44094l4.42709 0c0.091815,0 0.166933,0.0777323 0.166933,0.172728l0 2.74982c0,0.0949961 -0.075126,0.172728 -0.166933,0.172728l-4.42709 0c-0.0918071,0 -0.166929,-0.0777244 -0.166929,-0.172728l0 -2.74982c0,-0.0950039 0.0751142,-0.172728 0.166929,-0.172728zm3.92441 1.82542l0 -0.233079 -0.841031 -0.568961 0 0.24824 0.666913 0.438681 -0.666913 0.442472 0 0.248713 0.841031 -0.576067zm-3.42173 0l0 -0.233079 0.841031 -0.568961 0 0.24824 -0.666913 0.438681 0.666913 0.442472 0 0.248713 -0.841031 -0.576067zm2.46025 -1.34199l-1.28994 2.23426 -0.184165 -0.105835 1.28994 -2.23426 0.184165 0.105835z"/>
 </g>
</svg>
