<?xml version="1.0" encoding="UTF-8"?>
<!DOCTYPE svg PUBLIC "-//W3C//DTD SVG 1.1//EN" "http://www.w3.org/Graphics/SVG/1.1/DTD/svg11.dtd">
<!-- Creator: CorelDRAW -->
<svg xmlns="http://www.w3.org/2000/svg" xml:space="preserve" width="6.82666in" height="6.82666in" style="shape-rendering:geometricPrecision; text-rendering:geometricPrecision; image-rendering:optimizeQuality; fill-rule:evenodd; clip-rule:evenodd"
viewBox="0 0 6.82666 6.82666"
 xmlns:xlink="http://www.w3.org/1999/xlink">
 <defs>
  <style type="text/css">
   <![CDATA[
    .fil1 {fill:none}
    .fil0 {fill:#424242}
    .fil2 {fill:#FFFFFE}
    .fil3 {fill:#FFFFFE;fill-rule:nonzero}
   ]]>
  </style>
 </defs>
 <rect class="fil0" width="6.82666" height="6.82666"/>
 <g id="Layer_x0020_1">
  <metadata id="CorelCorpID_0Corel-Layer"/>
  <g id="_394729504">
   <rect id="_394730560" class="fil1" width="6.82666" height="6.82666"/>
   <rect id="_394730152" class="fil1" x="0.853331" y="0.853331" width="5.12" height="5.12"/>
  </g>
  <path class="fil2" d="M1.44712 1.50767l0.655602 0 0 0.233402c0,0.0739724 0.0326417,0.142445 0.0887638,0.190311 0.0476929,0.0406772 0.108917,0.063122 0.171587,0.063122l1.2976 0c0.0626693,0 0.123902,-0.0224488 0.171591,-0.0631299 0.0560709,-0.0478268 0.0887559,-0.116287 0.0887559,-0.190303l0 -0.233402 0.655602 0c0.0623661,0 0.113386,0.0572087 0.113386,0.12713l0 2.21126c-0.445055,0.0289685 -0.797079,0.399059 -0.797079,0.851437 0,0.452378 0.352024,0.822469 0.797079,0.851437l0 0.204937c0,0.0699213 -0.0510197,0.12713 -0.113386,0.12713l-3.1295 0c-0.0623622,0 -0.113386,-0.0572047 -0.113386,-0.12713l0 -4.11907c0,-0.0699252 0.0510197,-0.12713 0.113386,-0.12713zm0.978087 0.906661l1.92 0 0 0.213339 -1.92 0 0 -0.213339zm-0.746669 2.13333l0.426669 0 0.106669 0 0 0.106669 0 0.426669 0 0.106669 -0.106669 0 -0.426669 0 -0.106669 0 0 -0.106669 0 -0.426669 0 -0.106669 0.106669 0zm0.32 0.213339l-0.213331 0 0 0.213331 0.213331 0 0 -0.213331zm0.426669 -3.93701e-006l1.14772 0 0 0.213339 -1.14772 0 0 -0.213339zm-0.746669 -1.38667l0.426669 0 0.106669 0 0 0.106669 0 0.426669 0 0.106669 -0.106669 0 -0.426669 0 -0.106669 0 0 -0.106669 0 -0.426669 0 -0.106669 0.106669 0zm0.32 0.213339l-0.213331 0 0 0.213331 0.213331 0 0 -0.213331zm0.426669 -3.93701e-006l1.92 0 0 0.213339 -1.92 0 0 -0.213339zm-0.746669 -1.38667l0.426669 0 0.106669 0 0 0.106669 0 0.426669 0 0.106669 -0.106669 0 -0.426669 0 -0.106669 0 0 -0.106669 0 -0.426669 0 -0.106669 0.106669 0zm0.32 0.213339l-0.213331 0 0 0.213331 0.213331 0 0 -0.213331z"/>
  <path class="fil3" d="M2.36307 1.18767l1.2976 0c0.0388543,0 0.0751693,0.0144134 0.102366,0.0376142 0.0316654,0.027 0.051315,0.0655512 0.051315,0.109154l0 0.406634c0,0.0435906 -0.0196614,0.0821535 -0.051315,0.109154 -0.0271969,0.0232008 -0.0635236,0.0376142 -0.102366,0.0376142l-1.2976 0c-0.0388504,0 -0.0751732,-0.0144134 -0.10237,-0.0376142 -0.0316654,-0.027 -0.051315,-0.0655591 -0.051315,-0.109154l0 -0.406634c0,-0.0436024 0.0196496,-0.0821535 0.051315,-0.109154 0.0271969,-0.0232008 0.0635197,-0.0376142 0.10237,-0.0376142zm1.23794 0.213339l-1.17829 0 0 0.273492 1.17829 0 0 -0.273492z"/>
  <circle class="fil2" cx="3.01187" cy="1.11912" r="0.264807"/>
  <path class="fil2" d="M4.74626 3.95083c0.41237,0 0.746665,0.334295 0.746665,0.746665 0,0.41237 -0.334295,0.746665 -0.746665,0.746665 -0.41237,0 -0.746665,-0.334295 -0.746665,-0.746665 0,-0.41237 0.334295,-0.746665 0.746665,-0.746665zm-0.297913 0.724583l0.137909 0.137913 0.457917 -0.457913 0.150835 0.150835 -0.533335 0.533331 -0.0754213 0.0754173 -0.0754134 -0.0754173 -0.213327 -0.213331 0.150835 -0.150835z"/>
 </g>
</svg>
