<?xml version="1.0" encoding="UTF-8"?>
<!DOCTYPE svg PUBLIC "-//W3C//DTD SVG 1.1//EN" "http://www.w3.org/Graphics/SVG/1.1/DTD/svg11.dtd">
<!-- Creator: CorelDRAW -->
<svg xmlns="http://www.w3.org/2000/svg" xml:space="preserve" width="6.82666in" height="6.82666in" style="shape-rendering:geometricPrecision; text-rendering:geometricPrecision; image-rendering:optimizeQuality; fill-rule:evenodd; clip-rule:evenodd"
viewBox="0 0 6.82666 6.82666"
 xmlns:xlink="http://www.w3.org/1999/xlink">
 <defs>
  <style type="text/css">
   <![CDATA[
    .fil1 {fill:none}
    .fil0 {fill:#424242}
    .fil3 {fill:#FFFFFE}
    .fil2 {fill:#FFFFFE;fill-rule:nonzero}
   ]]>
  </style>
 </defs>
 <rect class="fil0" width="6.82666" height="6.82666"/>
 <g id="Layer_x0020_1">
  <metadata id="CorelCorpID_0Corel-Layer"/>
  <g id="_394731256">
   <rect id="_394731160" class="fil1" width="6.82666" height="6.82666"/>
   <rect id="_394731112" class="fil1" x="0.853331" y="0.853331" width="5.12" height="5.12"/>
  </g>
  <g id="_394730536">
   <polygon id="_394731712" class="fil2" points="2.71431,2.35509 3.99585,2.35509 3.99585,2.47004 2.71431,2.47004 "/>
   <polygon id="_394731616" class="fil2" points="2.71431,1.58116 3.99585,1.58116 3.99585,1.77258 2.71431,1.77258 "/>
   <path id="_394731496" class="fil2" d="M1.88412 1.60248c0.321161,-0.795823 0.579406,-0.959606 1.5292,-0.237539 0.67226,-0.736795 0.890874,-0.54185 1.41982,0.268528l-0.25478 0.0225945c-0.468673,-0.718035 -0.570689,-0.641961 -1.0763,-0.0403898l-0.177488 0c-0.608508,-0.601571 -0.902823,-0.72124 -1.1784,-0.00320866l-0.262059 -0.00998425z"/>
   <path id="_394731472" class="fil3" d="M0.853331 1.58116l2.44349 0 0 0.890437 -2.44349 0 0 -0.890437zm2.6765 0l2.4435 0 0 0.890437 -2.4435 0 0 -0.890437z"/>
   <path id="_394730992" class="fil3" d="M1.18724 2.47159l2.10958 0 0 3.45044 -2.10958 0 0 -3.45044zm2.34259 0l2.10958 0 0 3.45044 -2.10958 0 0 -3.45044z"/>
  </g>
 </g>
</svg>
