<?xml version="1.0" encoding="UTF-8"?>
<!DOCTYPE svg PUBLIC "-//W3C//DTD SVG 1.1//EN" "http://www.w3.org/Graphics/SVG/1.1/DTD/svg11.dtd">
<!-- Creator: CorelDRAW -->
<svg xmlns="http://www.w3.org/2000/svg" xml:space="preserve" width="6.82666in" height="6.82666in" style="shape-rendering:geometricPrecision; text-rendering:geometricPrecision; image-rendering:optimizeQuality; fill-rule:evenodd; clip-rule:evenodd"
viewBox="0 0 6.82666 6.82666"
 xmlns:xlink="http://www.w3.org/1999/xlink">
 <defs>
  <style type="text/css">
   <![CDATA[
    .fil1 {fill:none}
    .fil0 {fill:#424242}
    .fil2 {fill:#FFFFFE}
    .fil3 {fill:#FFFFFE;fill-rule:nonzero}
   ]]>
  </style>
 </defs>
 <rect class="fil0" width="6.82666" height="6.82666"/>
 <g id="Layer_x0020_1">
  <metadata id="CorelCorpID_0Corel-Layer"/>
  <g id="_394726048">
   <rect id="_394725688" class="fil1" width="6.82666" height="6.82666"/>
   <rect id="_394726096" class="fil1" x="0.853331" y="0.853331" width="5.12" height="5.12"/>
  </g>
  <path class="fil2" d="M4.96087 2.30532c0.00113386,0.0207795 0.0060748,0.0404055 0.0157323,0.0591929 0.0498307,0.0969016 0.235638,0.165039 0.331366,0.204252 0.203476,0.0833425 0.466768,0.187929 0.502374,0.435894l0.0109331 0.0761417 -2.18051 0 0.010937 -0.0761417c0.0356142,-0.247965 0.298902,-0.352551 0.502378,-0.435898 0.0957205,-0.0392047 0.281567,-0.107354 0.331382,-0.204248 0.00965354,-0.0187874 0.0145866,-0.0384094 0.0157165,-0.059189 -0.123516,-0.12724 -0.205217,-0.323071 -0.24335,-0.493248 -0.0484094,-0.21602 -0.0500236,-0.496291 0.105402,-0.672008 0.095185,-0.107614 0.227016,-0.149925 0.367791,-0.149925 0.140587,0 0.272228,0.0422559 0.367358,0.149646 0.155665,0.17572 0.154138,0.456244 0.105728,0.672406 -0.0381102,0.170177 -0.119752,0.365874 -0.24324,0.493126z"/>
  <path class="fil2" d="M2.41058 5.03534c0.00113386,0.0207795 0.0060748,0.0404055 0.0157323,0.0591929 0.0498307,0.0969016 0.235638,0.165039 0.331366,0.204252 0.203476,0.0833425 0.466768,0.187929 0.502374,0.435894l0.0109331 0.0761417 -2.18051 0 0.010937 -0.0761417c0.0356142,-0.247965 0.298902,-0.352551 0.502378,-0.435898 0.0957205,-0.0392047 0.281567,-0.107354 0.331382,-0.204248 0.00965354,-0.0187874 0.0145866,-0.0384094 0.0157165,-0.059189 -0.123516,-0.12724 -0.205217,-0.323071 -0.24335,-0.493248 -0.0484094,-0.21602 -0.0500236,-0.496291 0.105402,-0.672008 0.095185,-0.107614 0.227016,-0.149925 0.367791,-0.149925 0.140587,0 0.272228,0.0422559 0.367358,0.149646 0.155665,0.17572 0.154138,0.456244 0.105728,0.672406 -0.0381102,0.170177 -0.119752,0.365874 -0.24324,0.493126z"/>
  <polygon class="fil3" points="3.84,1.92 1.70667,1.92 1.70667,3.09333 1.49333,3.09333 1.49333,1.81333 1.49333,1.70666 1.6,1.70666 3.84,1.70666 "/>
  <polygon class="fil3" points="1.2557,2.69791 1.60694,3.04916 1.95819,2.69791 2.10902,2.84874 1.68236,3.27541 1.60694,3.35083 1.53152,3.27541 1.10486,2.84874 "/>
  <polygon class="fil3" points="2.88694,5.01333 5.02028,5.01333 5.02028,3.84 5.23361,3.84 5.23361,5.12 5.23361,5.22667 5.12694,5.22667 2.88694,5.22667 "/>
  <polygon class="fil3" points="5.47125,4.23541 5.12,3.88417 4.76876,4.23541 4.61793,4.08458 5.04459,3.65791 5.12,3.58249 5.19542,3.65791 5.62208,4.08458 "/>
 </g>
</svg>
