<?xml version="1.0" encoding="UTF-8"?>
<!DOCTYPE svg PUBLIC "-//W3C//DTD SVG 1.1//EN" "http://www.w3.org/Graphics/SVG/1.1/DTD/svg11.dtd">
<!-- Creator: CorelDRAW -->
<svg xmlns="http://www.w3.org/2000/svg" xml:space="preserve" width="6.82666in" height="6.82666in" style="shape-rendering:geometricPrecision; text-rendering:geometricPrecision; image-rendering:optimizeQuality; fill-rule:evenodd; clip-rule:evenodd"
viewBox="0 0 6.82666 6.82666"
 xmlns:xlink="http://www.w3.org/1999/xlink">
 <defs>
  <style type="text/css">
   <![CDATA[
    .fil1 {fill:none}
    .fil0 {fill:#424242}
    .fil3 {fill:#FFFFFE}
    .fil2 {fill:#FFFFFE;fill-rule:nonzero}
   ]]>
  </style>
 </defs>
 <rect class="fil0" width="6.82666" height="6.82666"/>
 <g id="Layer_x0020_1">
  <metadata id="CorelCorpID_0Corel-Layer"/>
  <g id="_394727872">
   <rect id="_394727320" class="fil1" width="6.82666" height="6.82666"/>
   <rect id="_394727560" class="fil1" x="0.853331" y="0.853331" width="5.12" height="5.12"/>
  </g>
  <path class="fil2" d="M3.41333 0.906661c0.692185,0 1.31886,0.280575 1.77247,0.734197 0.453622,0.453614 0.734197,1.08029 0.734197,1.77247 0,0.692185 -0.280575,1.31886 -0.734197,1.77247 -0.453614,0.453622 -1.08029,0.734197 -1.77247,0.734197 -0.692185,0 -1.31886,-0.280575 -1.77247,-0.734197 -0.453622,-0.453614 -0.734197,-1.08029 -0.734197,-1.77247 0,-0.692185 0.280575,-1.31886 0.734197,-1.77247 0.453614,-0.453622 1.08029,-0.734197 1.77247,-0.734197zm1.62164 0.885031c-0.415,-0.415004 -0.988339,-0.671693 -1.62164,-0.671693 -0.633299,0 -1.20664,0.256689 -1.62164,0.671693 -0.415004,0.415 -0.671693,0.988339 -0.671693,1.62164 0,0.633299 0.256689,1.20664 0.671693,1.62164 0.415,0.415004 0.988339,0.671693 1.62164,0.671693 0.633299,0 1.20664,-0.256689 1.62164,-0.671693 0.415004,-0.415 0.671693,-0.988339 0.671693,-1.62164 0,-0.633299 -0.256689,-1.20664 -0.671693,-1.62164z"/>
  <polygon class="fil2" points="3.52,1.01333 3.52,1.6 3.30666,1.6 3.30666,1.01333 "/>
  <polygon class="fil2" points="3.52,5.22667 3.52,5.81333 3.30666,5.81333 3.30666,5.22667 "/>
  <polygon class="fil2" points="5.81333,3.52 5.22667,3.52 5.22667,3.30666 5.81333,3.30666 "/>
  <polygon class="fil2" points="1.6,3.52 1.01333,3.52 1.01333,3.30666 1.6,3.30666 "/>
  <path class="fil3" d="M3.64318 3.68318c0.00113386,0.0207795 0.0060748,0.0404055 0.0157323,0.0591929 0.0498307,0.0969016 0.235638,0.165039 0.331366,0.204252 0.203476,0.0833425 0.466768,0.187929 0.502374,0.435894l0.0109331 0.0761417 -2.18051 0 0.010937 -0.0761417c0.0356142,-0.247965 0.298902,-0.352551 0.502378,-0.435898 0.0957205,-0.0392047 0.281567,-0.107354 0.331382,-0.204248 0.00965354,-0.0187874 0.0145866,-0.0384094 0.0157165,-0.059189 -0.123516,-0.12724 -0.205217,-0.323071 -0.24335,-0.493248 -0.0484094,-0.21602 -0.0500236,-0.496291 0.105402,-0.672008 0.095185,-0.107614 0.227016,-0.149925 0.367791,-0.149925 0.140587,0 0.272228,0.0422559 0.367358,0.149646 0.155665,0.17572 0.154138,0.456244 0.105728,0.672406 -0.0381102,0.170177 -0.119752,0.365874 -0.24324,0.493126z"/>
  <path class="fil3" d="M4.89722 3.24815c0.000870079,0.0159213 0.00465354,0.0309606 0.0120551,0.0453583 0.0381811,0.074248 0.180551,0.126457 0.253902,0.156504 0.155909,0.0638583 0.357654,0.143996 0.384937,0.333992l0.00837402 0.0583425 -1.67077 0 0.00838189 -0.0583425c0.0272874,-0.189996 0.229028,-0.270134 0.384937,-0.333996 0.0733425,-0.0300394 0.215744,-0.0822598 0.253913,-0.1565 0.00739764,-0.0143976 0.0111772,-0.0294331 0.0120433,-0.0453543 -0.0946417,-0.0974961 -0.157244,-0.247547 -0.186461,-0.377941 -0.0370945,-0.165524 -0.0383307,-0.380276 0.0807598,-0.514913 0.0729331,-0.0824567 0.173949,-0.114878 0.281815,-0.114878 0.10772,0 0.208591,0.032378 0.28148,0.114661 0.119276,0.134646 0.118106,0.349591 0.0810118,0.51522 -0.0292008,0.130394 -0.0917559,0.280343 -0.186378,0.377846z"/>
  <path class="fil3" d="M2.38835 3.24815c0.000870079,0.0159213 0.00465354,0.0309606 0.0120551,0.0453583 0.0381811,0.074248 0.180551,0.126457 0.253902,0.156504 0.155909,0.0638583 0.357654,0.143996 0.384937,0.333992l0.00837402 0.0583425 -1.67077 0 0.00838189 -0.0583425c0.0272874,-0.189996 0.229028,-0.270134 0.384937,-0.333996 0.0733425,-0.0300394 0.215744,-0.0822598 0.253913,-0.1565 0.00739764,-0.0143976 0.0111772,-0.0294331 0.0120433,-0.0453543 -0.0946417,-0.0974961 -0.157244,-0.247547 -0.186461,-0.377941 -0.0370945,-0.165524 -0.0383307,-0.380276 0.0807598,-0.514913 0.0729331,-0.0824567 0.173949,-0.114878 0.281815,-0.114878 0.10772,0 0.208591,0.032378 0.28148,0.114661 0.119276,0.134646 0.118106,0.349591 0.0810118,0.51522 -0.0292008,0.130394 -0.0917559,0.280343 -0.186378,0.377846z"/>
 </g>
</svg>
