<?xml version="1.0" encoding="UTF-8"?>
<!DOCTYPE svg PUBLIC "-//W3C//DTD SVG 1.1//EN" "http://www.w3.org/Graphics/SVG/1.1/DTD/svg11.dtd">
<!-- Creator: CorelDRAW -->
<svg xmlns="http://www.w3.org/2000/svg" xml:space="preserve" width="6.82666in" height="6.82666in" style="shape-rendering:geometricPrecision; text-rendering:geometricPrecision; image-rendering:optimizeQuality; fill-rule:evenodd; clip-rule:evenodd"
viewBox="0 0 6.82666 6.82666"
 xmlns:xlink="http://www.w3.org/1999/xlink">
 <defs>
  <style type="text/css">
   <![CDATA[
    .fil1 {fill:none}
    .fil0 {fill:#424242}
    .fil3 {fill:#FFFFFE}
    .fil2 {fill:#FFFFFE;fill-rule:nonzero}
   ]]>
  </style>
 </defs>
 <rect class="fil0" width="6.82666" height="6.82666"/>
 <g id="Layer_x0020_1">
  <metadata id="CorelCorpID_0Corel-Layer"/>
  <g id="_390674032">
   <rect id="_390673552" class="fil1" width="6.82666" height="6.82666"/>
   <rect id="_390673480" class="fil1" x="0.853331" y="0.853331" width="5.12" height="5.12"/>
  </g>
  <path class="fil1" d="M0.853331 1.76936l0.787039 0 0.819181 3.05724 2.77872 0 0.485236 -1.81094 -1.3325 0m-1.08083 0l-1.31161 0"/>
  <path class="fil2" d="M0.853331 1.66269l0.787039 0 0.0817047 0 0.0212126 0.0791693 0.312728 1.16712 1.09465 0c0.0397087,0.118717 0.103969,0.229524 0.145984,0.349382 0.0636772,0.181638 0.0848976,0.372791 0.0872559,0.564303l-0.0897205 0 0 0.426669 0.112437 0 0 0.280661 0.887933 0 0 -0.280661 0.112437 0 0 -0.426669 -0.0897205 0c0.00235827,-0.191516 0.0235787,-0.382665 0.0872559,-0.564307 0.0420157,-0.119858 0.106276,-0.230661 0.14598,-0.349378l1.17299 0 0.138866 0 -0.0359488 0.134169 -0.485236 1.81094 -0.0212165 0.0791693 -0.0817008 0 -2.77872 0 -0.0817008 0 -0.0212165 -0.0791693 -0.797969 -2.97807 -0.705335 0 0 -0.213339z"/>
  <circle class="fil3" cx="2.91929" cy="5.32179" r="0.27007"/>
  <circle class="fil3" cx="4.75007" cy="5.32179" r="0.27007"/>
  <path class="fil3" d="M3.85059 2.0612c0.347732,0 0.62963,0.281898 0.62963,0.62963 0,0.328831 -0.269839,0.41835 -0.269839,1.16932l-0.719579 0c0,-0.750972 -0.269843,-0.840484 -0.269843,-1.16932 0,-0.347732 0.281898,-0.62963 0.62963,-0.62963z"/>
  <polygon class="fil2" points="3.40085,3.92933 4.30033,3.92933 4.30033,4.14267 3.40085,4.14267 "/>
  <polygon class="fil2" points="3.51329,4.21 4.18789,4.21 4.18789,4.42333 3.51329,4.42333 "/>
  <path class="fil2" d="M4.66137 1.81287c0.0292244,-0.0508543 0.011689,-0.115776 -0.0391654,-0.145 -0.0508543,-0.0292244 -0.115776,-0.011689 -0.145,0.0391654l-0.145232 0.251551c-0.0292244,0.0508543 -0.011689,0.115776 0.0391654,0.145 0.0508543,0.0292244 0.115776,0.011689 0.145,-0.0391654l0.145232 -0.251551z"/>
  <line class="fil1" x1="3.10337" y1="1.75995" x2="3.24861" y2= "2.0115" />
  <path class="fil2" d="M3.19546 1.70704c-0.0292244,-0.0508543 -0.0941457,-0.0683898 -0.145,-0.0391654 -0.0508543,0.0292244 -0.0683898,0.0941457 -0.0391654,0.145l0.145232 0.251551c0.0292244,0.0508543 0.0941457,0.0683898 0.145,0.0391654 0.0508543,-0.0292244 0.0683898,-0.0941457 0.0391654,-0.145l-0.145232 -0.251551z"/>
  <line class="fil1" x1="3.83099" y1="1.48645" x2="3.82992" y2= "1.76657" />
  <path class="fil2" d="M3.93724 1.48645c0,-0.0586811 -0.0475709,-0.106252 -0.106252,-0.106252 -0.0586811,0 -0.106252,0.0475709 -0.106252,0.106252l-0.00107087 0.280118c0,0.0586811 0.0475709,0.106252 0.106252,0.106252 0.0586811,0 0.106252,-0.0475709 0.106252,-0.106252l0.00107087 -0.280118z"/>
 </g>
</svg>
